<svg width="34" height="51" viewBox="0 0 34 51" fill="none" xmlns="http://www.w3.org/2000/svg">
<path d="M21.2161 38.4343C20.8421 39.3143 20.4681 40.0343 20.0601 40.6343C19.6521 41.2343 18.8701 42.3543 18.5981 42.6743L21.3181 45.5143L21.3521 45.5143C22.3041 44.9543 23.2901 44.0343 24.3441 42.8343C25.3981 41.6343 26.3501 40.1543 27.2681 38.4743C28.1861 36.7943 28.9001 34.8343 29.4781 32.7143C30.0561 30.5943 30.3621 28.3143 30.3621 25.8743C30.3621 24.5543 30.1921 23.3144 29.8861 22.1143C29.5801 20.9144 29.1381 19.8343 28.5601 18.8743C27.9821 17.9143 27.3021 17.1943 26.5201 16.6343C25.7381 16.0743 24.8541 15.7943 23.9021 15.7943L23.8681 15.7943C23.2221 15.7943 22.6101 15.9143 22.0321 16.1943C21.4881 16.4743 20.9781 16.8343 20.5701 17.3143C20.1621 17.7943 19.8221 18.3143 19.5841 18.9543C19.3461 19.5943 19.2441 20.2743 19.2441 20.9943C19.2441 21.7943 19.3121 22.5143 19.4821 23.0743C19.6521 23.6743 19.8561 24.1943 20.0941 24.6343C20.3321 25.0743 20.6041 25.5543 20.8761 25.9543C21.1481 26.3543 21.4201 26.8343 21.6581 27.3543C21.8961 27.8743 22.1001 28.4343 22.2701 29.0743C22.4401 29.7143 22.5081 30.5143 22.5081 31.4343C22.5081 32.8743 22.3721 34.1943 22.1341 35.3143C21.8961 36.4343 21.5901 37.5543 21.2161 38.4343Z" fill="#C9AB81"/>
<path d="M6.2561 38.4343C5.8821 39.3143 5.5081 40.0343 5.1001 40.6343C4.6921 41.2343 3.9101 42.3543 3.6381 42.6743L6.3581 45.5143L6.3921 45.5143C7.3441 44.9543 8.3301 44.0343 9.3841 42.8343C10.4381 41.6343 11.3901 40.1543 12.3081 38.4743C13.2261 36.7943 13.9401 34.8343 14.5181 32.7143C15.0961 30.5943 15.4021 28.3143 15.4021 25.8743C15.4021 24.5543 15.2321 23.3143 14.9261 22.1143C14.6201 20.9143 14.1781 19.8343 13.6001 18.8743C13.0221 17.9143 12.3421 17.1943 11.5601 16.6343C10.7781 16.0743 9.8941 15.7943 8.9421 15.7943L8.9081 15.7943C8.2621 15.7943 7.6501 15.9143 7.0721 16.1943C6.5281 16.4743 6.0181 16.8343 5.6101 17.3143C5.2021 17.7943 4.8621 18.3143 4.6241 18.9543C4.3861 19.5943 4.2841 20.2743 4.2841 20.9943C4.2841 21.7943 4.3521 22.5143 4.5221 23.0743C4.6921 23.6743 4.8961 24.1943 5.1341 24.6343C5.3721 25.0743 5.6441 25.5543 5.9161 25.9543C6.1881 26.3543 6.4601 26.8343 6.6981 27.3543C6.9361 27.8743 7.1401 28.4343 7.3101 29.0743C7.4801 29.7143 7.5481 30.5143 7.5481 31.4343C7.5481 32.8743 7.4121 34.1943 7.1741 35.3143C6.9361 36.4343 6.6301 37.5543 6.2561 38.4343Z" fill="#C9AB81"/>
</svg>
