<svg width="321" height="601" viewBox="0 0 321 601" fill="none" xmlns="http://www.w3.org/2000/svg">
<g clip-path="url(#clip0_171:7473)">
<rect width="320.245" height="600.459" transform="translate(0.624268 0.496338)" fill="#09141A"/>
<rect x="0.624268" y="40.527" width="56.6118" height="56.6118" transform="rotate(-45 0.624268 40.527)" stroke="#937A5C" stroke-width="1.87643"/>
<path d="M40.6549 40.5269L20.6396 60.5422L40.6549 80.5575L60.6702 60.5422L40.6549 40.5269ZM40.6549 40.5269L40.6549 0.615861" stroke="#937A5C" stroke-width="1.87643"/>
<rect x="80.6855" y="40.527" width="56.6118" height="56.6118" transform="rotate(-45 80.6855 40.527)" stroke="#937A5C" stroke-width="1.87643"/>
<path d="M120.716 40.5269L100.701 60.5422L120.716 80.5575L140.731 60.5422L120.716 40.5269ZM120.716 40.5269L120.716 0.615861" stroke="#937A5C" stroke-width="1.87643"/>
<rect x="160.747" y="40.527" width="56.6118" height="56.6118" transform="rotate(-45 160.747 40.527)" stroke="#937A5C" stroke-width="1.87643"/>
<path d="M200.777 40.5269L180.762 60.5422L200.777 80.5575L220.793 60.5422L200.777 40.5269ZM200.777 40.5269L200.777 0.615861" stroke="#937A5C" stroke-width="1.87643"/>
<rect x="240.808" y="40.527" width="56.6118" height="56.6118" transform="rotate(-45 240.808 40.527)" stroke="#937A5C" stroke-width="1.87643"/>
<path d="M280.838 40.5269L260.823 60.5422L280.838 80.5575L300.854 60.5422L280.838 40.5269ZM280.838 40.5269L280.838 0.615861" stroke="#937A5C" stroke-width="1.87643"/>
<rect x="0.624268" y="120.588" width="56.6118" height="56.6118" transform="rotate(-45 0.624268 120.588)" stroke="#937A5C" stroke-width="1.87643"/>
<path d="M40.6549 120.588L20.6396 140.603L40.6549 160.619L60.6702 140.603L40.6549 120.588ZM40.6549 120.588L40.6549 80.677" stroke="#937A5C" stroke-width="1.87643"/>
<rect x="80.6855" y="120.588" width="56.6118" height="56.6118" transform="rotate(-45 80.6855 120.588)" stroke="#937A5C" stroke-width="1.87643"/>
<path d="M120.716 120.588L100.701 140.603L120.716 160.619L140.731 140.603L120.716 120.588ZM120.716 120.588L120.716 80.677" stroke="#937A5C" stroke-width="1.87643"/>
<rect x="160.747" y="120.588" width="56.6118" height="56.6118" transform="rotate(-45 160.747 120.588)" stroke="#937A5C" stroke-width="1.87643"/>
<path d="M200.777 120.588L180.762 140.603L200.777 160.619L220.793 140.603L200.777 120.588ZM200.777 120.588L200.777 80.677" stroke="#937A5C" stroke-width="1.87643"/>
<rect x="240.808" y="120.588" width="56.6118" height="56.6118" transform="rotate(-45 240.808 120.588)" stroke="#937A5C" stroke-width="1.87643"/>
<path d="M280.838 120.588L260.823 140.603L280.838 160.619L300.854 140.603L280.838 120.588ZM280.838 120.588L280.838 80.677" stroke="#937A5C" stroke-width="1.87643"/>
<rect x="0.624268" y="200.649" width="56.6118" height="56.6118" transform="rotate(-45 0.624268 200.649)" stroke="#937A5C" stroke-width="1.87643"/>
<path d="M40.6549 200.649L20.6396 220.665L40.6549 240.68L60.6702 220.665L40.6549 200.649ZM40.6549 200.649L40.6549 160.738" stroke="#937A5C" stroke-width="1.87643"/>
<rect x="80.6855" y="200.649" width="56.6118" height="56.6118" transform="rotate(-45 80.6855 200.649)" stroke="#937A5C" stroke-width="1.87643"/>
<path d="M120.716 200.649L100.701 220.665L120.716 240.68L140.731 220.665L120.716 200.649ZM120.716 200.649L120.716 160.738" stroke="#937A5C" stroke-width="1.87643"/>
<rect x="160.747" y="200.649" width="56.6118" height="56.6118" transform="rotate(-45 160.747 200.649)" stroke="#937A5C" stroke-width="1.87643"/>
<path d="M200.777 200.649L180.762 220.665L200.777 240.68L220.793 220.665L200.777 200.649ZM200.777 200.649L200.777 160.738" stroke="#937A5C" stroke-width="1.87643"/>
<rect x="240.808" y="200.649" width="56.6118" height="56.6118" transform="rotate(-45 240.808 200.649)" stroke="#937A5C" stroke-width="1.87643"/>
<path d="M280.838 200.649L260.823 220.665L280.838 240.68L300.854 220.665L280.838 200.649ZM280.838 200.649L280.838 160.738" stroke="#937A5C" stroke-width="1.87643"/>
<rect x="0.624268" y="280.71" width="56.6118" height="56.6118" transform="rotate(-45 0.624268 280.71)" stroke="#937A5C" stroke-width="1.87643"/>
<path d="M40.6549 280.71L20.6396 300.726L40.6549 320.741L60.6702 300.726L40.6549 280.71ZM40.6549 280.71L40.6549 240.799" stroke="#937A5C" stroke-width="1.87643"/>
<rect x="80.6855" y="280.71" width="56.6118" height="56.6118" transform="rotate(-45 80.6855 280.71)" stroke="#937A5C" stroke-width="1.87643"/>
<path d="M120.716 280.71L100.701 300.726L120.716 320.741L140.731 300.726L120.716 280.71ZM120.716 280.71L120.716 240.799" stroke="#937A5C" stroke-width="1.87643"/>
<rect x="160.747" y="280.71" width="56.6118" height="56.6118" transform="rotate(-45 160.747 280.71)" stroke="#937A5C" stroke-width="1.87643"/>
<path d="M200.777 280.71L180.762 300.726L200.777 320.741L220.793 300.726L200.777 280.71ZM200.777 280.71L200.777 240.799" stroke="#937A5C" stroke-width="1.87643"/>
<rect x="240.808" y="280.71" width="56.6118" height="56.6118" transform="rotate(-45 240.808 280.71)" stroke="#937A5C" stroke-width="1.87643"/>
<path d="M280.838 280.71L260.823 300.726L280.838 320.741L300.854 300.726L280.838 280.71ZM280.838 280.71L280.838 240.799" stroke="#937A5C" stroke-width="1.87643"/>
<rect x="0.624268" y="360.772" width="56.6118" height="56.6118" transform="rotate(-45 0.624268 360.772)" stroke="#937A5C" stroke-width="1.87643"/>
<path d="M40.6549 360.772L20.6396 380.787L40.6549 400.802L60.6702 380.787L40.6549 360.772ZM40.6549 360.772L40.6549 320.86" stroke="#937A5C" stroke-width="1.87643"/>
<rect x="80.6855" y="360.772" width="56.6118" height="56.6118" transform="rotate(-45 80.6855 360.772)" stroke="#937A5C" stroke-width="1.87643"/>
<path d="M120.716 360.772L100.701 380.787L120.716 400.802L140.731 380.787L120.716 360.772ZM120.716 360.772L120.716 320.86" stroke="#937A5C" stroke-width="1.87643"/>
<rect x="160.747" y="360.772" width="56.6118" height="56.6118" transform="rotate(-45 160.747 360.772)" stroke="#937A5C" stroke-width="1.87643"/>
<path d="M200.777 360.772L180.762 380.787L200.777 400.802L220.793 380.787L200.777 360.772ZM200.777 360.772L200.777 320.86" stroke="#937A5C" stroke-width="1.87643"/>
<rect x="240.808" y="360.772" width="56.6118" height="56.6118" transform="rotate(-45 240.808 360.772)" stroke="#937A5C" stroke-width="1.87643"/>
<path d="M280.838 360.772L260.823 380.787L280.838 400.802L300.854 380.787L280.838 360.772ZM280.838 360.772L280.838 320.86" stroke="#937A5C" stroke-width="1.87643"/>
<rect x="0.624268" y="440.833" width="56.6118" height="56.6118" transform="rotate(-45 0.624268 440.833)" stroke="#937A5C" stroke-width="1.87643"/>
<path d="M40.6549 440.833L20.6396 460.848L40.6549 480.863L60.6702 460.848L40.6549 440.833ZM40.6549 440.833L40.6549 400.922" stroke="#937A5C" stroke-width="1.87643"/>
<rect x="80.6855" y="440.833" width="56.6118" height="56.6118" transform="rotate(-45 80.6855 440.833)" stroke="#937A5C" stroke-width="1.87643"/>
<path d="M120.716 440.833L100.701 460.848L120.716 480.863L140.731 460.848L120.716 440.833ZM120.716 440.833L120.716 400.922" stroke="#937A5C" stroke-width="1.87643"/>
<rect x="160.747" y="440.833" width="56.6118" height="56.6118" transform="rotate(-45 160.747 440.833)" stroke="#937A5C" stroke-width="1.87643"/>
<path d="M200.777 440.833L180.762 460.848L200.777 480.863L220.793 460.848L200.777 440.833ZM200.777 440.833L200.777 400.922" stroke="#937A5C" stroke-width="1.87643"/>
<rect x="240.808" y="440.833" width="56.6118" height="56.6118" transform="rotate(-45 240.808 440.833)" stroke="#937A5C" stroke-width="1.87643"/>
<path d="M280.838 440.833L260.823 460.848L280.838 480.863L300.854 460.848L280.838 440.833ZM280.838 440.833L280.838 400.922" stroke="#937A5C" stroke-width="1.87643"/>
<rect x="0.624268" y="520.894" width="56.6118" height="56.6118" transform="rotate(-45 0.624268 520.894)" stroke="#937A5C" stroke-width="1.87643"/>
<path d="M40.6549 520.894L20.6396 540.909L40.6549 560.925L60.6702 540.909L40.6549 520.894ZM40.6549 520.894L40.6549 480.983" stroke="#937A5C" stroke-width="1.87643"/>
<rect x="80.6855" y="520.894" width="56.6118" height="56.6118" transform="rotate(-45 80.6855 520.894)" stroke="#937A5C" stroke-width="1.87643"/>
<path d="M120.716 520.894L100.701 540.909L120.716 560.925L140.731 540.909L120.716 520.894ZM120.716 520.894L120.716 480.983" stroke="#937A5C" stroke-width="1.87643"/>
<rect x="160.747" y="520.894" width="56.6118" height="56.6118" transform="rotate(-45 160.747 520.894)" stroke="#937A5C" stroke-width="1.87643"/>
<path d="M200.777 520.894L180.762 540.909L200.777 560.925L220.793 540.909L200.777 520.894ZM200.777 520.894L200.777 480.983" stroke="#937A5C" stroke-width="1.87643"/>
<rect x="240.808" y="520.894" width="56.6118" height="56.6118" transform="rotate(-45 240.808 520.894)" stroke="#937A5C" stroke-width="1.87643"/>
<path d="M280.838 520.894L260.823 540.909L280.838 560.925L300.854 540.909L280.838 520.894ZM280.838 520.894L280.838 480.983" stroke="#937A5C" stroke-width="1.87643"/>
<rect x="0.624268" y="600.955" width="56.6118" height="56.6118" transform="rotate(-45 0.624268 600.955)" stroke="#937A5C" stroke-width="1.87643"/>
<path d="M40.6549 600.955L20.6396 620.97L40.6549 640.986L60.6702 620.97L40.6549 600.955ZM40.6549 600.955L40.6549 561.044" stroke="#937A5C" stroke-width="1.87643"/>
<rect x="80.6855" y="600.955" width="56.6118" height="56.6118" transform="rotate(-45 80.6855 600.955)" stroke="#937A5C" stroke-width="1.87643"/>
<path d="M120.716 600.955L100.701 620.97L120.716 640.986L140.731 620.97L120.716 600.955ZM120.716 600.955L120.716 561.044" stroke="#937A5C" stroke-width="1.87643"/>
<rect x="160.747" y="600.955" width="56.6118" height="56.6118" transform="rotate(-45 160.747 600.955)" stroke="#937A5C" stroke-width="1.87643"/>
<path d="M200.777 600.955L180.762 620.97L200.777 640.986L220.793 620.97L200.777 600.955ZM200.777 600.955L200.777 561.044" stroke="#937A5C" stroke-width="1.87643"/>
<rect x="240.808" y="600.955" width="56.6118" height="56.6118" transform="rotate(-45 240.808 600.955)" stroke="#937A5C" stroke-width="1.87643"/>
<path d="M280.838 600.955L260.823 620.97L280.838 640.986L300.854 620.97L280.838 600.955ZM280.838 600.955L280.838 561.044" stroke="#937A5C" stroke-width="1.87643"/>
<rect x="40.6548" y="80.5575" width="56.6118" height="56.6118" transform="rotate(-45 40.6548 80.5575)" stroke="#937A5C" stroke-width="1.87643"/>
<path d="M80.6854 80.5574L60.6701 100.573L80.6854 120.588L100.701 100.573L80.6854 80.5574ZM80.6854 80.5574L80.6854 40.6464" stroke="#937A5C" stroke-width="1.87643"/>
<rect x="120.716" y="80.5575" width="56.6118" height="56.6118" transform="rotate(-45 120.716 80.5575)" stroke="#937A5C" stroke-width="1.87643"/>
<path d="M160.747 80.5574L140.731 100.573L160.747 120.588L180.762 100.573L160.747 80.5574ZM160.747 80.5574L160.747 40.6464" stroke="#937A5C" stroke-width="1.87643"/>
<rect x="200.777" y="80.5575" width="56.6118" height="56.6118" transform="rotate(-45 200.777 80.5575)" stroke="#937A5C" stroke-width="1.87643"/>
<path d="M240.808 80.5574L220.793 100.573L240.808 120.588L260.823 100.573L240.808 80.5574ZM240.808 80.5574L240.808 40.6464" stroke="#937A5C" stroke-width="1.87643"/>
<rect x="280.838" y="80.5575" width="56.6118" height="56.6118" transform="rotate(-45 280.838 80.5575)" stroke="#937A5C" stroke-width="1.87643"/>
<path d="M300.854 100.573L320.869 80.5575L340.884 100.573L320.869 120.588L300.854 100.573Z" stroke="#937A5C" stroke-width="1.87643"/>
<rect x="-39.4062" y="80.5575" width="56.6118" height="56.6118" transform="rotate(-45 -39.4062 80.5575)" stroke="#937A5C" stroke-width="1.87643"/>
<path d="M-19.3911 100.573L0.624181 80.5575L20.6395 100.573L0.624184 120.588L-19.3911 100.573Z" stroke="#937A5C" stroke-width="1.87643"/>
<rect x="40.6548" y="0.496338" width="56.6118" height="56.6118" transform="rotate(-45 40.6548 0.496338)" stroke="#937A5C" stroke-width="1.87643"/>
<path d="M80.6854 0.496254L60.6701 20.5115L80.6854 40.5268L100.701 20.5116L80.6854 0.496254ZM80.6854 0.496254L80.6854 -39.4148" stroke="#937A5C" stroke-width="1.87643"/>
<rect x="120.716" y="0.496338" width="56.6118" height="56.6118" transform="rotate(-45 120.716 0.496338)" stroke="#937A5C" stroke-width="1.87643"/>
<path d="M160.747 0.496254L140.731 20.5115L160.747 40.5268L180.762 20.5116L160.747 0.496254ZM160.747 0.496254L160.747 -39.4148" stroke="#937A5C" stroke-width="1.87643"/>
<rect x="200.777" y="0.496338" width="56.6118" height="56.6118" transform="rotate(-45 200.777 0.496338)" stroke="#937A5C" stroke-width="1.87643"/>
<path d="M240.808 0.496254L220.793 20.5115L240.808 40.5268L260.823 20.5116L240.808 0.496254ZM240.808 0.496254L240.808 -39.4148" stroke="#937A5C" stroke-width="1.87643"/>
<rect x="280.838" y="0.496338" width="56.6118" height="56.6118" transform="rotate(-45 280.838 0.496338)" stroke="#937A5C" stroke-width="1.87643"/>
<path d="M300.854 20.5116L320.869 0.496302L340.884 20.5116L320.869 40.5269L300.854 20.5116Z" stroke="#937A5C" stroke-width="1.87643"/>
<rect x="-39.4062" y="0.496338" width="56.6118" height="56.6118" transform="rotate(-45 -39.4062 0.496338)" stroke="#937A5C" stroke-width="1.87643"/>
<path d="M-19.3911 20.5116L0.624181 0.496302L20.6395 20.5116L0.624184 40.5269L-19.3911 20.5116Z" stroke="#937A5C" stroke-width="1.87643"/>
<rect x="40.6548" y="160.619" width="56.6118" height="56.6118" transform="rotate(-45 40.6548 160.619)" stroke="#937A5C" stroke-width="1.87643"/>
<path d="M80.6854 160.619L60.6701 180.634L80.6854 200.649L100.701 180.634L80.6854 160.619ZM80.6854 160.619L80.6854 120.708" stroke="#937A5C" stroke-width="1.87643"/>
<rect x="120.716" y="160.619" width="56.6118" height="56.6118" transform="rotate(-45 120.716 160.619)" stroke="#937A5C" stroke-width="1.87643"/>
<path d="M160.747 160.619L140.731 180.634L160.747 200.649L180.762 180.634L160.747 160.619ZM160.747 160.619L160.747 120.708" stroke="#937A5C" stroke-width="1.87643"/>
<rect x="200.777" y="160.619" width="56.6118" height="56.6118" transform="rotate(-45 200.777 160.619)" stroke="#937A5C" stroke-width="1.87643"/>
<path d="M240.808 160.619L220.793 180.634L240.808 200.649L260.823 180.634L240.808 160.619ZM240.808 160.619L240.808 120.708" stroke="#937A5C" stroke-width="1.87643"/>
<rect x="280.838" y="160.619" width="56.6118" height="56.6118" transform="rotate(-45 280.838 160.619)" stroke="#937A5C" stroke-width="1.87643"/>
<path d="M300.854 180.634L320.869 160.619L340.884 180.634L320.869 200.649L300.854 180.634Z" stroke="#937A5C" stroke-width="1.87643"/>
<rect x="-39.4062" y="160.619" width="56.6118" height="56.6118" transform="rotate(-45 -39.4062 160.619)" stroke="#937A5C" stroke-width="1.87643"/>
<path d="M-19.3911 180.634L0.624181 160.619L20.6395 180.634L0.624184 200.649L-19.3911 180.634Z" stroke="#937A5C" stroke-width="1.87643"/>
<rect x="40.6548" y="240.68" width="56.6118" height="56.6118" transform="rotate(-45 40.6548 240.68)" stroke="#937A5C" stroke-width="1.87643"/>
<path d="M80.6854 240.68L60.6701 260.695L80.6854 280.71L100.701 260.695L80.6854 240.68ZM80.6854 240.68L80.6854 200.769" stroke="#937A5C" stroke-width="1.87643"/>
<rect x="120.716" y="240.68" width="56.6118" height="56.6118" transform="rotate(-45 120.716 240.68)" stroke="#937A5C" stroke-width="1.87643"/>
<path d="M160.747 240.68L140.731 260.695L160.747 280.71L180.762 260.695L160.747 240.68ZM160.747 240.68L160.747 200.769" stroke="#937A5C" stroke-width="1.87643"/>
<rect x="200.777" y="240.68" width="56.6118" height="56.6118" transform="rotate(-45 200.777 240.68)" stroke="#937A5C" stroke-width="1.87643"/>
<path d="M240.808 240.68L220.793 260.695L240.808 280.71L260.823 260.695L240.808 240.68ZM240.808 240.68L240.808 200.769" stroke="#937A5C" stroke-width="1.87643"/>
<rect x="280.838" y="240.68" width="56.6118" height="56.6118" transform="rotate(-45 280.838 240.68)" stroke="#937A5C" stroke-width="1.87643"/>
<path d="M300.854 260.695L320.869 240.68L340.884 260.695L320.869 280.71L300.854 260.695Z" stroke="#937A5C" stroke-width="1.87643"/>
<rect x="-39.4062" y="240.68" width="56.6118" height="56.6118" transform="rotate(-45 -39.4062 240.68)" stroke="#937A5C" stroke-width="1.87643"/>
<path d="M-19.3911 260.695L0.624181 240.68L20.6395 260.695L0.624184 280.71L-19.3911 260.695Z" stroke="#937A5C" stroke-width="1.87643"/>
<rect x="40.6548" y="320.741" width="56.6118" height="56.6118" transform="rotate(-45 40.6548 320.741)" stroke="#937A5C" stroke-width="1.87643"/>
<path d="M80.6854 320.741L60.6701 340.756L80.6854 360.772L100.701 340.756L80.6854 320.741ZM80.6854 320.741L80.6854 280.83" stroke="#937A5C" stroke-width="1.87643"/>
<rect x="120.716" y="320.741" width="56.6118" height="56.6118" transform="rotate(-45 120.716 320.741)" stroke="#937A5C" stroke-width="1.87643"/>
<path d="M160.747 320.741L140.731 340.756L160.747 360.772L180.762 340.756L160.747 320.741ZM160.747 320.741L160.747 280.83" stroke="#937A5C" stroke-width="1.87643"/>
<rect x="200.777" y="320.741" width="56.6118" height="56.6118" transform="rotate(-45 200.777 320.741)" stroke="#937A5C" stroke-width="1.87643"/>
<path d="M240.808 320.741L220.793 340.756L240.808 360.772L260.823 340.756L240.808 320.741ZM240.808 320.741L240.808 280.83" stroke="#937A5C" stroke-width="1.87643"/>
<rect x="280.838" y="320.741" width="56.6118" height="56.6118" transform="rotate(-45 280.838 320.741)" stroke="#937A5C" stroke-width="1.87643"/>
<path d="M300.854 340.756L320.869 320.741L340.884 340.756L320.869 360.772L300.854 340.756Z" stroke="#937A5C" stroke-width="1.87643"/>
<rect x="-39.4062" y="320.741" width="56.6118" height="56.6118" transform="rotate(-45 -39.4062 320.741)" stroke="#937A5C" stroke-width="1.87643"/>
<path d="M-19.3911 340.756L0.624181 320.741L20.6395 340.756L0.624184 360.772L-19.3911 340.756Z" stroke="#937A5C" stroke-width="1.87643"/>
<rect x="40.6548" y="400.802" width="56.6118" height="56.6118" transform="rotate(-45 40.6548 400.802)" stroke="#937A5C" stroke-width="1.87643"/>
<path d="M80.6854 400.802L60.6701 420.817L80.6854 440.833L100.701 420.817L80.6854 400.802ZM80.6854 400.802L80.6854 360.891" stroke="#937A5C" stroke-width="1.87643"/>
<rect x="120.716" y="400.802" width="56.6118" height="56.6118" transform="rotate(-45 120.716 400.802)" stroke="#937A5C" stroke-width="1.87643"/>
<path d="M160.747 400.802L140.731 420.817L160.747 440.833L180.762 420.817L160.747 400.802ZM160.747 400.802L160.747 360.891" stroke="#937A5C" stroke-width="1.87643"/>
<rect x="200.777" y="400.802" width="56.6118" height="56.6118" transform="rotate(-45 200.777 400.802)" stroke="#937A5C" stroke-width="1.87643"/>
<path d="M240.808 400.802L220.793 420.817L240.808 440.833L260.823 420.817L240.808 400.802ZM240.808 400.802L240.808 360.891" stroke="#937A5C" stroke-width="1.87643"/>
<rect x="280.838" y="400.802" width="56.6118" height="56.6118" transform="rotate(-45 280.838 400.802)" stroke="#937A5C" stroke-width="1.87643"/>
<path d="M300.854 420.818L320.869 400.802L340.884 420.818L320.869 440.833L300.854 420.818Z" stroke="#937A5C" stroke-width="1.87643"/>
<rect x="-39.4062" y="400.802" width="56.6118" height="56.6118" transform="rotate(-45 -39.4062 400.802)" stroke="#937A5C" stroke-width="1.87643"/>
<path d="M-19.3911 420.818L0.624181 400.802L20.6395 420.818L0.624184 440.833L-19.3911 420.818Z" stroke="#937A5C" stroke-width="1.87643"/>
<rect x="40.6548" y="480.863" width="56.6118" height="56.6118" transform="rotate(-45 40.6548 480.863)" stroke="#937A5C" stroke-width="1.87643"/>
<path d="M80.6854 480.863L60.6701 500.879L80.6854 520.894L100.701 500.879L80.6854 480.863ZM80.6854 480.863L80.6854 440.952" stroke="#937A5C" stroke-width="1.87643"/>
<rect x="120.716" y="480.863" width="56.6118" height="56.6118" transform="rotate(-45 120.716 480.863)" stroke="#937A5C" stroke-width="1.87643"/>
<path d="M160.747 480.863L140.731 500.879L160.747 520.894L180.762 500.879L160.747 480.863ZM160.747 480.863L160.747 440.952" stroke="#937A5C" stroke-width="1.87643"/>
<rect x="200.777" y="480.863" width="56.6118" height="56.6118" transform="rotate(-45 200.777 480.863)" stroke="#937A5C" stroke-width="1.87643"/>
<path d="M240.808 480.863L220.793 500.879L240.808 520.894L260.823 500.879L240.808 480.863ZM240.808 480.863L240.808 440.952" stroke="#937A5C" stroke-width="1.87643"/>
<rect x="280.838" y="480.863" width="56.6118" height="56.6118" transform="rotate(-45 280.838 480.863)" stroke="#937A5C" stroke-width="1.87643"/>
<path d="M300.854 500.879L320.869 480.863L340.884 500.879L320.869 520.894L300.854 500.879Z" stroke="#937A5C" stroke-width="1.87643"/>
<rect x="-39.4062" y="480.863" width="56.6118" height="56.6118" transform="rotate(-45 -39.4062 480.863)" stroke="#937A5C" stroke-width="1.87643"/>
<path d="M-19.3911 500.879L0.624181 480.863L20.6395 500.879L0.624184 520.894L-19.3911 500.879Z" stroke="#937A5C" stroke-width="1.87643"/>
<rect x="40.6548" y="560.925" width="56.6118" height="56.6118" transform="rotate(-45 40.6548 560.925)" stroke="#937A5C" stroke-width="1.87643"/>
<path d="M80.6854 560.924L60.6701 580.94L80.6854 600.955L100.701 580.94L80.6854 560.924ZM80.6854 560.924L80.6854 521.013" stroke="#937A5C" stroke-width="1.87643"/>
<rect x="120.716" y="560.925" width="56.6118" height="56.6118" transform="rotate(-45 120.716 560.925)" stroke="#937A5C" stroke-width="1.87643"/>
<path d="M160.747 560.924L140.731 580.94L160.747 600.955L180.762 580.94L160.747 560.924ZM160.747 560.924L160.747 521.013" stroke="#937A5C" stroke-width="1.87643"/>
<rect x="200.777" y="560.925" width="56.6118" height="56.6118" transform="rotate(-45 200.777 560.925)" stroke="#937A5C" stroke-width="1.87643"/>
<path d="M240.808 560.924L220.793 580.94L240.808 600.955L260.823 580.94L240.808 560.924ZM240.808 560.924L240.808 521.013" stroke="#937A5C" stroke-width="1.87643"/>
<rect x="280.838" y="560.925" width="56.6118" height="56.6118" transform="rotate(-45 280.838 560.925)" stroke="#937A5C" stroke-width="1.87643"/>
<path d="M300.854 580.94L320.869 560.925L340.884 580.94L320.869 600.955L300.854 580.94Z" stroke="#937A5C" stroke-width="1.87643"/>
<rect x="-39.4062" y="560.925" width="56.6118" height="56.6118" transform="rotate(-45 -39.4062 560.925)" stroke="#937A5C" stroke-width="1.87643"/>
<path d="M-19.3911 580.94L0.624181 560.925L20.6395 580.94L0.624184 600.955L-19.3911 580.94Z" stroke="#937A5C" stroke-width="1.87643"/>
<rect x="40.6548" y="640.986" width="56.6118" height="56.6118" transform="rotate(-45 40.6548 640.986)" stroke="#937A5C" stroke-width="1.87643"/>
<path d="M80.6854 640.986L60.6701 661.001L80.6854 681.016L100.701 661.001L80.6854 640.986ZM80.6854 640.986L80.6854 601.075" stroke="#937A5C" stroke-width="1.87643"/>
<rect x="120.716" y="640.986" width="56.6118" height="56.6118" transform="rotate(-45 120.716 640.986)" stroke="#937A5C" stroke-width="1.87643"/>
<path d="M160.747 640.986L140.731 661.001L160.747 681.016L180.762 661.001L160.747 640.986ZM160.747 640.986L160.747 601.075" stroke="#937A5C" stroke-width="1.87643"/>
<rect x="200.777" y="640.986" width="56.6118" height="56.6118" transform="rotate(-45 200.777 640.986)" stroke="#937A5C" stroke-width="1.87643"/>
<path d="M240.808 640.986L220.793 661.001L240.808 681.016L260.823 661.001L240.808 640.986ZM240.808 640.986L240.808 601.075" stroke="#937A5C" stroke-width="1.87643"/>
<rect x="280.838" y="640.986" width="56.6118" height="56.6118" transform="rotate(-45 280.838 640.986)" stroke="#937A5C" stroke-width="1.87643"/>
<rect x="-39.4062" y="640.986" width="56.6118" height="56.6118" transform="rotate(-45 -39.4062 640.986)" stroke="#937A5C" stroke-width="1.87643"/>
</g>
<defs>
<clipPath id="clip0_171:7473">
<rect width="320.245" height="600.459" fill="white" transform="translate(0.624268 0.496338)"/>
</clipPath>
</defs>
</svg>
