<svg width="321" height="601" viewBox="0 0 321 601" fill="none" xmlns="http://www.w3.org/2000/svg">
<g clip-path="url(#clip0_358_9736)">
<rect y="40.0305" width="56.6118" height="56.6118" transform="rotate(-45 0 40.0305)" stroke="#937A5C" stroke-width="1.87643"/>
<path d="M40.0306 40.0306L20.0153 60.0459L40.0306 80.0611L60.0459 60.0459L40.0306 40.0306ZM40.0306 40.0306L40.0306 0.119523" stroke="#937A5C" stroke-width="1.87643"/>
<rect x="80.0613" y="40.0305" width="56.6118" height="56.6118" transform="rotate(-45 80.0613 40.0305)" stroke="#937A5C" stroke-width="1.87643"/>
<path d="M120.092 40.0306L100.077 60.0459L120.092 80.0611L140.107 60.0459L120.092 40.0306ZM120.092 40.0306L120.092 0.119523" stroke="#937A5C" stroke-width="1.87643"/>
<rect x="160.122" y="40.0305" width="56.6118" height="56.6118" transform="rotate(-45 160.122 40.0305)" stroke="#937A5C" stroke-width="1.87643"/>
<path d="M200.153 40.0306L180.138 60.0459L200.153 80.0611L220.168 60.0459L200.153 40.0306ZM200.153 40.0306L200.153 0.119523" stroke="#937A5C" stroke-width="1.87643"/>
<rect x="240.184" y="40.0305" width="56.6118" height="56.6118" transform="rotate(-45 240.184 40.0305)" stroke="#937A5C" stroke-width="1.87643"/>
<path d="M280.214 40.0306L260.199 60.0459L280.214 80.0611L300.23 60.0459L280.214 40.0306ZM280.214 40.0306L280.214 0.119523" stroke="#937A5C" stroke-width="1.87643"/>
<rect y="120.092" width="56.6118" height="56.6118" transform="rotate(-45 0 120.092)" stroke="#937A5C" stroke-width="1.87643"/>
<path d="M40.0306 120.092L20.0153 140.107L40.0306 160.122L60.0459 140.107L40.0306 120.092ZM40.0306 120.092L40.0306 80.1808" stroke="#937A5C" stroke-width="1.87643"/>
<rect x="80.0613" y="120.092" width="56.6118" height="56.6118" transform="rotate(-45 80.0613 120.092)" stroke="#937A5C" stroke-width="1.87643"/>
<path d="M120.092 120.092L100.077 140.107L120.092 160.122L140.107 140.107L120.092 120.092ZM120.092 120.092L120.092 80.1808" stroke="#937A5C" stroke-width="1.87643"/>
<rect x="160.122" y="120.092" width="56.6118" height="56.6118" transform="rotate(-45 160.122 120.092)" stroke="#937A5C" stroke-width="1.87643"/>
<path d="M200.153 120.092L180.138 140.107L200.153 160.122L220.168 140.107L200.153 120.092ZM200.153 120.092L200.153 80.1808" stroke="#937A5C" stroke-width="1.87643"/>
<rect x="240.184" y="120.092" width="56.6118" height="56.6118" transform="rotate(-45 240.184 120.092)" stroke="#937A5C" stroke-width="1.87643"/>
<path d="M280.214 120.092L260.199 140.107L280.214 160.122L300.23 140.107L280.214 120.092ZM280.214 120.092L280.214 80.1808" stroke="#937A5C" stroke-width="1.87643"/>
<rect y="200.153" width="56.6118" height="56.6118" transform="rotate(-45 0 200.153)" stroke="#937A5C" stroke-width="1.87643"/>
<path d="M40.0306 200.153L20.0153 220.168L40.0306 240.184L60.0459 220.168L40.0306 200.153ZM40.0306 200.153L40.0306 160.242" stroke="#937A5C" stroke-width="1.87643"/>
<rect x="80.0613" y="200.153" width="56.6118" height="56.6118" transform="rotate(-45 80.0613 200.153)" stroke="#937A5C" stroke-width="1.87643"/>
<path d="M120.092 200.153L100.077 220.168L120.092 240.184L140.107 220.168L120.092 200.153ZM120.092 200.153L120.092 160.242" stroke="#937A5C" stroke-width="1.87643"/>
<rect x="160.122" y="200.153" width="56.6118" height="56.6118" transform="rotate(-45 160.122 200.153)" stroke="#937A5C" stroke-width="1.87643"/>
<path d="M200.153 200.153L180.138 220.168L200.153 240.184L220.168 220.168L200.153 200.153ZM200.153 200.153L200.153 160.242" stroke="#937A5C" stroke-width="1.87643"/>
<rect x="240.184" y="200.153" width="56.6118" height="56.6118" transform="rotate(-45 240.184 200.153)" stroke="#937A5C" stroke-width="1.87643"/>
<path d="M280.214 200.153L260.199 220.168L280.214 240.184L300.23 220.168L280.214 200.153ZM280.214 200.153L280.214 160.242" stroke="#937A5C" stroke-width="1.87643"/>
<rect y="280.214" width="56.6118" height="56.6118" transform="rotate(-45 0 280.214)" stroke="#937A5C" stroke-width="1.87643"/>
<path d="M40.0306 280.214L20.0153 300.229L40.0306 320.245L60.0459 300.229L40.0306 280.214ZM40.0306 280.214L40.0306 240.303" stroke="#937A5C" stroke-width="1.87643"/>
<rect x="80.0613" y="280.214" width="56.6118" height="56.6118" transform="rotate(-45 80.0613 280.214)" stroke="#937A5C" stroke-width="1.87643"/>
<path d="M120.092 280.214L100.077 300.229L120.092 320.245L140.107 300.229L120.092 280.214ZM120.092 280.214L120.092 240.303" stroke="#937A5C" stroke-width="1.87643"/>
<rect x="160.122" y="280.214" width="56.6118" height="56.6118" transform="rotate(-45 160.122 280.214)" stroke="#937A5C" stroke-width="1.87643"/>
<path d="M200.153 280.214L180.138 300.229L200.153 320.245L220.168 300.229L200.153 280.214ZM200.153 280.214L200.153 240.303" stroke="#937A5C" stroke-width="1.87643"/>
<rect x="240.184" y="280.214" width="56.6118" height="56.6118" transform="rotate(-45 240.184 280.214)" stroke="#937A5C" stroke-width="1.87643"/>
<path d="M280.214 280.214L260.199 300.229L280.214 320.245L300.23 300.229L280.214 280.214ZM280.214 280.214L280.214 240.303" stroke="#937A5C" stroke-width="1.87643"/>
<rect y="360.275" width="56.6118" height="56.6118" transform="rotate(-45 0 360.275)" stroke="#937A5C" stroke-width="1.87643"/>
<path d="M40.0306 360.275L20.0153 380.291L40.0306 400.306L60.0459 380.291L40.0306 360.275ZM40.0306 360.275L40.0306 320.364" stroke="#937A5C" stroke-width="1.87643"/>
<rect x="80.0613" y="360.275" width="56.6118" height="56.6118" transform="rotate(-45 80.0613 360.275)" stroke="#937A5C" stroke-width="1.87643"/>
<path d="M120.092 360.275L100.077 380.291L120.092 400.306L140.107 380.291L120.092 360.275ZM120.092 360.275L120.092 320.364" stroke="#937A5C" stroke-width="1.87643"/>
<rect x="160.122" y="360.275" width="56.6118" height="56.6118" transform="rotate(-45 160.122 360.275)" stroke="#937A5C" stroke-width="1.87643"/>
<path d="M200.153 360.275L180.138 380.291L200.153 400.306L220.168 380.291L200.153 360.275ZM200.153 360.275L200.153 320.364" stroke="#937A5C" stroke-width="1.87643"/>
<rect x="240.184" y="360.275" width="56.6118" height="56.6118" transform="rotate(-45 240.184 360.275)" stroke="#937A5C" stroke-width="1.87643"/>
<path d="M280.214 360.275L260.199 380.291L280.214 400.306L300.23 380.291L280.214 360.275ZM280.214 360.275L280.214 320.364" stroke="#937A5C" stroke-width="1.87643"/>
<rect y="440.336" width="56.6118" height="56.6118" transform="rotate(-45 0 440.336)" stroke="#937A5C" stroke-width="1.87643"/>
<path d="M40.0306 440.336L20.0153 460.352L40.0306 480.367L60.0459 460.352L40.0306 440.336ZM40.0306 440.336L40.0306 400.425" stroke="#937A5C" stroke-width="1.87643"/>
<rect x="80.0613" y="440.336" width="56.6118" height="56.6118" transform="rotate(-45 80.0613 440.336)" stroke="#937A5C" stroke-width="1.87643"/>
<path d="M120.092 440.336L100.077 460.352L120.092 480.367L140.107 460.352L120.092 440.336ZM120.092 440.336L120.092 400.425" stroke="#937A5C" stroke-width="1.87643"/>
<rect x="160.122" y="440.336" width="56.6118" height="56.6118" transform="rotate(-45 160.122 440.336)" stroke="#937A5C" stroke-width="1.87643"/>
<path d="M200.153 440.336L180.138 460.352L200.153 480.367L220.168 460.352L200.153 440.336ZM200.153 440.336L200.153 400.425" stroke="#937A5C" stroke-width="1.87643"/>
<rect x="240.184" y="440.336" width="56.6118" height="56.6118" transform="rotate(-45 240.184 440.336)" stroke="#937A5C" stroke-width="1.87643"/>
<path d="M280.214 440.336L260.199 460.352L280.214 480.367L300.23 460.352L280.214 440.336ZM280.214 440.336L280.214 400.425" stroke="#937A5C" stroke-width="1.87643"/>
<rect y="520.398" width="56.6118" height="56.6118" transform="rotate(-45 0 520.398)" stroke="#937A5C" stroke-width="1.87643"/>
<path d="M40.0306 520.398L20.0153 540.413L40.0306 560.428L60.0459 540.413L40.0306 520.398ZM40.0306 520.398L40.0306 480.487" stroke="#937A5C" stroke-width="1.87643"/>
<rect x="80.0613" y="520.398" width="56.6118" height="56.6118" transform="rotate(-45 80.0613 520.398)" stroke="#937A5C" stroke-width="1.87643"/>
<path d="M120.092 520.398L100.077 540.413L120.092 560.428L140.107 540.413L120.092 520.398ZM120.092 520.398L120.092 480.487" stroke="#937A5C" stroke-width="1.87643"/>
<rect x="160.122" y="520.398" width="56.6118" height="56.6118" transform="rotate(-45 160.122 520.398)" stroke="#937A5C" stroke-width="1.87643"/>
<path d="M200.153 520.398L180.138 540.413L200.153 560.428L220.168 540.413L200.153 520.398ZM200.153 520.398L200.153 480.487" stroke="#937A5C" stroke-width="1.87643"/>
<rect x="240.184" y="520.398" width="56.6118" height="56.6118" transform="rotate(-45 240.184 520.398)" stroke="#937A5C" stroke-width="1.87643"/>
<path d="M280.214 520.398L260.199 540.413L280.214 560.428L300.23 540.413L280.214 520.398ZM280.214 520.398L280.214 480.487" stroke="#937A5C" stroke-width="1.87643"/>
<rect y="600.459" width="56.6118" height="56.6118" transform="rotate(-45 0 600.459)" stroke="#937A5C" stroke-width="1.87643"/>
<path d="M40.0306 600.459L20.0153 620.474L40.0306 640.49L60.0459 620.474L40.0306 600.459ZM40.0306 600.459L40.0306 560.548" stroke="#937A5C" stroke-width="1.87643"/>
<rect x="80.0613" y="600.459" width="56.6118" height="56.6118" transform="rotate(-45 80.0613 600.459)" stroke="#937A5C" stroke-width="1.87643"/>
<path d="M120.092 600.459L100.077 620.474L120.092 640.49L140.107 620.474L120.092 600.459ZM120.092 600.459L120.092 560.548" stroke="#937A5C" stroke-width="1.87643"/>
<rect x="160.122" y="600.459" width="56.6118" height="56.6118" transform="rotate(-45 160.122 600.459)" stroke="#937A5C" stroke-width="1.87643"/>
<path d="M200.153 600.459L180.138 620.474L200.153 640.49L220.168 620.474L200.153 600.459ZM200.153 600.459L200.153 560.548" stroke="#937A5C" stroke-width="1.87643"/>
<rect x="240.184" y="600.459" width="56.6118" height="56.6118" transform="rotate(-45 240.184 600.459)" stroke="#937A5C" stroke-width="1.87643"/>
<path d="M280.214 600.459L260.199 620.474L280.214 640.49L300.23 620.474L280.214 600.459ZM280.214 600.459L280.214 560.548" stroke="#937A5C" stroke-width="1.87643"/>
<rect x="40.0305" y="80.0613" width="56.6118" height="56.6118" transform="rotate(-45 40.0305 80.0613)" stroke="#937A5C" stroke-width="1.87643"/>
<path d="M80.0611 80.0613L60.0459 100.077L80.0611 120.092L100.076 100.077L80.0611 80.0613ZM80.0611 80.0613L80.0611 40.1503" stroke="#937A5C" stroke-width="1.87643"/>
<rect x="120.092" y="80.0613" width="56.6118" height="56.6118" transform="rotate(-45 120.092 80.0613)" stroke="#937A5C" stroke-width="1.87643"/>
<path d="M160.122 80.0613L140.107 100.077L160.122 120.092L180.138 100.077L160.122 80.0613ZM160.122 80.0613L160.122 40.1503" stroke="#937A5C" stroke-width="1.87643"/>
<rect x="200.153" y="80.0613" width="56.6118" height="56.6118" transform="rotate(-45 200.153 80.0613)" stroke="#937A5C" stroke-width="1.87643"/>
<path d="M240.184 80.0613L220.168 100.077L240.184 120.092L260.199 100.077L240.184 80.0613ZM240.184 80.0613L240.184 40.1503" stroke="#937A5C" stroke-width="1.87643"/>
<rect x="280.214" y="80.0613" width="56.6118" height="56.6118" transform="rotate(-45 280.214 80.0613)" stroke="#937A5C" stroke-width="1.87643"/>
<path d="M300.229 100.076L320.245 80.0611L340.26 100.076L320.245 120.092L300.229 100.076Z" stroke="#937A5C" stroke-width="1.87643"/>
<rect x="-40.0305" y="80.0613" width="56.6118" height="56.6118" transform="rotate(-45 -40.0305 80.0613)" stroke="#937A5C" stroke-width="1.87643"/>
<path d="M-20.0154 100.076L-8.65158e-05 80.0611L20.0152 100.076L-8.31415e-05 120.092L-20.0154 100.076Z" stroke="#937A5C" stroke-width="1.87643"/>
<rect x="40.0305" width="56.6118" height="56.6118" transform="rotate(-45 40.0305 0)" stroke="#937A5C" stroke-width="1.87643"/>
<path d="M80.0611 3.78493e-05L60.0459 20.0153L80.0611 40.0306L100.076 20.0153L80.0611 3.78493e-05ZM80.0611 3.78493e-05L80.0611 -39.911" stroke="#937A5C" stroke-width="1.87643"/>
<rect x="120.092" width="56.6118" height="56.6118" transform="rotate(-45 120.092 0)" stroke="#937A5C" stroke-width="1.87643"/>
<path d="M160.122 3.78493e-05L140.107 20.0153L160.122 40.0306L180.138 20.0153L160.122 3.78493e-05ZM160.122 3.78493e-05L160.122 -39.911" stroke="#937A5C" stroke-width="1.87643"/>
<rect x="200.153" width="56.6118" height="56.6118" transform="rotate(-45 200.153 0)" stroke="#937A5C" stroke-width="1.87643"/>
<path d="M240.184 3.78493e-05L220.168 20.0153L240.184 40.0306L260.199 20.0153L240.184 3.78493e-05ZM240.184 3.78493e-05L240.184 -39.911" stroke="#937A5C" stroke-width="1.87643"/>
<rect x="280.214" width="56.6118" height="56.6118" transform="rotate(-45 280.214 0)" stroke="#937A5C" stroke-width="1.87643"/>
<path d="M300.229 20.0154L320.245 8.65158e-05L340.26 20.0154L320.245 40.0307L300.229 20.0154Z" stroke="#937A5C" stroke-width="1.87643"/>
<rect x="-40.0305" width="56.6118" height="56.6118" transform="rotate(-45 -40.0305 0)" stroke="#937A5C" stroke-width="1.87643"/>
<path d="M-20.0154 20.0154L-8.65158e-05 8.65158e-05L20.0152 20.0154L-8.31415e-05 40.0307L-20.0154 20.0154Z" stroke="#937A5C" stroke-width="1.87643"/>
<rect x="40.0305" y="160.122" width="56.6118" height="56.6118" transform="rotate(-45 40.0305 160.122)" stroke="#937A5C" stroke-width="1.87643"/>
<path d="M80.0611 160.122L60.0459 180.138L80.0611 200.153L100.076 180.138L80.0611 160.122ZM80.0611 160.122L80.0611 120.211" stroke="#937A5C" stroke-width="1.87643"/>
<rect x="120.092" y="160.122" width="56.6118" height="56.6118" transform="rotate(-45 120.092 160.122)" stroke="#937A5C" stroke-width="1.87643"/>
<path d="M160.122 160.122L140.107 180.138L160.122 200.153L180.138 180.138L160.122 160.122ZM160.122 160.122L160.122 120.211" stroke="#937A5C" stroke-width="1.87643"/>
<rect x="200.153" y="160.122" width="56.6118" height="56.6118" transform="rotate(-45 200.153 160.122)" stroke="#937A5C" stroke-width="1.87643"/>
<path d="M240.184 160.122L220.168 180.138L240.184 200.153L260.199 180.138L240.184 160.122ZM240.184 160.122L240.184 120.211" stroke="#937A5C" stroke-width="1.87643"/>
<rect x="280.214" y="160.122" width="56.6118" height="56.6118" transform="rotate(-45 280.214 160.122)" stroke="#937A5C" stroke-width="1.87643"/>
<path d="M300.229 180.138L320.245 160.122L340.26 180.138L320.245 200.153L300.229 180.138Z" stroke="#937A5C" stroke-width="1.87643"/>
<rect x="-40.0305" y="160.122" width="56.6118" height="56.6118" transform="rotate(-45 -40.0305 160.122)" stroke="#937A5C" stroke-width="1.87643"/>
<path d="M-20.0154 180.138L-8.65158e-05 160.122L20.0152 180.138L-8.31415e-05 200.153L-20.0154 180.138Z" stroke="#937A5C" stroke-width="1.87643"/>
<rect x="40.0305" y="240.184" width="56.6118" height="56.6118" transform="rotate(-45 40.0305 240.184)" stroke="#937A5C" stroke-width="1.87643"/>
<path d="M80.0611 240.184L60.0459 260.199L80.0611 280.214L100.076 260.199L80.0611 240.184ZM80.0611 240.184L80.0611 200.273" stroke="#937A5C" stroke-width="1.87643"/>
<rect x="120.092" y="240.184" width="56.6118" height="56.6118" transform="rotate(-45 120.092 240.184)" stroke="#937A5C" stroke-width="1.87643"/>
<path d="M160.122 240.184L140.107 260.199L160.122 280.214L180.138 260.199L160.122 240.184ZM160.122 240.184L160.122 200.273" stroke="#937A5C" stroke-width="1.87643"/>
<rect x="200.153" y="240.184" width="56.6118" height="56.6118" transform="rotate(-45 200.153 240.184)" stroke="#937A5C" stroke-width="1.87643"/>
<path d="M240.184 240.184L220.168 260.199L240.184 280.214L260.199 260.199L240.184 240.184ZM240.184 240.184L240.184 200.273" stroke="#937A5C" stroke-width="1.87643"/>
<rect x="280.214" y="240.184" width="56.6118" height="56.6118" transform="rotate(-45 280.214 240.184)" stroke="#937A5C" stroke-width="1.87643"/>
<path d="M300.229 260.199L320.245 240.183L340.26 260.199L320.245 280.214L300.229 260.199Z" stroke="#937A5C" stroke-width="1.87643"/>
<rect x="-40.0305" y="240.184" width="56.6118" height="56.6118" transform="rotate(-45 -40.0305 240.184)" stroke="#937A5C" stroke-width="1.87643"/>
<path d="M-20.0154 260.199L-8.65158e-05 240.183L20.0152 260.199L-8.31415e-05 280.214L-20.0154 260.199Z" stroke="#937A5C" stroke-width="1.87643"/>
<rect x="40.0305" y="320.245" width="56.6118" height="56.6118" transform="rotate(-45 40.0305 320.245)" stroke="#937A5C" stroke-width="1.87643"/>
<path d="M80.0611 320.245L60.0459 340.26L80.0611 360.276L100.076 340.26L80.0611 320.245ZM80.0611 320.245L80.0611 280.334" stroke="#937A5C" stroke-width="1.87643"/>
<rect x="120.092" y="320.245" width="56.6118" height="56.6118" transform="rotate(-45 120.092 320.245)" stroke="#937A5C" stroke-width="1.87643"/>
<path d="M160.122 320.245L140.107 340.26L160.122 360.276L180.138 340.26L160.122 320.245ZM160.122 320.245L160.122 280.334" stroke="#937A5C" stroke-width="1.87643"/>
<rect x="200.153" y="320.245" width="56.6118" height="56.6118" transform="rotate(-45 200.153 320.245)" stroke="#937A5C" stroke-width="1.87643"/>
<path d="M240.184 320.245L220.168 340.26L240.184 360.276L260.199 340.26L240.184 320.245ZM240.184 320.245L240.184 280.334" stroke="#937A5C" stroke-width="1.87643"/>
<rect x="280.214" y="320.245" width="56.6118" height="56.6118" transform="rotate(-45 280.214 320.245)" stroke="#937A5C" stroke-width="1.87643"/>
<path d="M300.229 340.26L320.245 320.245L340.26 340.26L320.245 360.275L300.229 340.26Z" stroke="#937A5C" stroke-width="1.87643"/>
<rect x="-40.0305" y="320.245" width="56.6118" height="56.6118" transform="rotate(-45 -40.0305 320.245)" stroke="#937A5C" stroke-width="1.87643"/>
<path d="M-20.0154 340.26L-8.65158e-05 320.245L20.0152 340.26L-8.31415e-05 360.275L-20.0154 340.26Z" stroke="#937A5C" stroke-width="1.87643"/>
<rect x="40.0305" y="400.306" width="56.6118" height="56.6118" transform="rotate(-45 40.0305 400.306)" stroke="#937A5C" stroke-width="1.87643"/>
<path d="M80.0611 400.306L60.0459 420.321L80.0611 440.337L100.076 420.321L80.0611 400.306ZM80.0611 400.306L80.0611 360.395" stroke="#937A5C" stroke-width="1.87643"/>
<rect x="120.092" y="400.306" width="56.6118" height="56.6118" transform="rotate(-45 120.092 400.306)" stroke="#937A5C" stroke-width="1.87643"/>
<path d="M160.122 400.306L140.107 420.321L160.122 440.337L180.138 420.321L160.122 400.306ZM160.122 400.306L160.122 360.395" stroke="#937A5C" stroke-width="1.87643"/>
<rect x="200.153" y="400.306" width="56.6118" height="56.6118" transform="rotate(-45 200.153 400.306)" stroke="#937A5C" stroke-width="1.87643"/>
<path d="M240.184 400.306L220.168 420.321L240.184 440.337L260.199 420.321L240.184 400.306ZM240.184 400.306L240.184 360.395" stroke="#937A5C" stroke-width="1.87643"/>
<rect x="280.214" y="400.306" width="56.6118" height="56.6118" transform="rotate(-45 280.214 400.306)" stroke="#937A5C" stroke-width="1.87643"/>
<path d="M300.229 420.321L320.245 400.306L340.26 420.321L320.245 440.337L300.229 420.321Z" stroke="#937A5C" stroke-width="1.87643"/>
<rect x="-40.0305" y="400.306" width="56.6118" height="56.6118" transform="rotate(-45 -40.0305 400.306)" stroke="#937A5C" stroke-width="1.87643"/>
<path d="M-20.0154 420.321L-8.65158e-05 400.306L20.0152 420.321L-8.31415e-05 440.337L-20.0154 420.321Z" stroke="#937A5C" stroke-width="1.87643"/>
<rect x="40.0305" y="480.367" width="56.6118" height="56.6118" transform="rotate(-45 40.0305 480.367)" stroke="#937A5C" stroke-width="1.87643"/>
<path d="M80.0611 480.367L60.0459 500.383L80.0611 520.398L100.076 500.383L80.0611 480.367ZM80.0611 480.367L80.0611 440.456" stroke="#937A5C" stroke-width="1.87643"/>
<rect x="120.092" y="480.367" width="56.6118" height="56.6118" transform="rotate(-45 120.092 480.367)" stroke="#937A5C" stroke-width="1.87643"/>
<path d="M160.122 480.367L140.107 500.383L160.122 520.398L180.138 500.383L160.122 480.367ZM160.122 480.367L160.122 440.456" stroke="#937A5C" stroke-width="1.87643"/>
<rect x="200.153" y="480.367" width="56.6118" height="56.6118" transform="rotate(-45 200.153 480.367)" stroke="#937A5C" stroke-width="1.87643"/>
<path d="M240.184 480.367L220.168 500.383L240.184 520.398L260.199 500.383L240.184 480.367ZM240.184 480.367L240.184 440.456" stroke="#937A5C" stroke-width="1.87643"/>
<rect x="280.214" y="480.367" width="56.6118" height="56.6118" transform="rotate(-45 280.214 480.367)" stroke="#937A5C" stroke-width="1.87643"/>
<path d="M300.229 500.382L320.245 480.367L340.26 500.382L320.245 520.398L300.229 500.382Z" stroke="#937A5C" stroke-width="1.87643"/>
<rect x="-40.0305" y="480.367" width="56.6118" height="56.6118" transform="rotate(-45 -40.0305 480.367)" stroke="#937A5C" stroke-width="1.87643"/>
<path d="M-20.0154 500.382L-8.65158e-05 480.367L20.0152 500.382L-8.31415e-05 520.398L-20.0154 500.382Z" stroke="#937A5C" stroke-width="1.87643"/>
<rect x="40.0305" y="560.428" width="56.6118" height="56.6118" transform="rotate(-45 40.0305 560.428)" stroke="#937A5C" stroke-width="1.87643"/>
<path d="M80.0611 560.428L60.0459 580.444L80.0611 600.459L100.076 580.444L80.0611 560.428ZM80.0611 560.428L80.0611 520.517" stroke="#937A5C" stroke-width="1.87643"/>
<rect x="120.092" y="560.428" width="56.6118" height="56.6118" transform="rotate(-45 120.092 560.428)" stroke="#937A5C" stroke-width="1.87643"/>
<path d="M160.122 560.428L140.107 580.444L160.122 600.459L180.138 580.444L160.122 560.428ZM160.122 560.428L160.122 520.517" stroke="#937A5C" stroke-width="1.87643"/>
<rect x="200.153" y="560.428" width="56.6118" height="56.6118" transform="rotate(-45 200.153 560.428)" stroke="#937A5C" stroke-width="1.87643"/>
<path d="M240.184 560.428L220.168 580.444L240.184 600.459L260.199 580.444L240.184 560.428ZM240.184 560.428L240.184 520.517" stroke="#937A5C" stroke-width="1.87643"/>
<rect x="280.214" y="560.428" width="56.6118" height="56.6118" transform="rotate(-45 280.214 560.428)" stroke="#937A5C" stroke-width="1.87643"/>
<path d="M300.229 580.444L320.245 560.428L340.26 580.444L320.245 600.459L300.229 580.444Z" stroke="#937A5C" stroke-width="1.87643"/>
<rect x="-40.0305" y="560.428" width="56.6118" height="56.6118" transform="rotate(-45 -40.0305 560.428)" stroke="#937A5C" stroke-width="1.87643"/>
<path d="M-20.0154 580.444L-8.65158e-05 560.428L20.0152 580.444L-8.31415e-05 600.459L-20.0154 580.444Z" stroke="#937A5C" stroke-width="1.87643"/>
<rect x="40.0305" y="640.49" width="56.6118" height="56.6118" transform="rotate(-45 40.0305 640.49)" stroke="#937A5C" stroke-width="1.87643"/>
<path d="M80.0611 640.49L60.0459 660.505L80.0611 680.52L100.076 660.505L80.0611 640.49ZM80.0611 640.49L80.0611 600.579" stroke="#937A5C" stroke-width="1.87643"/>
<rect x="120.092" y="640.49" width="56.6118" height="56.6118" transform="rotate(-45 120.092 640.49)" stroke="#937A5C" stroke-width="1.87643"/>
<path d="M160.122 640.49L140.107 660.505L160.122 680.52L180.138 660.505L160.122 640.49ZM160.122 640.49L160.122 600.579" stroke="#937A5C" stroke-width="1.87643"/>
<rect x="200.153" y="640.49" width="56.6118" height="56.6118" transform="rotate(-45 200.153 640.49)" stroke="#937A5C" stroke-width="1.87643"/>
<path d="M240.184 640.49L220.168 660.505L240.184 680.52L260.199 660.505L240.184 640.49ZM240.184 640.49L240.184 600.579" stroke="#937A5C" stroke-width="1.87643"/>
<rect x="280.214" y="640.49" width="56.6118" height="56.6118" transform="rotate(-45 280.214 640.49)" stroke="#937A5C" stroke-width="1.87643"/>
<rect x="-40.0305" y="640.49" width="56.6118" height="56.6118" transform="rotate(-45 -40.0305 640.49)" stroke="#937A5C" stroke-width="1.87643"/>
</g>
<defs>
<clipPath id="clip0_358_9736">
<rect width="320.245" height="600.459" fill="white"/>
</clipPath>
</defs>
</svg>
