<svg width="167" height="312" viewBox="0 0 167 312" fill="none" xmlns="http://www.w3.org/2000/svg">
<g clip-path="url(#clip0_358_9486)">
<rect y="20.8" width="29.4156" height="29.4156" transform="rotate(-45 0 20.8)" stroke="#937A5C" stroke-width="0.975"/>
<path d="M20.7999 20.8L10.3999 31.2L20.7999 41.6L31.1999 31.2L20.7999 20.8ZM20.7999 20.8L20.7999 0.0621164" stroke="#937A5C" stroke-width="0.975"/>
<rect x="41.6001" y="20.8" width="29.4156" height="29.4156" transform="rotate(-45 41.6001 20.8)" stroke="#937A5C" stroke-width="0.975"/>
<path d="M62.4 20.8L52 31.2L62.4 41.6L72.8 31.2L62.4 20.8ZM62.4 20.8L62.4 0.0621164" stroke="#937A5C" stroke-width="0.975"/>
<rect x="83.2" y="20.8" width="29.4156" height="29.4156" transform="rotate(-45 83.2 20.8)" stroke="#937A5C" stroke-width="0.975"/>
<path d="M104 20.8L93.6001 31.2L104 41.6L114.4 31.2L104 20.8ZM104 20.8L104 0.0621164" stroke="#937A5C" stroke-width="0.975"/>
<rect x="124.8" y="20.8" width="29.4156" height="29.4156" transform="rotate(-45 124.8 20.8)" stroke="#937A5C" stroke-width="0.975"/>
<path d="M145.6 20.8L135.2 31.2L145.6 41.6L156 31.2L145.6 20.8ZM145.6 20.8L145.6 0.0621164" stroke="#937A5C" stroke-width="0.975"/>
<rect y="62.3999" width="29.4156" height="29.4156" transform="rotate(-45 0 62.3999)" stroke="#937A5C" stroke-width="0.975"/>
<path d="M20.7999 62.4001L10.3999 72.8001L20.7999 83.2001L31.1999 72.8001L20.7999 62.4001ZM20.7999 62.4001L20.7999 41.6622" stroke="#937A5C" stroke-width="0.975"/>
<rect x="41.6001" y="62.3999" width="29.4156" height="29.4156" transform="rotate(-45 41.6001 62.3999)" stroke="#937A5C" stroke-width="0.975"/>
<path d="M62.4 62.4001L52 72.8001L62.4 83.2001L72.8 72.8001L62.4 62.4001ZM62.4 62.4001L62.4 41.6622" stroke="#937A5C" stroke-width="0.975"/>
<rect x="83.2" y="62.3999" width="29.4156" height="29.4156" transform="rotate(-45 83.2 62.3999)" stroke="#937A5C" stroke-width="0.975"/>
<path d="M104 62.4001L93.6001 72.8001L104 83.2001L114.4 72.8001L104 62.4001ZM104 62.4001L104 41.6622" stroke="#937A5C" stroke-width="0.975"/>
<rect x="124.8" y="62.3999" width="29.4156" height="29.4156" transform="rotate(-45 124.8 62.3999)" stroke="#937A5C" stroke-width="0.975"/>
<path d="M145.6 62.4001L135.2 72.8001L145.6 83.2001L156 72.8001L145.6 62.4001ZM145.6 62.4001L145.6 41.6622" stroke="#937A5C" stroke-width="0.975"/>
<rect y="104" width="29.4156" height="29.4156" transform="rotate(-45 0 104)" stroke="#937A5C" stroke-width="0.975"/>
<path d="M20.7999 104L10.3999 114.4L20.7999 124.8L31.1999 114.4L20.7999 104ZM20.7999 104L20.7999 83.2621" stroke="#937A5C" stroke-width="0.975"/>
<rect x="41.6001" y="104" width="29.4156" height="29.4156" transform="rotate(-45 41.6001 104)" stroke="#937A5C" stroke-width="0.975"/>
<path d="M62.4 104L52 114.4L62.4 124.8L72.8 114.4L62.4 104ZM62.4 104L62.4 83.2621" stroke="#937A5C" stroke-width="0.975"/>
<rect x="83.2" y="104" width="29.4156" height="29.4156" transform="rotate(-45 83.2 104)" stroke="#937A5C" stroke-width="0.975"/>
<path d="M104 104L93.6001 114.4L104 124.8L114.4 114.4L104 104ZM104 104L104 83.2621" stroke="#937A5C" stroke-width="0.975"/>
<rect x="124.8" y="104" width="29.4156" height="29.4156" transform="rotate(-45 124.8 104)" stroke="#937A5C" stroke-width="0.975"/>
<path d="M145.6 104L135.2 114.4L145.6 124.8L156 114.4L145.6 104ZM145.6 104L145.6 83.2621" stroke="#937A5C" stroke-width="0.975"/>
<rect y="145.6" width="29.4156" height="29.4156" transform="rotate(-45 0 145.6)" stroke="#937A5C" stroke-width="0.975"/>
<path d="M20.7999 145.6L10.3999 156L20.7999 166.4L31.1999 156L20.7999 145.6ZM20.7999 145.6L20.7999 124.862" stroke="#937A5C" stroke-width="0.975"/>
<rect x="41.6001" y="145.6" width="29.4156" height="29.4156" transform="rotate(-45 41.6001 145.6)" stroke="#937A5C" stroke-width="0.975"/>
<path d="M62.4 145.6L52 156L62.4 166.4L72.8 156L62.4 145.6ZM62.4 145.6L62.4 124.862" stroke="#937A5C" stroke-width="0.975"/>
<rect x="83.2" y="145.6" width="29.4156" height="29.4156" transform="rotate(-45 83.2 145.6)" stroke="#937A5C" stroke-width="0.975"/>
<path d="M104 145.6L93.6001 156L104 166.4L114.4 156L104 145.6ZM104 145.6L104 124.862" stroke="#937A5C" stroke-width="0.975"/>
<rect x="124.8" y="145.6" width="29.4156" height="29.4156" transform="rotate(-45 124.8 145.6)" stroke="#937A5C" stroke-width="0.975"/>
<path d="M145.6 145.6L135.2 156L145.6 166.4L156 156L145.6 145.6ZM145.6 145.6L145.6 124.862" stroke="#937A5C" stroke-width="0.975"/>
<rect y="187.2" width="29.4156" height="29.4156" transform="rotate(-45 0 187.2)" stroke="#937A5C" stroke-width="0.975"/>
<path d="M20.7999 187.2L10.3999 197.6L20.7999 208L31.1999 197.6L20.7999 187.2ZM20.7999 187.2L20.7999 166.462" stroke="#937A5C" stroke-width="0.975"/>
<rect x="41.6001" y="187.2" width="29.4156" height="29.4156" transform="rotate(-45 41.6001 187.2)" stroke="#937A5C" stroke-width="0.975"/>
<path d="M62.4 187.2L52 197.6L62.4 208L72.8 197.6L62.4 187.2ZM62.4 187.2L62.4 166.462" stroke="#937A5C" stroke-width="0.975"/>
<rect x="83.2" y="187.2" width="29.4156" height="29.4156" transform="rotate(-45 83.2 187.2)" stroke="#937A5C" stroke-width="0.975"/>
<path d="M104 187.2L93.6001 197.6L104 208L114.4 197.6L104 187.2ZM104 187.2L104 166.462" stroke="#937A5C" stroke-width="0.975"/>
<rect x="124.8" y="187.2" width="29.4156" height="29.4156" transform="rotate(-45 124.8 187.2)" stroke="#937A5C" stroke-width="0.975"/>
<path d="M145.6 187.2L135.2 197.6L145.6 208L156 197.6L145.6 187.2ZM145.6 187.2L145.6 166.462" stroke="#937A5C" stroke-width="0.975"/>
<rect y="228.8" width="29.4156" height="29.4156" transform="rotate(-45 0 228.8)" stroke="#937A5C" stroke-width="0.975"/>
<path d="M20.7999 228.8L10.3999 239.2L20.7999 249.6L31.1999 239.2L20.7999 228.8ZM20.7999 228.8L20.7999 208.062" stroke="#937A5C" stroke-width="0.975"/>
<rect x="41.6001" y="228.8" width="29.4156" height="29.4156" transform="rotate(-45 41.6001 228.8)" stroke="#937A5C" stroke-width="0.975"/>
<path d="M62.4 228.8L52 239.2L62.4 249.6L72.8 239.2L62.4 228.8ZM62.4 228.8L62.4 208.062" stroke="#937A5C" stroke-width="0.975"/>
<rect x="83.2" y="228.8" width="29.4156" height="29.4156" transform="rotate(-45 83.2 228.8)" stroke="#937A5C" stroke-width="0.975"/>
<path d="M104 228.8L93.6001 239.2L104 249.6L114.4 239.2L104 228.8ZM104 228.8L104 208.062" stroke="#937A5C" stroke-width="0.975"/>
<rect x="124.8" y="228.8" width="29.4156" height="29.4156" transform="rotate(-45 124.8 228.8)" stroke="#937A5C" stroke-width="0.975"/>
<path d="M145.6 228.8L135.2 239.2L145.6 249.6L156 239.2L145.6 228.8ZM145.6 228.8L145.6 208.062" stroke="#937A5C" stroke-width="0.975"/>
<rect y="270.4" width="29.4156" height="29.4156" transform="rotate(-45 0 270.4)" stroke="#937A5C" stroke-width="0.975"/>
<path d="M20.7999 270.4L10.3999 280.8L20.7999 291.2L31.1999 280.8L20.7999 270.4ZM20.7999 270.4L20.7999 249.662" stroke="#937A5C" stroke-width="0.975"/>
<rect x="41.6001" y="270.4" width="29.4156" height="29.4156" transform="rotate(-45 41.6001 270.4)" stroke="#937A5C" stroke-width="0.975"/>
<path d="M62.4 270.4L52 280.8L62.4 291.2L72.8 280.8L62.4 270.4ZM62.4 270.4L62.4 249.662" stroke="#937A5C" stroke-width="0.975"/>
<rect x="83.2" y="270.4" width="29.4156" height="29.4156" transform="rotate(-45 83.2 270.4)" stroke="#937A5C" stroke-width="0.975"/>
<path d="M104 270.4L93.6001 280.8L104 291.2L114.4 280.8L104 270.4ZM104 270.4L104 249.662" stroke="#937A5C" stroke-width="0.975"/>
<rect x="124.8" y="270.4" width="29.4156" height="29.4156" transform="rotate(-45 124.8 270.4)" stroke="#937A5C" stroke-width="0.975"/>
<path d="M145.6 270.4L135.2 280.8L145.6 291.2L156 280.8L145.6 270.4ZM145.6 270.4L145.6 249.662" stroke="#937A5C" stroke-width="0.975"/>
<rect y="312" width="29.4156" height="29.4156" transform="rotate(-45 0 312)" stroke="#937A5C" stroke-width="0.975"/>
<path d="M20.7999 312L10.3999 322.4L20.7999 332.8L31.1999 322.4L20.7999 312ZM20.7999 312L20.7999 291.262" stroke="#937A5C" stroke-width="0.975"/>
<rect x="41.6001" y="312" width="29.4156" height="29.4156" transform="rotate(-45 41.6001 312)" stroke="#937A5C" stroke-width="0.975"/>
<path d="M62.4 312L52 322.4L62.4 332.8L72.8 322.4L62.4 312ZM62.4 312L62.4 291.262" stroke="#937A5C" stroke-width="0.975"/>
<rect x="83.2" y="312" width="29.4156" height="29.4156" transform="rotate(-45 83.2 312)" stroke="#937A5C" stroke-width="0.975"/>
<path d="M104 312L93.6001 322.4L104 332.8L114.4 322.4L104 312ZM104 312L104 291.262" stroke="#937A5C" stroke-width="0.975"/>
<rect x="124.8" y="312" width="29.4156" height="29.4156" transform="rotate(-45 124.8 312)" stroke="#937A5C" stroke-width="0.975"/>
<path d="M145.6 312L135.2 322.4L145.6 332.8L156 322.4L145.6 312ZM145.6 312L145.6 291.262" stroke="#937A5C" stroke-width="0.975"/>
<rect x="20.8" y="41.6001" width="29.4156" height="29.4156" transform="rotate(-45 20.8 41.6001)" stroke="#937A5C" stroke-width="0.975"/>
<path d="M41.6 41.6L31.2 52L41.6 62.4L52 52L41.6 41.6ZM41.6 41.6L41.6 20.8622" stroke="#937A5C" stroke-width="0.975"/>
<rect x="62.3999" y="41.6001" width="29.4156" height="29.4156" transform="rotate(-45 62.3999 41.6001)" stroke="#937A5C" stroke-width="0.975"/>
<path d="M83.2001 41.6L72.8001 52L83.2001 62.4L93.6001 52L83.2001 41.6ZM83.2001 41.6L83.2001 20.8622" stroke="#937A5C" stroke-width="0.975"/>
<rect x="104" y="41.6001" width="29.4156" height="29.4156" transform="rotate(-45 104 41.6001)" stroke="#937A5C" stroke-width="0.975"/>
<path d="M124.8 41.6L114.4 52L124.8 62.4L135.2 52L124.8 41.6ZM124.8 41.6L124.8 20.8622" stroke="#937A5C" stroke-width="0.975"/>
<rect x="145.6" y="41.6001" width="29.4156" height="29.4156" transform="rotate(-45 145.6 41.6001)" stroke="#937A5C" stroke-width="0.975"/>
<path d="M156 52L166.4 41.6L176.8 52L166.4 62.4L156 52Z" stroke="#937A5C" stroke-width="0.975"/>
<rect x="-20.8" y="41.6001" width="29.4156" height="29.4156" transform="rotate(-45 -20.8 41.6001)" stroke="#937A5C" stroke-width="0.975"/>
<path d="M-10.3999 52L9.78725e-05 41.6L10.4001 52L9.96258e-05 62.4L-10.3999 52Z" stroke="#937A5C" stroke-width="0.975"/>
<rect x="20.8" width="29.4156" height="29.4156" transform="rotate(-45 20.8 0)" stroke="#937A5C" stroke-width="0.975"/>
<path d="M41.6 -5.35665e-05L31.2 10.3999L41.6 20.7999L52 10.3999L41.6 -5.35665e-05ZM41.6 -5.35665e-05L41.6 -20.7379" stroke="#937A5C" stroke-width="0.975"/>
<rect x="62.3999" width="29.4156" height="29.4156" transform="rotate(-45 62.3999 0)" stroke="#937A5C" stroke-width="0.975"/>
<path d="M83.2001 -5.35665e-05L72.8001 10.3999L83.2001 20.7999L93.6001 10.3999L83.2001 -5.35665e-05ZM83.2001 -5.35665e-05L83.2001 -20.7379" stroke="#937A5C" stroke-width="0.975"/>
<rect x="104" width="29.4156" height="29.4156" transform="rotate(-45 104 0)" stroke="#937A5C" stroke-width="0.975"/>
<path d="M124.8 -5.35665e-05L114.4 10.3999L124.8 20.7999L135.2 10.3999L124.8 -5.35665e-05ZM124.8 -5.35665e-05L124.8 -20.7379" stroke="#937A5C" stroke-width="0.975"/>
<rect x="145.6" width="29.4156" height="29.4156" transform="rotate(-45 145.6 0)" stroke="#937A5C" stroke-width="0.975"/>
<path d="M156 10.3999L166.4 -9.78725e-05L176.8 10.3999L166.4 20.7999L156 10.3999Z" stroke="#937A5C" stroke-width="0.975"/>
<rect x="-20.8" width="29.4156" height="29.4156" transform="rotate(-45 -20.8 0)" stroke="#937A5C" stroke-width="0.975"/>
<path d="M-10.3999 10.3999L9.78725e-05 -9.78725e-05L10.4001 10.3999L9.96258e-05 20.7999L-10.3999 10.3999Z" stroke="#937A5C" stroke-width="0.975"/>
<rect x="20.8" y="83.2" width="29.4156" height="29.4156" transform="rotate(-45 20.8 83.2)" stroke="#937A5C" stroke-width="0.975"/>
<path d="M41.6 83.2001L31.2 93.6001L41.6 104L52 93.6001L41.6 83.2001ZM41.6 83.2001L41.6 62.4623" stroke="#937A5C" stroke-width="0.975"/>
<rect x="62.3999" y="83.2" width="29.4156" height="29.4156" transform="rotate(-45 62.3999 83.2)" stroke="#937A5C" stroke-width="0.975"/>
<path d="M83.2001 83.2001L72.8001 93.6001L83.2001 104L93.6001 93.6001L83.2001 83.2001ZM83.2001 83.2001L83.2001 62.4623" stroke="#937A5C" stroke-width="0.975"/>
<rect x="104" y="83.2" width="29.4156" height="29.4156" transform="rotate(-45 104 83.2)" stroke="#937A5C" stroke-width="0.975"/>
<path d="M124.8 83.2001L114.4 93.6001L124.8 104L135.2 93.6001L124.8 83.2001ZM124.8 83.2001L124.8 62.4623" stroke="#937A5C" stroke-width="0.975"/>
<rect x="145.6" y="83.2" width="29.4156" height="29.4156" transform="rotate(-45 145.6 83.2)" stroke="#937A5C" stroke-width="0.975"/>
<path d="M156 93.6001L166.4 83.2001L176.8 93.6001L166.4 104L156 93.6001Z" stroke="#937A5C" stroke-width="0.975"/>
<rect x="-20.8" y="83.2" width="29.4156" height="29.4156" transform="rotate(-45 -20.8 83.2)" stroke="#937A5C" stroke-width="0.975"/>
<path d="M-10.3999 93.6001L9.78725e-05 83.2001L10.4001 93.6001L9.96258e-05 104L-10.3999 93.6001Z" stroke="#937A5C" stroke-width="0.975"/>
<rect x="20.8" y="124.8" width="29.4156" height="29.4156" transform="rotate(-45 20.8 124.8)" stroke="#937A5C" stroke-width="0.975"/>
<path d="M41.6 124.8L31.2 135.2L41.6 145.6L52 135.2L41.6 124.8ZM41.6 124.8L41.6 104.062" stroke="#937A5C" stroke-width="0.975"/>
<rect x="62.3999" y="124.8" width="29.4156" height="29.4156" transform="rotate(-45 62.3999 124.8)" stroke="#937A5C" stroke-width="0.975"/>
<path d="M83.2001 124.8L72.8001 135.2L83.2001 145.6L93.6001 135.2L83.2001 124.8ZM83.2001 124.8L83.2001 104.062" stroke="#937A5C" stroke-width="0.975"/>
<rect x="104" y="124.8" width="29.4156" height="29.4156" transform="rotate(-45 104 124.8)" stroke="#937A5C" stroke-width="0.975"/>
<path d="M124.8 124.8L114.4 135.2L124.8 145.6L135.2 135.2L124.8 124.8ZM124.8 124.8L124.8 104.062" stroke="#937A5C" stroke-width="0.975"/>
<rect x="145.6" y="124.8" width="29.4156" height="29.4156" transform="rotate(-45 145.6 124.8)" stroke="#937A5C" stroke-width="0.975"/>
<path d="M156 135.2L166.4 124.8L176.8 135.2L166.4 145.6L156 135.2Z" stroke="#937A5C" stroke-width="0.975"/>
<rect x="-20.8" y="124.8" width="29.4156" height="29.4156" transform="rotate(-45 -20.8 124.8)" stroke="#937A5C" stroke-width="0.975"/>
<path d="M-10.3999 135.2L9.78725e-05 124.8L10.4001 135.2L9.96258e-05 145.6L-10.3999 135.2Z" stroke="#937A5C" stroke-width="0.975"/>
<rect x="20.8" y="166.4" width="29.4156" height="29.4156" transform="rotate(-45 20.8 166.4)" stroke="#937A5C" stroke-width="0.975"/>
<path d="M41.6 166.4L31.2 176.8L41.6 187.2L52 176.8L41.6 166.4ZM41.6 166.4L41.6 145.662" stroke="#937A5C" stroke-width="0.975"/>
<rect x="62.3999" y="166.4" width="29.4156" height="29.4156" transform="rotate(-45 62.3999 166.4)" stroke="#937A5C" stroke-width="0.975"/>
<path d="M83.2001 166.4L72.8001 176.8L83.2001 187.2L93.6001 176.8L83.2001 166.4ZM83.2001 166.4L83.2001 145.662" stroke="#937A5C" stroke-width="0.975"/>
<rect x="104" y="166.4" width="29.4156" height="29.4156" transform="rotate(-45 104 166.4)" stroke="#937A5C" stroke-width="0.975"/>
<path d="M124.8 166.4L114.4 176.8L124.8 187.2L135.2 176.8L124.8 166.4ZM124.8 166.4L124.8 145.662" stroke="#937A5C" stroke-width="0.975"/>
<rect x="145.6" y="166.4" width="29.4156" height="29.4156" transform="rotate(-45 145.6 166.4)" stroke="#937A5C" stroke-width="0.975"/>
<path d="M156 176.8L166.4 166.4L176.8 176.8L166.4 187.2L156 176.8Z" stroke="#937A5C" stroke-width="0.975"/>
<rect x="-20.8" y="166.4" width="29.4156" height="29.4156" transform="rotate(-45 -20.8 166.4)" stroke="#937A5C" stroke-width="0.975"/>
<path d="M-10.3999 176.8L9.78725e-05 166.4L10.4001 176.8L9.96258e-05 187.2L-10.3999 176.8Z" stroke="#937A5C" stroke-width="0.975"/>
<rect x="20.8" y="208" width="29.4156" height="29.4156" transform="rotate(-45 20.8 208)" stroke="#937A5C" stroke-width="0.975"/>
<path d="M41.6 208L31.2 218.4L41.6 228.8L52 218.4L41.6 208ZM41.6 208L41.6 187.262" stroke="#937A5C" stroke-width="0.975"/>
<rect x="62.3999" y="208" width="29.4156" height="29.4156" transform="rotate(-45 62.3999 208)" stroke="#937A5C" stroke-width="0.975"/>
<path d="M83.2001 208L72.8001 218.4L83.2001 228.8L93.6001 218.4L83.2001 208ZM83.2001 208L83.2001 187.262" stroke="#937A5C" stroke-width="0.975"/>
<rect x="104" y="208" width="29.4156" height="29.4156" transform="rotate(-45 104 208)" stroke="#937A5C" stroke-width="0.975"/>
<path d="M124.8 208L114.4 218.4L124.8 228.8L135.2 218.4L124.8 208ZM124.8 208L124.8 187.262" stroke="#937A5C" stroke-width="0.975"/>
<rect x="145.6" y="208" width="29.4156" height="29.4156" transform="rotate(-45 145.6 208)" stroke="#937A5C" stroke-width="0.975"/>
<path d="M156 218.4L166.4 208L176.8 218.4L166.4 228.8L156 218.4Z" stroke="#937A5C" stroke-width="0.975"/>
<rect x="-20.8" y="208" width="29.4156" height="29.4156" transform="rotate(-45 -20.8 208)" stroke="#937A5C" stroke-width="0.975"/>
<path d="M-10.3999 218.4L9.78725e-05 208L10.4001 218.4L9.96258e-05 228.8L-10.3999 218.4Z" stroke="#937A5C" stroke-width="0.975"/>
<rect x="20.8" y="249.6" width="29.4156" height="29.4156" transform="rotate(-45 20.8 249.6)" stroke="#937A5C" stroke-width="0.975"/>
<path d="M41.6 249.6L31.2 260L41.6 270.4L52 260L41.6 249.6ZM41.6 249.6L41.6 228.862" stroke="#937A5C" stroke-width="0.975"/>
<rect x="62.3999" y="249.6" width="29.4156" height="29.4156" transform="rotate(-45 62.3999 249.6)" stroke="#937A5C" stroke-width="0.975"/>
<path d="M83.2001 249.6L72.8001 260L83.2001 270.4L93.6001 260L83.2001 249.6ZM83.2001 249.6L83.2001 228.862" stroke="#937A5C" stroke-width="0.975"/>
<rect x="104" y="249.6" width="29.4156" height="29.4156" transform="rotate(-45 104 249.6)" stroke="#937A5C" stroke-width="0.975"/>
<path d="M124.8 249.6L114.4 260L124.8 270.4L135.2 260L124.8 249.6ZM124.8 249.6L124.8 228.862" stroke="#937A5C" stroke-width="0.975"/>
<rect x="145.6" y="249.6" width="29.4156" height="29.4156" transform="rotate(-45 145.6 249.6)" stroke="#937A5C" stroke-width="0.975"/>
<path d="M156 260L166.4 249.6L176.8 260L166.4 270.4L156 260Z" stroke="#937A5C" stroke-width="0.975"/>
<rect x="-20.8" y="249.6" width="29.4156" height="29.4156" transform="rotate(-45 -20.8 249.6)" stroke="#937A5C" stroke-width="0.975"/>
<path d="M-10.3999 260L9.78725e-05 249.6L10.4001 260L9.96258e-05 270.4L-10.3999 260Z" stroke="#937A5C" stroke-width="0.975"/>
<rect x="20.8" y="291.2" width="29.4156" height="29.4156" transform="rotate(-45 20.8 291.2)" stroke="#937A5C" stroke-width="0.975"/>
<path d="M41.6 291.2L31.2 301.6L41.6 312L52 301.6L41.6 291.2ZM41.6 291.2L41.6 270.462" stroke="#937A5C" stroke-width="0.975"/>
<rect x="62.3999" y="291.2" width="29.4156" height="29.4156" transform="rotate(-45 62.3999 291.2)" stroke="#937A5C" stroke-width="0.975"/>
<path d="M83.2001 291.2L72.8001 301.6L83.2001 312L93.6001 301.6L83.2001 291.2ZM83.2001 291.2L83.2001 270.462" stroke="#937A5C" stroke-width="0.975"/>
<rect x="104" y="291.2" width="29.4156" height="29.4156" transform="rotate(-45 104 291.2)" stroke="#937A5C" stroke-width="0.975"/>
<path d="M124.8 291.2L114.4 301.6L124.8 312L135.2 301.6L124.8 291.2ZM124.8 291.2L124.8 270.462" stroke="#937A5C" stroke-width="0.975"/>
<rect x="145.6" y="291.2" width="29.4156" height="29.4156" transform="rotate(-45 145.6 291.2)" stroke="#937A5C" stroke-width="0.975"/>
<path d="M156 301.6L166.4 291.2L176.8 301.6L166.4 312L156 301.6Z" stroke="#937A5C" stroke-width="0.975"/>
<rect x="-20.8" y="291.2" width="29.4156" height="29.4156" transform="rotate(-45 -20.8 291.2)" stroke="#937A5C" stroke-width="0.975"/>
<path d="M-10.3999 301.6L9.78725e-05 291.2L10.4001 301.6L9.96258e-05 312L-10.3999 301.6Z" stroke="#937A5C" stroke-width="0.975"/>
<rect x="20.8" y="332.8" width="29.4156" height="29.4156" transform="rotate(-45 20.8 332.8)" stroke="#937A5C" stroke-width="0.975"/>
<path d="M41.6 332.8L31.2 343.2L41.6 353.6L52 343.2L41.6 332.8ZM41.6 332.8L41.6 312.062" stroke="#937A5C" stroke-width="0.975"/>
<rect x="62.3999" y="332.8" width="29.4156" height="29.4156" transform="rotate(-45 62.3999 332.8)" stroke="#937A5C" stroke-width="0.975"/>
<path d="M83.2001 332.8L72.8001 343.2L83.2001 353.6L93.6001 343.2L83.2001 332.8ZM83.2001 332.8L83.2001 312.062" stroke="#937A5C" stroke-width="0.975"/>
<rect x="104" y="332.8" width="29.4156" height="29.4156" transform="rotate(-45 104 332.8)" stroke="#937A5C" stroke-width="0.975"/>
<path d="M124.8 332.8L114.4 343.2L124.8 353.6L135.2 343.2L124.8 332.8ZM124.8 332.8L124.8 312.062" stroke="#937A5C" stroke-width="0.975"/>
<rect x="145.6" y="332.8" width="29.4156" height="29.4156" transform="rotate(-45 145.6 332.8)" stroke="#937A5C" stroke-width="0.975"/>
<rect x="-20.8" y="332.8" width="29.4156" height="29.4156" transform="rotate(-45 -20.8 332.8)" stroke="#937A5C" stroke-width="0.975"/>
</g>
<defs>
<clipPath id="clip0_358_9486">
<rect width="166.4" height="312" fill="white"/>
</clipPath>
</defs>
</svg>
