<svg width="250" height="470" viewBox="0 0 250 470" fill="none" xmlns="http://www.w3.org/2000/svg">
<g clip-path="url(#clip0_385_25757)">
<rect y="31.8613" width="44.1671" height="44.1671" transform="rotate(-45 0 31.8613)" stroke="#937A5C" stroke-width="1.46395"/>
<path d="M31.2306 31.8613L15.6152 47.4768L31.2306 63.0922L46.8461 47.4768L31.2306 31.8613ZM31.2306 31.8613L31.2306 0.723732" stroke="#937A5C" stroke-width="1.46395"/>
<rect x="62.4619" y="31.8613" width="44.1671" height="44.1671" transform="rotate(-45 62.4619 31.8613)" stroke="#937A5C" stroke-width="1.46395"/>
<path d="M93.6925 31.8613L78.0771 47.4768L93.6925 63.0922L109.308 47.4768L93.6925 31.8613ZM93.6925 31.8613L93.6925 0.723732" stroke="#937A5C" stroke-width="1.46395"/>
<rect x="124.923" y="31.8613" width="44.1671" height="44.1671" transform="rotate(-45 124.923 31.8613)" stroke="#937A5C" stroke-width="1.46395"/>
<path d="M156.154 31.8613L140.539 47.4768L156.154 63.0922L171.769 47.4768L156.154 31.8613ZM156.154 31.8613L156.154 0.723732" stroke="#937A5C" stroke-width="1.46395"/>
<rect x="187.385" y="31.8613" width="44.1671" height="44.1671" transform="rotate(-45 187.385 31.8613)" stroke="#937A5C" stroke-width="1.46395"/>
<path d="M218.616 31.8613L203 47.4768L218.616 63.0922L234.231 47.4768L218.616 31.8613ZM218.616 31.8613L218.616 0.723732" stroke="#937A5C" stroke-width="1.46395"/>
<rect y="94.3231" width="44.1671" height="44.1671" transform="rotate(-45 0 94.3231)" stroke="#937A5C" stroke-width="1.46395"/>
<path d="M31.2306 94.3231L15.6152 109.939L31.2306 125.554L46.8461 109.939L31.2306 94.3231ZM31.2306 94.3231L31.2306 63.1855" stroke="#937A5C" stroke-width="1.46395"/>
<rect x="62.4619" y="94.3231" width="44.1671" height="44.1671" transform="rotate(-45 62.4619 94.3231)" stroke="#937A5C" stroke-width="1.46395"/>
<path d="M93.6925 94.3232L78.0771 109.939L93.6925 125.554L109.308 109.939L93.6925 94.3232ZM93.6925 94.3232L93.6925 63.1856" stroke="#937A5C" stroke-width="1.46395"/>
<rect x="124.923" y="94.3231" width="44.1671" height="44.1671" transform="rotate(-45 124.923 94.3231)" stroke="#937A5C" stroke-width="1.46395"/>
<path d="M156.154 94.3232L140.539 109.939L156.154 125.554L171.769 109.939L156.154 94.3232ZM156.154 94.3232L156.154 63.1856" stroke="#937A5C" stroke-width="1.46395"/>
<rect x="187.385" y="94.3231" width="44.1671" height="44.1671" transform="rotate(-45 187.385 94.3231)" stroke="#937A5C" stroke-width="1.46395"/>
<path d="M218.616 94.3232L203 109.939L218.616 125.554L234.231 109.939L218.616 94.3232ZM218.616 94.3232L218.616 63.1856" stroke="#937A5C" stroke-width="1.46395"/>
<rect y="156.785" width="44.1671" height="44.1671" transform="rotate(-45 0 156.785)" stroke="#937A5C" stroke-width="1.46395"/>
<path d="M31.2306 156.785L15.6152 172.4L31.2306 188.016L46.8461 172.4L31.2306 156.785ZM31.2306 156.785L31.2306 125.647" stroke="#937A5C" stroke-width="1.46395"/>
<rect x="62.4619" y="156.784" width="44.1671" height="44.1671" transform="rotate(-45 62.4619 156.784)" stroke="#937A5C" stroke-width="1.46395"/>
<path d="M93.6925 156.785L78.0771 172.4L93.6925 188.015L109.308 172.4L93.6925 156.785ZM93.6925 156.785L93.6925 125.647" stroke="#937A5C" stroke-width="1.46395"/>
<rect x="124.923" y="156.784" width="44.1671" height="44.1671" transform="rotate(-45 124.923 156.784)" stroke="#937A5C" stroke-width="1.46395"/>
<path d="M156.154 156.785L140.539 172.4L156.154 188.015L171.769 172.4L156.154 156.785ZM156.154 156.785L156.154 125.647" stroke="#937A5C" stroke-width="1.46395"/>
<rect x="187.385" y="156.784" width="44.1671" height="44.1671" transform="rotate(-45 187.385 156.784)" stroke="#937A5C" stroke-width="1.46395"/>
<path d="M218.616 156.785L203 172.4L218.616 188.015L234.231 172.4L218.616 156.785ZM218.616 156.785L218.616 125.647" stroke="#937A5C" stroke-width="1.46395"/>
<rect y="219.246" width="44.1671" height="44.1671" transform="rotate(-45 0 219.246)" stroke="#937A5C" stroke-width="1.46395"/>
<path d="M31.2306 219.246L15.6152 234.862L31.2306 250.477L46.8461 234.862L31.2306 219.246ZM31.2306 219.246L31.2306 188.109" stroke="#937A5C" stroke-width="1.46395"/>
<rect x="62.4619" y="219.246" width="44.1671" height="44.1671" transform="rotate(-45 62.4619 219.246)" stroke="#937A5C" stroke-width="1.46395"/>
<path d="M93.6925 219.246L78.0771 234.862L93.6925 250.477L109.308 234.862L93.6925 219.246ZM93.6925 219.246L93.6925 188.109" stroke="#937A5C" stroke-width="1.46395"/>
<rect x="124.923" y="219.246" width="44.1671" height="44.1671" transform="rotate(-45 124.923 219.246)" stroke="#937A5C" stroke-width="1.46395"/>
<path d="M156.154 219.246L140.539 234.862L156.154 250.477L171.769 234.862L156.154 219.246ZM156.154 219.246L156.154 188.109" stroke="#937A5C" stroke-width="1.46395"/>
<rect x="187.385" y="219.246" width="44.1671" height="44.1671" transform="rotate(-45 187.385 219.246)" stroke="#937A5C" stroke-width="1.46395"/>
<path d="M218.616 219.246L203 234.862L218.616 250.477L234.231 234.862L218.616 219.246ZM218.616 219.246L218.616 188.109" stroke="#937A5C" stroke-width="1.46395"/>
<rect y="281.708" width="44.1671" height="44.1671" transform="rotate(-45 0 281.708)" stroke="#937A5C" stroke-width="1.46395"/>
<path d="M31.2306 281.708L15.6152 297.324L31.2306 312.939L46.8461 297.324L31.2306 281.708ZM31.2306 281.708L31.2306 250.571" stroke="#937A5C" stroke-width="1.46395"/>
<rect x="62.4619" y="281.708" width="44.1671" height="44.1671" transform="rotate(-45 62.4619 281.708)" stroke="#937A5C" stroke-width="1.46395"/>
<path d="M93.6925 281.708L78.0771 297.324L93.6925 312.939L109.308 297.324L93.6925 281.708ZM93.6925 281.708L93.6925 250.571" stroke="#937A5C" stroke-width="1.46395"/>
<rect x="124.923" y="281.708" width="44.1671" height="44.1671" transform="rotate(-45 124.923 281.708)" stroke="#937A5C" stroke-width="1.46395"/>
<path d="M156.154 281.708L140.539 297.324L156.154 312.939L171.769 297.324L156.154 281.708ZM156.154 281.708L156.154 250.571" stroke="#937A5C" stroke-width="1.46395"/>
<rect x="187.385" y="281.708" width="44.1671" height="44.1671" transform="rotate(-45 187.385 281.708)" stroke="#937A5C" stroke-width="1.46395"/>
<path d="M218.616 281.708L203 297.324L218.616 312.939L234.231 297.324L218.616 281.708ZM218.616 281.708L218.616 250.571" stroke="#937A5C" stroke-width="1.46395"/>
<rect y="344.17" width="44.1671" height="44.1671" transform="rotate(-45 0 344.17)" stroke="#937A5C" stroke-width="1.46395"/>
<path d="M31.2306 344.17L15.6152 359.786L31.2306 375.401L46.8461 359.786L31.2306 344.17ZM31.2306 344.17L31.2306 313.033" stroke="#937A5C" stroke-width="1.46395"/>
<rect x="62.4619" y="344.17" width="44.1671" height="44.1671" transform="rotate(-45 62.4619 344.17)" stroke="#937A5C" stroke-width="1.46395"/>
<path d="M93.6925 344.17L78.0771 359.786L93.6925 375.401L109.308 359.786L93.6925 344.17ZM93.6925 344.17L93.6925 313.033" stroke="#937A5C" stroke-width="1.46395"/>
<rect x="124.923" y="344.17" width="44.1671" height="44.1671" transform="rotate(-45 124.923 344.17)" stroke="#937A5C" stroke-width="1.46395"/>
<path d="M156.154 344.17L140.539 359.786L156.154 375.401L171.769 359.786L156.154 344.17ZM156.154 344.17L156.154 313.033" stroke="#937A5C" stroke-width="1.46395"/>
<rect x="187.385" y="344.17" width="44.1671" height="44.1671" transform="rotate(-45 187.385 344.17)" stroke="#937A5C" stroke-width="1.46395"/>
<path d="M218.616 344.17L203 359.786L218.616 375.401L234.231 359.786L218.616 344.17ZM218.616 344.17L218.616 313.033" stroke="#937A5C" stroke-width="1.46395"/>
<rect y="406.631" width="44.1671" height="44.1671" transform="rotate(-45 0 406.631)" stroke="#937A5C" stroke-width="1.46395"/>
<path d="M31.2306 406.632L15.6152 422.247L31.2306 437.862L46.8461 422.247L31.2306 406.632ZM31.2306 406.632L31.2306 375.494" stroke="#937A5C" stroke-width="1.46395"/>
<rect x="62.4619" y="406.631" width="44.1671" height="44.1671" transform="rotate(-45 62.4619 406.631)" stroke="#937A5C" stroke-width="1.46395"/>
<path d="M93.6925 406.631L78.0771 422.247L93.6925 437.862L109.308 422.247L93.6925 406.631ZM93.6925 406.631L93.6925 375.494" stroke="#937A5C" stroke-width="1.46395"/>
<rect x="124.923" y="406.631" width="44.1671" height="44.1671" transform="rotate(-45 124.923 406.631)" stroke="#937A5C" stroke-width="1.46395"/>
<path d="M156.154 406.631L140.539 422.247L156.154 437.862L171.769 422.247L156.154 406.631ZM156.154 406.631L156.154 375.494" stroke="#937A5C" stroke-width="1.46395"/>
<rect x="187.385" y="406.631" width="44.1671" height="44.1671" transform="rotate(-45 187.385 406.631)" stroke="#937A5C" stroke-width="1.46395"/>
<path d="M218.616 406.631L203 422.247L218.616 437.862L234.231 422.247L218.616 406.631ZM218.616 406.631L218.616 375.494" stroke="#937A5C" stroke-width="1.46395"/>
<rect y="469.093" width="44.1671" height="44.1671" transform="rotate(-45 0 469.093)" stroke="#937A5C" stroke-width="1.46395"/>
<path d="M31.2306 469.094L15.6152 484.709L31.2306 500.324L46.8461 484.709L31.2306 469.094ZM31.2306 469.094L31.2306 437.956" stroke="#937A5C" stroke-width="1.46395"/>
<rect x="62.4619" y="469.093" width="44.1671" height="44.1671" transform="rotate(-45 62.4619 469.093)" stroke="#937A5C" stroke-width="1.46395"/>
<path d="M93.6925 469.094L78.0771 484.709L93.6925 500.324L109.308 484.709L93.6925 469.094ZM93.6925 469.094L93.6925 437.956" stroke="#937A5C" stroke-width="1.46395"/>
<rect x="124.923" y="469.093" width="44.1671" height="44.1671" transform="rotate(-45 124.923 469.093)" stroke="#937A5C" stroke-width="1.46395"/>
<path d="M156.154 469.094L140.539 484.709L156.154 500.324L171.769 484.709L156.154 469.094ZM156.154 469.094L156.154 437.956" stroke="#937A5C" stroke-width="1.46395"/>
<rect x="187.385" y="469.093" width="44.1671" height="44.1671" transform="rotate(-45 187.385 469.093)" stroke="#937A5C" stroke-width="1.46395"/>
<path d="M218.616 469.094L203 484.709L218.616 500.324L234.231 484.709L218.616 469.094ZM218.616 469.094L218.616 437.956" stroke="#937A5C" stroke-width="1.46395"/>
<rect x="31.231" y="63.092" width="44.1671" height="44.1671" transform="rotate(-45 31.231 63.092)" stroke="#937A5C" stroke-width="1.46395"/>
<path d="M62.4616 63.092L46.8461 78.7075L62.4616 94.3229L78.077 78.7075L62.4616 63.092ZM62.4616 63.092L62.4616 31.9544" stroke="#937A5C" stroke-width="1.46395"/>
<rect x="93.6924" y="63.092" width="44.1671" height="44.1671" transform="rotate(-45 93.6924 63.092)" stroke="#937A5C" stroke-width="1.46395"/>
<path d="M124.923 63.092L109.308 78.7075L124.923 94.3229L140.538 78.7075L124.923 63.092ZM124.923 63.092L124.923 31.9544" stroke="#937A5C" stroke-width="1.46395"/>
<rect x="156.154" y="63.092" width="44.1671" height="44.1671" transform="rotate(-45 156.154 63.092)" stroke="#937A5C" stroke-width="1.46395"/>
<path d="M187.385 63.092L171.769 78.7075L187.385 94.3229L203 78.7075L187.385 63.092ZM187.385 63.092L187.385 31.9544" stroke="#937A5C" stroke-width="1.46395"/>
<rect x="218.616" y="63.092" width="44.1671" height="44.1671" transform="rotate(-45 218.616 63.092)" stroke="#937A5C" stroke-width="1.46395"/>
<path d="M234.231 78.7074L249.847 63.092L265.462 78.7074L249.847 94.3228L234.231 78.7074Z" stroke="#937A5C" stroke-width="1.46395"/>
<rect x="-31.231" y="63.092" width="44.1671" height="44.1671" transform="rotate(-45 -31.231 63.092)" stroke="#937A5C" stroke-width="1.46395"/>
<path d="M-15.6157 78.7075L-0.000289498 63.092L15.6151 78.7075L-0.000286865 94.3229L-15.6157 78.7075Z" stroke="#937A5C" stroke-width="1.46395"/>
<rect x="31.231" y="0.630493" width="44.1671" height="44.1671" transform="rotate(-45 31.231 0.630493)" stroke="#937A5C" stroke-width="1.46395"/>
<path d="M62.4616 0.630549L46.8461 16.246L62.4616 31.8614L78.077 16.246L62.4616 0.630549ZM62.4616 0.630549L62.4616 -30.507" stroke="#937A5C" stroke-width="1.46395"/>
<rect x="93.6924" y="0.630493" width="44.1671" height="44.1671" transform="rotate(-45 93.6924 0.630493)" stroke="#937A5C" stroke-width="1.46395"/>
<path d="M124.923 0.630549L109.308 16.246L124.923 31.8614L140.538 16.246L124.923 0.630549ZM124.923 0.630549L124.923 -30.507" stroke="#937A5C" stroke-width="1.46395"/>
<rect x="156.154" y="0.630493" width="44.1671" height="44.1671" transform="rotate(-45 156.154 0.630493)" stroke="#937A5C" stroke-width="1.46395"/>
<path d="M187.385 0.630549L171.769 16.246L187.385 31.8614L203 16.246L187.385 0.630549ZM187.385 0.630549L187.385 -30.507" stroke="#937A5C" stroke-width="1.46395"/>
<rect x="218.616" y="0.630493" width="44.1671" height="44.1671" transform="rotate(-45 218.616 0.630493)" stroke="#937A5C" stroke-width="1.46395"/>
<path d="M234.231 16.2459L249.847 0.630477L265.462 16.2459L249.847 31.8613L234.231 16.2459Z" stroke="#937A5C" stroke-width="1.46395"/>
<rect x="-31.231" y="0.630432" width="44.1671" height="44.1671" transform="rotate(-45 -31.231 0.630432)" stroke="#937A5C" stroke-width="1.46395"/>
<path d="M-15.6157 16.2458L-0.000289498 0.630416L15.6151 16.2459L-0.000286865 31.8613L-15.6157 16.2458Z" stroke="#937A5C" stroke-width="1.46395"/>
<rect x="31.231" y="125.554" width="44.1671" height="44.1671" transform="rotate(-45 31.231 125.554)" stroke="#937A5C" stroke-width="1.46395"/>
<path d="M62.4616 125.554L46.8461 141.169L62.4616 156.785L78.077 141.169L62.4616 125.554ZM62.4616 125.554L62.4616 94.4163" stroke="#937A5C" stroke-width="1.46395"/>
<rect x="93.6924" y="125.554" width="44.1671" height="44.1671" transform="rotate(-45 93.6924 125.554)" stroke="#937A5C" stroke-width="1.46395"/>
<path d="M124.923 125.554L109.308 141.169L124.923 156.785L140.538 141.169L124.923 125.554ZM124.923 125.554L124.923 94.4163" stroke="#937A5C" stroke-width="1.46395"/>
<rect x="156.154" y="125.554" width="44.1671" height="44.1671" transform="rotate(-45 156.154 125.554)" stroke="#937A5C" stroke-width="1.46395"/>
<path d="M187.385 125.554L171.769 141.169L187.385 156.785L203 141.169L187.385 125.554ZM187.385 125.554L187.385 94.4163" stroke="#937A5C" stroke-width="1.46395"/>
<rect x="218.616" y="125.554" width="44.1671" height="44.1671" transform="rotate(-45 218.616 125.554)" stroke="#937A5C" stroke-width="1.46395"/>
<path d="M234.231 141.169L249.847 125.554L265.462 141.169L249.847 156.785L234.231 141.169Z" stroke="#937A5C" stroke-width="1.46395"/>
<rect x="-31.231" y="125.554" width="44.1671" height="44.1671" transform="rotate(-45 -31.231 125.554)" stroke="#937A5C" stroke-width="1.46395"/>
<path d="M-15.6157 141.169L-0.000289498 125.554L15.6151 141.169L-0.000286865 156.785L-15.6157 141.169Z" stroke="#937A5C" stroke-width="1.46395"/>
<rect x="31.231" y="188.016" width="44.1671" height="44.1671" transform="rotate(-45 31.231 188.016)" stroke="#937A5C" stroke-width="1.46395"/>
<path d="M62.4616 188.016L46.8461 203.631L62.4616 219.247L78.077 203.631L62.4616 188.016ZM62.4616 188.016L62.4616 156.878" stroke="#937A5C" stroke-width="1.46395"/>
<rect x="93.6924" y="188.016" width="44.1671" height="44.1671" transform="rotate(-45 93.6924 188.016)" stroke="#937A5C" stroke-width="1.46395"/>
<path d="M124.923 188.016L109.308 203.631L124.923 219.247L140.538 203.631L124.923 188.016ZM124.923 188.016L124.923 156.878" stroke="#937A5C" stroke-width="1.46395"/>
<rect x="156.154" y="188.016" width="44.1671" height="44.1671" transform="rotate(-45 156.154 188.016)" stroke="#937A5C" stroke-width="1.46395"/>
<path d="M187.385 188.016L171.769 203.631L187.385 219.247L203 203.631L187.385 188.016ZM187.385 188.016L187.385 156.878" stroke="#937A5C" stroke-width="1.46395"/>
<rect x="218.616" y="188.016" width="44.1671" height="44.1671" transform="rotate(-45 218.616 188.016)" stroke="#937A5C" stroke-width="1.46395"/>
<path d="M234.231 203.631L249.847 188.016L265.462 203.631L249.847 219.247L234.231 203.631Z" stroke="#937A5C" stroke-width="1.46395"/>
<rect x="-31.231" y="188.016" width="44.1671" height="44.1671" transform="rotate(-45 -31.231 188.016)" stroke="#937A5C" stroke-width="1.46395"/>
<path d="M-15.6157 203.631L-0.000289498 188.016L15.6151 203.631L-0.000286865 219.246L-15.6157 203.631Z" stroke="#937A5C" stroke-width="1.46395"/>
<rect x="31.231" y="250.478" width="44.1671" height="44.1671" transform="rotate(-45 31.231 250.478)" stroke="#937A5C" stroke-width="1.46395"/>
<path d="M62.4616 250.478L46.8461 266.093L62.4616 281.708L78.077 266.093L62.4616 250.478ZM62.4616 250.478L62.4616 219.34" stroke="#937A5C" stroke-width="1.46395"/>
<rect x="93.6924" y="250.478" width="44.1671" height="44.1671" transform="rotate(-45 93.6924 250.478)" stroke="#937A5C" stroke-width="1.46395"/>
<path d="M124.923 250.478L109.308 266.093L124.923 281.708L140.538 266.093L124.923 250.478ZM124.923 250.478L124.923 219.34" stroke="#937A5C" stroke-width="1.46395"/>
<rect x="156.154" y="250.478" width="44.1671" height="44.1671" transform="rotate(-45 156.154 250.478)" stroke="#937A5C" stroke-width="1.46395"/>
<path d="M187.385 250.478L171.769 266.093L187.385 281.708L203 266.093L187.385 250.478ZM187.385 250.478L187.385 219.34" stroke="#937A5C" stroke-width="1.46395"/>
<rect x="218.616" y="250.478" width="44.1671" height="44.1671" transform="rotate(-45 218.616 250.478)" stroke="#937A5C" stroke-width="1.46395"/>
<path d="M234.231 266.093L249.847 250.478L265.462 266.093L249.847 281.708L234.231 266.093Z" stroke="#937A5C" stroke-width="1.46395"/>
<rect x="-31.231" y="250.477" width="44.1671" height="44.1671" transform="rotate(-45 -31.231 250.477)" stroke="#937A5C" stroke-width="1.46395"/>
<path d="M-15.6157 266.093L-0.000289498 250.477L15.6151 266.093L-0.000286865 281.708L-15.6157 266.093Z" stroke="#937A5C" stroke-width="1.46395"/>
<rect x="31.231" y="312.939" width="44.1671" height="44.1671" transform="rotate(-45 31.231 312.939)" stroke="#937A5C" stroke-width="1.46395"/>
<path d="M62.4616 312.939L46.8461 328.554L62.4616 344.17L78.077 328.554L62.4616 312.939ZM62.4616 312.939L62.4616 281.801" stroke="#937A5C" stroke-width="1.46395"/>
<rect x="93.6924" y="312.939" width="44.1671" height="44.1671" transform="rotate(-45 93.6924 312.939)" stroke="#937A5C" stroke-width="1.46395"/>
<path d="M124.923 312.939L109.308 328.554L124.923 344.17L140.538 328.554L124.923 312.939ZM124.923 312.939L124.923 281.801" stroke="#937A5C" stroke-width="1.46395"/>
<rect x="156.154" y="312.939" width="44.1671" height="44.1671" transform="rotate(-45 156.154 312.939)" stroke="#937A5C" stroke-width="1.46395"/>
<path d="M187.385 312.939L171.769 328.554L187.385 344.17L203 328.554L187.385 312.939ZM187.385 312.939L187.385 281.801" stroke="#937A5C" stroke-width="1.46395"/>
<rect x="218.616" y="312.939" width="44.1671" height="44.1671" transform="rotate(-45 218.616 312.939)" stroke="#937A5C" stroke-width="1.46395"/>
<path d="M234.231 328.554L249.847 312.939L265.462 328.554L249.847 344.17L234.231 328.554Z" stroke="#937A5C" stroke-width="1.46395"/>
<rect x="-31.231" y="312.939" width="44.1671" height="44.1671" transform="rotate(-45 -31.231 312.939)" stroke="#937A5C" stroke-width="1.46395"/>
<path d="M-15.6157 328.554L-0.000289498 312.939L15.6151 328.554L-0.000286865 344.17L-15.6157 328.554Z" stroke="#937A5C" stroke-width="1.46395"/>
<rect x="31.231" y="375.401" width="44.1671" height="44.1671" transform="rotate(-45 31.231 375.401)" stroke="#937A5C" stroke-width="1.46395"/>
<path d="M62.4616 375.401L46.8461 391.016L62.4616 406.632L78.077 391.016L62.4616 375.401ZM62.4616 375.401L62.4616 344.263" stroke="#937A5C" stroke-width="1.46395"/>
<rect x="93.6924" y="375.401" width="44.1671" height="44.1671" transform="rotate(-45 93.6924 375.401)" stroke="#937A5C" stroke-width="1.46395"/>
<path d="M124.923 375.401L109.308 391.016L124.923 406.632L140.538 391.016L124.923 375.401ZM124.923 375.401L124.923 344.263" stroke="#937A5C" stroke-width="1.46395"/>
<rect x="156.154" y="375.401" width="44.1671" height="44.1671" transform="rotate(-45 156.154 375.401)" stroke="#937A5C" stroke-width="1.46395"/>
<path d="M187.385 375.401L171.769 391.016L187.385 406.632L203 391.016L187.385 375.401ZM187.385 375.401L187.385 344.263" stroke="#937A5C" stroke-width="1.46395"/>
<rect x="218.616" y="375.401" width="44.1671" height="44.1671" transform="rotate(-45 218.616 375.401)" stroke="#937A5C" stroke-width="1.46395"/>
<path d="M234.231 391.016L249.847 375.401L265.462 391.016L249.847 406.632L234.231 391.016Z" stroke="#937A5C" stroke-width="1.46395"/>
<rect x="-31.231" y="375.401" width="44.1671" height="44.1671" transform="rotate(-45 -31.231 375.401)" stroke="#937A5C" stroke-width="1.46395"/>
<path d="M-15.6157 391.016L-0.000289498 375.401L15.6151 391.016L-0.000286865 406.632L-15.6157 391.016Z" stroke="#937A5C" stroke-width="1.46395"/>
<rect x="31.231" y="437.863" width="44.1671" height="44.1671" transform="rotate(-45 31.231 437.863)" stroke="#937A5C" stroke-width="1.46395"/>
<path d="M62.4616 437.863L46.8461 453.478L62.4616 469.093L78.077 453.478L62.4616 437.863ZM62.4616 437.863L62.4616 406.725" stroke="#937A5C" stroke-width="1.46395"/>
<rect x="93.6924" y="437.863" width="44.1671" height="44.1671" transform="rotate(-45 93.6924 437.863)" stroke="#937A5C" stroke-width="1.46395"/>
<path d="M124.923 437.863L109.308 453.478L124.923 469.093L140.538 453.478L124.923 437.863ZM124.923 437.863L124.923 406.725" stroke="#937A5C" stroke-width="1.46395"/>
<rect x="156.154" y="437.863" width="44.1671" height="44.1671" transform="rotate(-45 156.154 437.863)" stroke="#937A5C" stroke-width="1.46395"/>
<path d="M187.385 437.863L171.769 453.478L187.385 469.093L203 453.478L187.385 437.863ZM187.385 437.863L187.385 406.725" stroke="#937A5C" stroke-width="1.46395"/>
<rect x="218.616" y="437.863" width="44.1671" height="44.1671" transform="rotate(-45 218.616 437.863)" stroke="#937A5C" stroke-width="1.46395"/>
<path d="M234.231 453.478L249.847 437.862L265.462 453.478L249.847 469.093L234.231 453.478Z" stroke="#937A5C" stroke-width="1.46395"/>
<rect x="-31.231" y="437.863" width="44.1671" height="44.1671" transform="rotate(-45 -31.231 437.863)" stroke="#937A5C" stroke-width="1.46395"/>
<path d="M-15.6157 453.478L-0.000289498 437.862L15.6151 453.478L-0.000286865 469.093L-15.6157 453.478Z" stroke="#937A5C" stroke-width="1.46395"/>
<rect x="31.231" y="500.324" width="44.1671" height="44.1671" transform="rotate(-45 31.231 500.324)" stroke="#937A5C" stroke-width="1.46395"/>
<path d="M62.4616 500.325L46.8461 515.94L62.4616 531.555L78.077 515.94L62.4616 500.325ZM62.4616 500.325L62.4616 469.187" stroke="#937A5C" stroke-width="1.46395"/>
<rect x="93.6924" y="500.324" width="44.1671" height="44.1671" transform="rotate(-45 93.6924 500.324)" stroke="#937A5C" stroke-width="1.46395"/>
<path d="M124.923 500.325L109.308 515.94L124.923 531.555L140.538 515.94L124.923 500.325ZM124.923 500.325L124.923 469.187" stroke="#937A5C" stroke-width="1.46395"/>
<rect x="156.154" y="500.324" width="44.1671" height="44.1671" transform="rotate(-45 156.154 500.324)" stroke="#937A5C" stroke-width="1.46395"/>
<path d="M187.385 500.325L171.769 515.94L187.385 531.555L203 515.94L187.385 500.325ZM187.385 500.325L187.385 469.187" stroke="#937A5C" stroke-width="1.46395"/>
<rect x="218.616" y="500.324" width="44.1671" height="44.1671" transform="rotate(-45 218.616 500.324)" stroke="#937A5C" stroke-width="1.46395"/>
<rect x="-31.231" y="500.324" width="44.1671" height="44.1671" transform="rotate(-45 -31.231 500.324)" stroke="#937A5C" stroke-width="1.46395"/>
</g>
<defs>
<clipPath id="clip0_385_25757">
<rect width="249.847" height="468.463" fill="white" transform="translate(0 0.630371)"/>
</clipPath>
</defs>
</svg>
