<svg width="250" height="470" viewBox="0 0 250 470" fill="none" xmlns="http://www.w3.org/2000/svg">
<g clip-path="url(#clip0_385_25757)">
<rect y="31.8613" width="44.1671" height="44.1671" transform="rotate(-45 0 31.8613)" stroke="#937A5C" stroke-width="1.46395"/>
<path d="M31.2309 31.8613L15.6154 47.4768L31.2309 63.0922L46.8463 47.4768L31.2309 31.8613ZM31.2309 31.8613L31.2309 0.723732" stroke="#937A5C" stroke-width="1.46395"/>
<rect x="62.4618" y="31.8613" width="44.1671" height="44.1671" transform="rotate(-45 62.4618 31.8613)" stroke="#937A5C" stroke-width="1.46395"/>
<path d="M93.6927 31.8613L78.0772 47.4768L93.6927 63.0922L109.308 47.4768L93.6927 31.8613ZM93.6927 31.8613L93.6927 0.723732" stroke="#937A5C" stroke-width="1.46395"/>
<rect x="124.923" y="31.8613" width="44.1671" height="44.1671" transform="rotate(-45 124.923 31.8613)" stroke="#937A5C" stroke-width="1.46395"/>
<path d="M156.154 31.8613L140.539 47.4768L156.154 63.0922L171.77 47.4768L156.154 31.8613ZM156.154 31.8613L156.154 0.723732" stroke="#937A5C" stroke-width="1.46395"/>
<rect x="187.385" y="31.8613" width="44.1671" height="44.1671" transform="rotate(-45 187.385 31.8613)" stroke="#937A5C" stroke-width="1.46395"/>
<path d="M218.616 31.8613L203.001 47.4768L218.616 63.0922L234.232 47.4768L218.616 31.8613ZM218.616 31.8613L218.616 0.723732" stroke="#937A5C" stroke-width="1.46395"/>
<rect y="94.323" width="44.1671" height="44.1671" transform="rotate(-45 0 94.323)" stroke="#937A5C" stroke-width="1.46395"/>
<path d="M31.2309 94.323L15.6154 109.938L31.2309 125.554L46.8463 109.938L31.2309 94.323ZM31.2309 94.323L31.2309 63.1854" stroke="#937A5C" stroke-width="1.46395"/>
<rect x="62.4618" y="94.323" width="44.1671" height="44.1671" transform="rotate(-45 62.4618 94.323)" stroke="#937A5C" stroke-width="1.46395"/>
<path d="M93.6927 94.323L78.0772 109.938L93.6927 125.554L109.308 109.938L93.6927 94.323ZM93.6927 94.323L93.6927 63.1854" stroke="#937A5C" stroke-width="1.46395"/>
<rect x="124.923" y="94.323" width="44.1671" height="44.1671" transform="rotate(-45 124.923 94.323)" stroke="#937A5C" stroke-width="1.46395"/>
<path d="M156.154 94.323L140.539 109.938L156.154 125.554L171.77 109.938L156.154 94.323ZM156.154 94.323L156.154 63.1854" stroke="#937A5C" stroke-width="1.46395"/>
<rect x="187.385" y="94.323" width="44.1671" height="44.1671" transform="rotate(-45 187.385 94.323)" stroke="#937A5C" stroke-width="1.46395"/>
<path d="M218.616 94.323L203.001 109.938L218.616 125.554L234.232 109.938L218.616 94.323ZM218.616 94.323L218.616 63.1854" stroke="#937A5C" stroke-width="1.46395"/>
<rect y="156.785" width="44.1671" height="44.1671" transform="rotate(-45 0 156.785)" stroke="#937A5C" stroke-width="1.46395"/>
<path d="M31.2309 156.785L15.6154 172.4L31.2309 188.016L46.8463 172.4L31.2309 156.785ZM31.2309 156.785L31.2309 125.647" stroke="#937A5C" stroke-width="1.46395"/>
<rect x="62.4618" y="156.785" width="44.1671" height="44.1671" transform="rotate(-45 62.4618 156.785)" stroke="#937A5C" stroke-width="1.46395"/>
<path d="M93.6927 156.785L78.0772 172.4L93.6927 188.016L109.308 172.4L93.6927 156.785ZM93.6927 156.785L93.6927 125.647" stroke="#937A5C" stroke-width="1.46395"/>
<rect x="124.923" y="156.785" width="44.1671" height="44.1671" transform="rotate(-45 124.923 156.785)" stroke="#937A5C" stroke-width="1.46395"/>
<path d="M156.154 156.785L140.539 172.4L156.154 188.016L171.77 172.4L156.154 156.785ZM156.154 156.785L156.154 125.647" stroke="#937A5C" stroke-width="1.46395"/>
<rect x="187.385" y="156.785" width="44.1671" height="44.1671" transform="rotate(-45 187.385 156.785)" stroke="#937A5C" stroke-width="1.46395"/>
<path d="M218.616 156.785L203.001 172.4L218.616 188.016L234.232 172.4L218.616 156.785ZM218.616 156.785L218.616 125.647" stroke="#937A5C" stroke-width="1.46395"/>
<rect y="219.246" width="44.1671" height="44.1671" transform="rotate(-45 0 219.246)" stroke="#937A5C" stroke-width="1.46395"/>
<path d="M31.2309 219.247L15.6154 234.862L31.2309 250.477L46.8463 234.862L31.2309 219.247ZM31.2309 219.247L31.2309 188.109" stroke="#937A5C" stroke-width="1.46395"/>
<rect x="62.4618" y="219.246" width="44.1671" height="44.1671" transform="rotate(-45 62.4618 219.246)" stroke="#937A5C" stroke-width="1.46395"/>
<path d="M93.6927 219.247L78.0772 234.862L93.6927 250.477L109.308 234.862L93.6927 219.247ZM93.6927 219.247L93.6927 188.109" stroke="#937A5C" stroke-width="1.46395"/>
<rect x="124.923" y="219.246" width="44.1671" height="44.1671" transform="rotate(-45 124.923 219.246)" stroke="#937A5C" stroke-width="1.46395"/>
<path d="M156.154 219.247L140.539 234.862L156.154 250.477L171.77 234.862L156.154 219.247ZM156.154 219.247L156.154 188.109" stroke="#937A5C" stroke-width="1.46395"/>
<rect x="187.385" y="219.246" width="44.1671" height="44.1671" transform="rotate(-45 187.385 219.246)" stroke="#937A5C" stroke-width="1.46395"/>
<path d="M218.616 219.247L203.001 234.862L218.616 250.477L234.232 234.862L218.616 219.247ZM218.616 219.247L218.616 188.109" stroke="#937A5C" stroke-width="1.46395"/>
<rect y="281.708" width="44.1671" height="44.1671" transform="rotate(-45 0 281.708)" stroke="#937A5C" stroke-width="1.46395"/>
<path d="M31.2309 281.708L15.6154 297.324L31.2309 312.939L46.8463 297.324L31.2309 281.708ZM31.2309 281.708L31.2309 250.571" stroke="#937A5C" stroke-width="1.46395"/>
<rect x="62.4618" y="281.708" width="44.1671" height="44.1671" transform="rotate(-45 62.4618 281.708)" stroke="#937A5C" stroke-width="1.46395"/>
<path d="M93.6927 281.708L78.0772 297.324L93.6927 312.939L109.308 297.324L93.6927 281.708ZM93.6927 281.708L93.6927 250.571" stroke="#937A5C" stroke-width="1.46395"/>
<rect x="124.923" y="281.708" width="44.1671" height="44.1671" transform="rotate(-45 124.923 281.708)" stroke="#937A5C" stroke-width="1.46395"/>
<path d="M156.154 281.708L140.539 297.324L156.154 312.939L171.77 297.324L156.154 281.708ZM156.154 281.708L156.154 250.571" stroke="#937A5C" stroke-width="1.46395"/>
<rect x="187.385" y="281.708" width="44.1671" height="44.1671" transform="rotate(-45 187.385 281.708)" stroke="#937A5C" stroke-width="1.46395"/>
<path d="M218.616 281.708L203.001 297.324L218.616 312.939L234.232 297.324L218.616 281.708ZM218.616 281.708L218.616 250.571" stroke="#937A5C" stroke-width="1.46395"/>
<rect y="344.17" width="44.1671" height="44.1671" transform="rotate(-45 0 344.17)" stroke="#937A5C" stroke-width="1.46395"/>
<path d="M31.2309 344.17L15.6154 359.785L31.2309 375.401L46.8463 359.785L31.2309 344.17ZM31.2309 344.17L31.2309 313.032" stroke="#937A5C" stroke-width="1.46395"/>
<rect x="62.4618" y="344.17" width="44.1671" height="44.1671" transform="rotate(-45 62.4618 344.17)" stroke="#937A5C" stroke-width="1.46395"/>
<path d="M93.6927 344.17L78.0772 359.785L93.6927 375.401L109.308 359.785L93.6927 344.17ZM93.6927 344.17L93.6927 313.032" stroke="#937A5C" stroke-width="1.46395"/>
<rect x="124.923" y="344.17" width="44.1671" height="44.1671" transform="rotate(-45 124.923 344.17)" stroke="#937A5C" stroke-width="1.46395"/>
<path d="M156.154 344.17L140.539 359.785L156.154 375.401L171.77 359.785L156.154 344.17ZM156.154 344.17L156.154 313.032" stroke="#937A5C" stroke-width="1.46395"/>
<rect x="187.385" y="344.17" width="44.1671" height="44.1671" transform="rotate(-45 187.385 344.17)" stroke="#937A5C" stroke-width="1.46395"/>
<path d="M218.616 344.17L203.001 359.785L218.616 375.401L234.232 359.785L218.616 344.17ZM218.616 344.17L218.616 313.032" stroke="#937A5C" stroke-width="1.46395"/>
<rect y="406.632" width="44.1671" height="44.1671" transform="rotate(-45 0 406.632)" stroke="#937A5C" stroke-width="1.46395"/>
<path d="M31.2309 406.632L15.6154 422.247L31.2309 437.863L46.8463 422.247L31.2309 406.632ZM31.2309 406.632L31.2309 375.494" stroke="#937A5C" stroke-width="1.46395"/>
<rect x="62.4618" y="406.632" width="44.1671" height="44.1671" transform="rotate(-45 62.4618 406.632)" stroke="#937A5C" stroke-width="1.46395"/>
<path d="M93.6927 406.632L78.0772 422.247L93.6927 437.863L109.308 422.247L93.6927 406.632ZM93.6927 406.632L93.6927 375.494" stroke="#937A5C" stroke-width="1.46395"/>
<rect x="124.923" y="406.632" width="44.1671" height="44.1671" transform="rotate(-45 124.923 406.632)" stroke="#937A5C" stroke-width="1.46395"/>
<path d="M156.154 406.632L140.539 422.247L156.154 437.863L171.77 422.247L156.154 406.632ZM156.154 406.632L156.154 375.494" stroke="#937A5C" stroke-width="1.46395"/>
<rect x="187.385" y="406.632" width="44.1671" height="44.1671" transform="rotate(-45 187.385 406.632)" stroke="#937A5C" stroke-width="1.46395"/>
<path d="M218.616 406.632L203.001 422.247L218.616 437.863L234.232 422.247L218.616 406.632ZM218.616 406.632L218.616 375.494" stroke="#937A5C" stroke-width="1.46395"/>
<rect y="469.093" width="44.1671" height="44.1671" transform="rotate(-45 0 469.093)" stroke="#937A5C" stroke-width="1.46395"/>
<path d="M31.2309 469.094L15.6154 484.709L31.2309 500.324L46.8463 484.709L31.2309 469.094ZM31.2309 469.094L31.2309 437.956" stroke="#937A5C" stroke-width="1.46395"/>
<rect x="62.4618" y="469.093" width="44.1671" height="44.1671" transform="rotate(-45 62.4618 469.093)" stroke="#937A5C" stroke-width="1.46395"/>
<path d="M93.6927 469.094L78.0772 484.709L93.6927 500.324L109.308 484.709L93.6927 469.094ZM93.6927 469.094L93.6927 437.956" stroke="#937A5C" stroke-width="1.46395"/>
<rect x="124.923" y="469.093" width="44.1671" height="44.1671" transform="rotate(-45 124.923 469.093)" stroke="#937A5C" stroke-width="1.46395"/>
<path d="M156.154 469.094L140.539 484.709L156.154 500.324L171.77 484.709L156.154 469.094ZM156.154 469.094L156.154 437.956" stroke="#937A5C" stroke-width="1.46395"/>
<rect x="187.385" y="469.093" width="44.1671" height="44.1671" transform="rotate(-45 187.385 469.093)" stroke="#937A5C" stroke-width="1.46395"/>
<path d="M218.616 469.094L203.001 484.709L218.616 500.324L234.232 484.709L218.616 469.094ZM218.616 469.094L218.616 437.956" stroke="#937A5C" stroke-width="1.46395"/>
<rect x="31.231" y="63.092" width="44.1671" height="44.1671" transform="rotate(-45 31.231 63.092)" stroke="#937A5C" stroke-width="1.46395"/>
<path d="M62.4618 63.0923L46.8464 78.7077L62.4618 94.3231L78.0773 78.7077L62.4618 63.0923ZM62.4618 63.0923L62.4618 31.9547" stroke="#937A5C" stroke-width="1.46395"/>
<rect x="93.6926" y="63.092" width="44.1671" height="44.1671" transform="rotate(-45 93.6926 63.092)" stroke="#937A5C" stroke-width="1.46395"/>
<path d="M124.923 63.0923L109.308 78.7077L124.923 94.3231L140.539 78.7077L124.923 63.0923ZM124.923 63.0923L124.923 31.9547" stroke="#937A5C" stroke-width="1.46395"/>
<rect x="156.154" y="63.092" width="44.1671" height="44.1671" transform="rotate(-45 156.154 63.092)" stroke="#937A5C" stroke-width="1.46395"/>
<path d="M187.385 63.0923L171.77 78.7077L187.385 94.3231L203.001 78.7077L187.385 63.0923ZM187.385 63.0923L187.385 31.9547" stroke="#937A5C" stroke-width="1.46395"/>
<rect x="218.616" y="63.092" width="44.1671" height="44.1671" transform="rotate(-45 218.616 63.092)" stroke="#937A5C" stroke-width="1.46395"/>
<path d="M234.231 78.7075L249.847 63.0921L265.462 78.7075L249.847 94.323L234.231 78.7075Z" stroke="#937A5C" stroke-width="1.46395"/>
<rect x="-31.2308" y="63.092" width="44.1671" height="44.1671" transform="rotate(-45 -31.2308 63.092)" stroke="#937A5C" stroke-width="1.46395"/>
<path d="M-15.6155 78.7075L-4.53572e-05 63.0921L15.6154 78.7075L-4.27246e-05 94.323L-15.6155 78.7075Z" stroke="#937A5C" stroke-width="1.46395"/>
<rect x="31.231" y="0.630371" width="44.1671" height="44.1671" transform="rotate(-45 31.231 0.630371)" stroke="#937A5C" stroke-width="1.46395"/>
<path d="M62.4618 0.630366L46.8464 16.2458L62.4618 31.8612L78.0773 16.2458L62.4618 0.630366ZM62.4618 0.630366L62.4618 -30.5072" stroke="#937A5C" stroke-width="1.46395"/>
<rect x="93.6926" y="0.630371" width="44.1671" height="44.1671" transform="rotate(-45 93.6926 0.630371)" stroke="#937A5C" stroke-width="1.46395"/>
<path d="M124.923 0.630366L109.308 16.2458L124.923 31.8612L140.539 16.2458L124.923 0.630366ZM124.923 0.630366L124.923 -30.5072" stroke="#937A5C" stroke-width="1.46395"/>
<rect x="156.154" y="0.630371" width="44.1671" height="44.1671" transform="rotate(-45 156.154 0.630371)" stroke="#937A5C" stroke-width="1.46395"/>
<path d="M187.385 0.630366L171.77 16.2458L187.385 31.8612L203.001 16.2458L187.385 0.630366ZM187.385 0.630366L187.385 -30.5072" stroke="#937A5C" stroke-width="1.46395"/>
<rect x="218.616" y="0.630371" width="44.1671" height="44.1671" transform="rotate(-45 218.616 0.630371)" stroke="#937A5C" stroke-width="1.46395"/>
<path d="M234.231 16.2458L249.847 0.630416L265.462 16.2459L249.847 31.8613L234.231 16.2458Z" stroke="#937A5C" stroke-width="1.46395"/>
<rect x="-31.2308" y="0.630371" width="44.1671" height="44.1671" transform="rotate(-45 -31.2308 0.630371)" stroke="#937A5C" stroke-width="1.46395"/>
<path d="M-15.6155 16.2458L-4.53572e-05 0.630416L15.6154 16.2459L-4.27246e-05 31.8613L-15.6155 16.2458Z" stroke="#937A5C" stroke-width="1.46395"/>
<rect x="31.231" y="125.554" width="44.1671" height="44.1671" transform="rotate(-45 31.231 125.554)" stroke="#937A5C" stroke-width="1.46395"/>
<path d="M62.4618 125.554L46.8464 141.169L62.4618 156.785L78.0773 141.169L62.4618 125.554ZM62.4618 125.554L62.4618 94.4164" stroke="#937A5C" stroke-width="1.46395"/>
<rect x="93.6926" y="125.554" width="44.1671" height="44.1671" transform="rotate(-45 93.6926 125.554)" stroke="#937A5C" stroke-width="1.46395"/>
<path d="M124.923 125.554L109.308 141.169L124.923 156.785L140.539 141.169L124.923 125.554ZM124.923 125.554L124.923 94.4164" stroke="#937A5C" stroke-width="1.46395"/>
<rect x="156.154" y="125.554" width="44.1671" height="44.1671" transform="rotate(-45 156.154 125.554)" stroke="#937A5C" stroke-width="1.46395"/>
<path d="M187.385 125.554L171.77 141.169L187.385 156.785L203.001 141.169L187.385 125.554ZM187.385 125.554L187.385 94.4164" stroke="#937A5C" stroke-width="1.46395"/>
<rect x="218.616" y="125.554" width="44.1671" height="44.1671" transform="rotate(-45 218.616 125.554)" stroke="#937A5C" stroke-width="1.46395"/>
<path d="M234.231 141.169L249.847 125.554L265.462 141.169L249.847 156.785L234.231 141.169Z" stroke="#937A5C" stroke-width="1.46395"/>
<rect x="-31.2308" y="125.554" width="44.1671" height="44.1671" transform="rotate(-45 -31.2308 125.554)" stroke="#937A5C" stroke-width="1.46395"/>
<path d="M-15.6155 141.169L-4.53572e-05 125.554L15.6154 141.169L-4.27246e-05 156.785L-15.6155 141.169Z" stroke="#937A5C" stroke-width="1.46395"/>
<rect x="31.231" y="188.016" width="44.1671" height="44.1671" transform="rotate(-45 31.231 188.016)" stroke="#937A5C" stroke-width="1.46395"/>
<path d="M62.4618 188.016L46.8464 203.631L62.4618 219.246L78.0773 203.631L62.4618 188.016ZM62.4618 188.016L62.4618 156.878" stroke="#937A5C" stroke-width="1.46395"/>
<rect x="93.6926" y="188.016" width="44.1671" height="44.1671" transform="rotate(-45 93.6926 188.016)" stroke="#937A5C" stroke-width="1.46395"/>
<path d="M124.923 188.016L109.308 203.631L124.923 219.246L140.539 203.631L124.923 188.016ZM124.923 188.016L124.923 156.878" stroke="#937A5C" stroke-width="1.46395"/>
<rect x="156.154" y="188.016" width="44.1671" height="44.1671" transform="rotate(-45 156.154 188.016)" stroke="#937A5C" stroke-width="1.46395"/>
<path d="M187.385 188.016L171.77 203.631L187.385 219.246L203.001 203.631L187.385 188.016ZM187.385 188.016L187.385 156.878" stroke="#937A5C" stroke-width="1.46395"/>
<rect x="218.616" y="188.016" width="44.1671" height="44.1671" transform="rotate(-45 218.616 188.016)" stroke="#937A5C" stroke-width="1.46395"/>
<path d="M234.231 203.631L249.847 188.016L265.462 203.631L249.847 219.247L234.231 203.631Z" stroke="#937A5C" stroke-width="1.46395"/>
<rect x="-31.2308" y="188.016" width="44.1671" height="44.1671" transform="rotate(-45 -31.2308 188.016)" stroke="#937A5C" stroke-width="1.46395"/>
<path d="M-15.6155 203.631L-4.53572e-05 188.016L15.6154 203.631L-4.27246e-05 219.247L-15.6155 203.631Z" stroke="#937A5C" stroke-width="1.46395"/>
<rect x="31.231" y="250.477" width="44.1671" height="44.1671" transform="rotate(-45 31.231 250.477)" stroke="#937A5C" stroke-width="1.46395"/>
<path d="M62.4618 250.477L46.8464 266.093L62.4618 281.708L78.0773 266.093L62.4618 250.477ZM62.4618 250.477L62.4618 219.34" stroke="#937A5C" stroke-width="1.46395"/>
<rect x="93.6926" y="250.477" width="44.1671" height="44.1671" transform="rotate(-45 93.6926 250.477)" stroke="#937A5C" stroke-width="1.46395"/>
<path d="M124.923 250.477L109.308 266.093L124.923 281.708L140.539 266.093L124.923 250.477ZM124.923 250.477L124.923 219.34" stroke="#937A5C" stroke-width="1.46395"/>
<rect x="156.154" y="250.477" width="44.1671" height="44.1671" transform="rotate(-45 156.154 250.477)" stroke="#937A5C" stroke-width="1.46395"/>
<path d="M187.385 250.477L171.77 266.093L187.385 281.708L203.001 266.093L187.385 250.477ZM187.385 250.477L187.385 219.34" stroke="#937A5C" stroke-width="1.46395"/>
<rect x="218.616" y="250.477" width="44.1671" height="44.1671" transform="rotate(-45 218.616 250.477)" stroke="#937A5C" stroke-width="1.46395"/>
<path d="M234.231 266.093L249.847 250.477L265.462 266.093L249.847 281.708L234.231 266.093Z" stroke="#937A5C" stroke-width="1.46395"/>
<rect x="-31.2308" y="250.477" width="44.1671" height="44.1671" transform="rotate(-45 -31.2308 250.477)" stroke="#937A5C" stroke-width="1.46395"/>
<path d="M-15.6155 266.093L-4.53572e-05 250.477L15.6154 266.093L-4.27246e-05 281.708L-15.6155 266.093Z" stroke="#937A5C" stroke-width="1.46395"/>
<rect x="31.231" y="312.939" width="44.1671" height="44.1671" transform="rotate(-45 31.231 312.939)" stroke="#937A5C" stroke-width="1.46395"/>
<path d="M62.4618 312.939L46.8464 328.555L62.4618 344.17L78.0773 328.555L62.4618 312.939ZM62.4618 312.939L62.4618 281.802" stroke="#937A5C" stroke-width="1.46395"/>
<rect x="93.6926" y="312.939" width="44.1671" height="44.1671" transform="rotate(-45 93.6926 312.939)" stroke="#937A5C" stroke-width="1.46395"/>
<path d="M124.923 312.939L109.308 328.555L124.923 344.17L140.539 328.555L124.923 312.939ZM124.923 312.939L124.923 281.802" stroke="#937A5C" stroke-width="1.46395"/>
<rect x="156.154" y="312.939" width="44.1671" height="44.1671" transform="rotate(-45 156.154 312.939)" stroke="#937A5C" stroke-width="1.46395"/>
<path d="M187.385 312.939L171.77 328.555L187.385 344.17L203.001 328.555L187.385 312.939ZM187.385 312.939L187.385 281.802" stroke="#937A5C" stroke-width="1.46395"/>
<rect x="218.616" y="312.939" width="44.1671" height="44.1671" transform="rotate(-45 218.616 312.939)" stroke="#937A5C" stroke-width="1.46395"/>
<path d="M234.231 328.554L249.847 312.939L265.462 328.554L249.847 344.17L234.231 328.554Z" stroke="#937A5C" stroke-width="1.46395"/>
<rect x="-31.2308" y="312.939" width="44.1671" height="44.1671" transform="rotate(-45 -31.2308 312.939)" stroke="#937A5C" stroke-width="1.46395"/>
<path d="M-15.6155 328.554L-4.53572e-05 312.939L15.6154 328.554L-4.27246e-05 344.17L-15.6155 328.554Z" stroke="#937A5C" stroke-width="1.46395"/>
<rect x="31.231" y="375.401" width="44.1671" height="44.1671" transform="rotate(-45 31.231 375.401)" stroke="#937A5C" stroke-width="1.46395"/>
<path d="M62.4618 375.401L46.8464 391.016L62.4618 406.632L78.0773 391.016L62.4618 375.401ZM62.4618 375.401L62.4618 344.263" stroke="#937A5C" stroke-width="1.46395"/>
<rect x="93.6926" y="375.401" width="44.1671" height="44.1671" transform="rotate(-45 93.6926 375.401)" stroke="#937A5C" stroke-width="1.46395"/>
<path d="M124.923 375.401L109.308 391.016L124.923 406.632L140.539 391.016L124.923 375.401ZM124.923 375.401L124.923 344.263" stroke="#937A5C" stroke-width="1.46395"/>
<rect x="156.154" y="375.401" width="44.1671" height="44.1671" transform="rotate(-45 156.154 375.401)" stroke="#937A5C" stroke-width="1.46395"/>
<path d="M187.385 375.401L171.77 391.016L187.385 406.632L203.001 391.016L187.385 375.401ZM187.385 375.401L187.385 344.263" stroke="#937A5C" stroke-width="1.46395"/>
<rect x="218.616" y="375.401" width="44.1671" height="44.1671" transform="rotate(-45 218.616 375.401)" stroke="#937A5C" stroke-width="1.46395"/>
<path d="M234.231 391.016L249.847 375.401L265.462 391.016L249.847 406.632L234.231 391.016Z" stroke="#937A5C" stroke-width="1.46395"/>
<rect x="-31.2308" y="375.401" width="44.1671" height="44.1671" transform="rotate(-45 -31.2308 375.401)" stroke="#937A5C" stroke-width="1.46395"/>
<path d="M-15.6155 391.016L-4.53572e-05 375.401L15.6154 391.016L-4.27246e-05 406.632L-15.6155 391.016Z" stroke="#937A5C" stroke-width="1.46395"/>
<rect x="31.231" y="437.863" width="44.1671" height="44.1671" transform="rotate(-45 31.231 437.863)" stroke="#937A5C" stroke-width="1.46395"/>
<path d="M62.4618 437.863L46.8464 453.478L62.4618 469.093L78.0773 453.478L62.4618 437.863ZM62.4618 437.863L62.4618 406.725" stroke="#937A5C" stroke-width="1.46395"/>
<rect x="93.6926" y="437.863" width="44.1671" height="44.1671" transform="rotate(-45 93.6926 437.863)" stroke="#937A5C" stroke-width="1.46395"/>
<path d="M124.923 437.863L109.308 453.478L124.923 469.093L140.539 453.478L124.923 437.863ZM124.923 437.863L124.923 406.725" stroke="#937A5C" stroke-width="1.46395"/>
<rect x="156.154" y="437.863" width="44.1671" height="44.1671" transform="rotate(-45 156.154 437.863)" stroke="#937A5C" stroke-width="1.46395"/>
<path d="M187.385 437.863L171.77 453.478L187.385 469.093L203.001 453.478L187.385 437.863ZM187.385 437.863L187.385 406.725" stroke="#937A5C" stroke-width="1.46395"/>
<rect x="218.616" y="437.863" width="44.1671" height="44.1671" transform="rotate(-45 218.616 437.863)" stroke="#937A5C" stroke-width="1.46395"/>
<path d="M234.231 453.478L249.847 437.863L265.462 453.478L249.847 469.093L234.231 453.478Z" stroke="#937A5C" stroke-width="1.46395"/>
<rect x="-31.2308" y="437.863" width="44.1671" height="44.1671" transform="rotate(-45 -31.2308 437.863)" stroke="#937A5C" stroke-width="1.46395"/>
<path d="M-15.6155 453.478L-4.53572e-05 437.863L15.6154 453.478L-4.27246e-05 469.093L-15.6155 453.478Z" stroke="#937A5C" stroke-width="1.46395"/>
<rect x="31.231" y="500.324" width="44.1671" height="44.1671" transform="rotate(-45 31.231 500.324)" stroke="#937A5C" stroke-width="1.46395"/>
<path d="M62.4618 500.324L46.8464 515.94L62.4618 531.555L78.0773 515.94L62.4618 500.324ZM62.4618 500.324L62.4618 469.187" stroke="#937A5C" stroke-width="1.46395"/>
<rect x="93.6926" y="500.324" width="44.1671" height="44.1671" transform="rotate(-45 93.6926 500.324)" stroke="#937A5C" stroke-width="1.46395"/>
<path d="M124.923 500.324L109.308 515.94L124.923 531.555L140.539 515.94L124.923 500.324ZM124.923 500.324L124.923 469.187" stroke="#937A5C" stroke-width="1.46395"/>
<rect x="156.154" y="500.324" width="44.1671" height="44.1671" transform="rotate(-45 156.154 500.324)" stroke="#937A5C" stroke-width="1.46395"/>
<path d="M187.385 500.324L171.77 515.94L187.385 531.555L203.001 515.94L187.385 500.324ZM187.385 500.324L187.385 469.187" stroke="#937A5C" stroke-width="1.46395"/>
<rect x="218.616" y="500.324" width="44.1671" height="44.1671" transform="rotate(-45 218.616 500.324)" stroke="#937A5C" stroke-width="1.46395"/>
<rect x="-31.2308" y="500.324" width="44.1671" height="44.1671" transform="rotate(-45 -31.2308 500.324)" stroke="#937A5C" stroke-width="1.46395"/>
</g>
<defs>
<clipPath id="clip0_385_25757">
<rect width="249.847" height="468.463" fill="white" transform="translate(0 0.630371)"/>
</clipPath>
</defs>
</svg>
