<svg width="320" height="601" viewBox="0 0 320 601" fill="none" xmlns="http://www.w3.org/2000/svg">
<g clip-path="url(#clip0_409_14567)">
<rect y="40.4424" width="56.432" height="56.432" transform="rotate(-45 0 40.4424)" stroke="#937A5C" stroke-width="1.87047"/>
<path d="M39.9034 40.4426L19.9517 60.3943L39.9034 80.346L59.8551 60.3943L39.9034 40.4426ZM39.9034 40.4426L39.9034 0.658368" stroke="#937A5C" stroke-width="1.87047"/>
<rect x="79.8066" y="40.4424" width="56.432" height="56.432" transform="rotate(-45 79.8066 40.4424)" stroke="#937A5C" stroke-width="1.87047"/>
<path d="M119.711 40.4426L99.7588 60.3943L119.711 80.346L139.662 60.3943L119.711 40.4426ZM119.711 40.4426L119.711 0.658368" stroke="#937A5C" stroke-width="1.87047"/>
<rect x="159.614" y="40.4424" width="56.432" height="56.432" transform="rotate(-45 159.614 40.4424)" stroke="#937A5C" stroke-width="1.87047"/>
<path d="M199.517 40.4426L179.565 60.3943L199.517 80.346L219.469 60.3943L199.517 40.4426ZM199.517 40.4426L199.517 0.658368" stroke="#937A5C" stroke-width="1.87047"/>
<rect x="239.42" y="40.4424" width="56.432" height="56.432" transform="rotate(-45 239.42 40.4424)" stroke="#937A5C" stroke-width="1.87047"/>
<path d="M279.324 40.4426L259.372 60.3943L279.324 80.346L299.276 60.3943L279.324 40.4426ZM279.324 40.4426L279.324 0.658368" stroke="#937A5C" stroke-width="1.87047"/>
<rect y="120.249" width="56.432" height="56.432" transform="rotate(-45 0 120.249)" stroke="#937A5C" stroke-width="1.87047"/>
<path d="M39.9034 120.249L19.9517 140.201L39.9034 160.153L59.8551 140.201L39.9034 120.249ZM39.9034 120.249L39.9034 80.4653" stroke="#937A5C" stroke-width="1.87047"/>
<rect x="79.8066" y="120.249" width="56.432" height="56.432" transform="rotate(-45 79.8066 120.249)" stroke="#937A5C" stroke-width="1.87047"/>
<path d="M119.711 120.249L99.7588 140.201L119.711 160.153L139.662 140.201L119.711 120.249ZM119.711 120.249L119.711 80.4653" stroke="#937A5C" stroke-width="1.87047"/>
<rect x="159.614" y="120.249" width="56.432" height="56.432" transform="rotate(-45 159.614 120.249)" stroke="#937A5C" stroke-width="1.87047"/>
<path d="M199.517 120.249L179.565 140.201L199.517 160.153L219.469 140.201L199.517 120.249ZM199.517 120.249L199.517 80.4653" stroke="#937A5C" stroke-width="1.87047"/>
<rect x="239.42" y="120.249" width="56.432" height="56.432" transform="rotate(-45 239.42 120.249)" stroke="#937A5C" stroke-width="1.87047"/>
<path d="M279.324 120.249L259.372 140.201L279.324 160.153L299.276 140.201L279.324 120.249ZM279.324 120.249L279.324 80.4653" stroke="#937A5C" stroke-width="1.87047"/>
<rect y="200.056" width="56.432" height="56.432" transform="rotate(-45 0 200.056)" stroke="#937A5C" stroke-width="1.87047"/>
<path d="M39.9034 200.056L19.9517 220.008L39.9034 239.96L59.8551 220.008L39.9034 200.056ZM39.9034 200.056L39.9034 160.272" stroke="#937A5C" stroke-width="1.87047"/>
<rect x="79.8066" y="200.056" width="56.432" height="56.432" transform="rotate(-45 79.8066 200.056)" stroke="#937A5C" stroke-width="1.87047"/>
<path d="M119.711 200.056L99.7588 220.008L119.711 239.96L139.662 220.008L119.711 200.056ZM119.711 200.056L119.711 160.272" stroke="#937A5C" stroke-width="1.87047"/>
<rect x="159.614" y="200.056" width="56.432" height="56.432" transform="rotate(-45 159.614 200.056)" stroke="#937A5C" stroke-width="1.87047"/>
<path d="M199.517 200.056L179.565 220.008L199.517 239.96L219.469 220.008L199.517 200.056ZM199.517 200.056L199.517 160.272" stroke="#937A5C" stroke-width="1.87047"/>
<rect x="239.42" y="200.056" width="56.432" height="56.432" transform="rotate(-45 239.42 200.056)" stroke="#937A5C" stroke-width="1.87047"/>
<path d="M279.324 200.056L259.372 220.008L279.324 239.96L299.276 220.008L279.324 200.056ZM279.324 200.056L279.324 160.272" stroke="#937A5C" stroke-width="1.87047"/>
<rect y="279.863" width="56.432" height="56.432" transform="rotate(-45 0 279.863)" stroke="#937A5C" stroke-width="1.87047"/>
<path d="M39.9034 279.863L19.9517 299.815L39.9034 319.766L59.8551 299.815L39.9034 279.863ZM39.9034 279.863L39.9034 240.079" stroke="#937A5C" stroke-width="1.87047"/>
<rect x="79.8066" y="279.863" width="56.432" height="56.432" transform="rotate(-45 79.8066 279.863)" stroke="#937A5C" stroke-width="1.87047"/>
<path d="M119.711 279.863L99.7588 299.815L119.711 319.766L139.662 299.815L119.711 279.863ZM119.711 279.863L119.711 240.079" stroke="#937A5C" stroke-width="1.87047"/>
<rect x="159.614" y="279.863" width="56.432" height="56.432" transform="rotate(-45 159.614 279.863)" stroke="#937A5C" stroke-width="1.87047"/>
<path d="M199.517 279.863L179.565 299.815L199.517 319.766L219.469 299.815L199.517 279.863ZM199.517 279.863L199.517 240.079" stroke="#937A5C" stroke-width="1.87047"/>
<rect x="239.42" y="279.863" width="56.432" height="56.432" transform="rotate(-45 239.42 279.863)" stroke="#937A5C" stroke-width="1.87047"/>
<path d="M279.324 279.863L259.372 299.815L279.324 319.766L299.276 299.815L279.324 279.863ZM279.324 279.863L279.324 240.079" stroke="#937A5C" stroke-width="1.87047"/>
<rect y="359.67" width="56.432" height="56.432" transform="rotate(-45 0 359.67)" stroke="#937A5C" stroke-width="1.87047"/>
<path d="M39.9034 359.67L19.9517 379.622L39.9034 399.573L59.8551 379.622L39.9034 359.67ZM39.9034 359.67L39.9034 319.886" stroke="#937A5C" stroke-width="1.87047"/>
<rect x="79.8066" y="359.67" width="56.432" height="56.432" transform="rotate(-45 79.8066 359.67)" stroke="#937A5C" stroke-width="1.87047"/>
<path d="M119.711 359.67L99.7588 379.622L119.711 399.573L139.662 379.622L119.711 359.67ZM119.711 359.67L119.711 319.886" stroke="#937A5C" stroke-width="1.87047"/>
<rect x="159.614" y="359.67" width="56.432" height="56.432" transform="rotate(-45 159.614 359.67)" stroke="#937A5C" stroke-width="1.87047"/>
<path d="M199.517 359.67L179.565 379.622L199.517 399.573L219.469 379.622L199.517 359.67ZM199.517 359.67L199.517 319.886" stroke="#937A5C" stroke-width="1.87047"/>
<rect x="239.42" y="359.67" width="56.432" height="56.432" transform="rotate(-45 239.42 359.67)" stroke="#937A5C" stroke-width="1.87047"/>
<path d="M279.324 359.67L259.372 379.622L279.324 399.573L299.276 379.622L279.324 359.67ZM279.324 359.67L279.324 319.886" stroke="#937A5C" stroke-width="1.87047"/>
<rect y="439.477" width="56.432" height="56.432" transform="rotate(-45 0 439.477)" stroke="#937A5C" stroke-width="1.87047"/>
<path d="M39.9034 439.477L19.9517 459.429L39.9034 479.38L59.8551 459.429L39.9034 439.477ZM39.9034 439.477L39.9034 399.693" stroke="#937A5C" stroke-width="1.87047"/>
<rect x="79.8066" y="439.477" width="56.432" height="56.432" transform="rotate(-45 79.8066 439.477)" stroke="#937A5C" stroke-width="1.87047"/>
<path d="M119.711 439.477L99.7588 459.429L119.711 479.38L139.662 459.429L119.711 439.477ZM119.711 439.477L119.711 399.693" stroke="#937A5C" stroke-width="1.87047"/>
<rect x="159.614" y="439.477" width="56.432" height="56.432" transform="rotate(-45 159.614 439.477)" stroke="#937A5C" stroke-width="1.87047"/>
<path d="M199.517 439.477L179.565 459.429L199.517 479.38L219.469 459.429L199.517 439.477ZM199.517 439.477L199.517 399.693" stroke="#937A5C" stroke-width="1.87047"/>
<rect x="239.42" y="439.477" width="56.432" height="56.432" transform="rotate(-45 239.42 439.477)" stroke="#937A5C" stroke-width="1.87047"/>
<path d="M279.324 439.477L259.372 459.429L279.324 479.38L299.276 459.429L279.324 439.477ZM279.324 439.477L279.324 399.693" stroke="#937A5C" stroke-width="1.87047"/>
<rect y="519.283" width="56.432" height="56.432" transform="rotate(-45 0 519.283)" stroke="#937A5C" stroke-width="1.87047"/>
<path d="M39.9034 519.284L19.9517 539.235L39.9034 559.187L59.8551 539.235L39.9034 519.284ZM39.9034 519.284L39.9034 479.499" stroke="#937A5C" stroke-width="1.87047"/>
<rect x="79.8066" y="519.283" width="56.432" height="56.432" transform="rotate(-45 79.8066 519.283)" stroke="#937A5C" stroke-width="1.87047"/>
<path d="M119.711 519.284L99.7588 539.235L119.711 559.187L139.662 539.235L119.711 519.284ZM119.711 519.284L119.711 479.499" stroke="#937A5C" stroke-width="1.87047"/>
<rect x="159.614" y="519.283" width="56.432" height="56.432" transform="rotate(-45 159.614 519.283)" stroke="#937A5C" stroke-width="1.87047"/>
<path d="M199.517 519.284L179.565 539.235L199.517 559.187L219.469 539.235L199.517 519.284ZM199.517 519.284L199.517 479.499" stroke="#937A5C" stroke-width="1.87047"/>
<rect x="239.42" y="519.283" width="56.432" height="56.432" transform="rotate(-45 239.42 519.283)" stroke="#937A5C" stroke-width="1.87047"/>
<path d="M279.324 519.284L259.372 539.235L279.324 559.187L299.276 539.235L279.324 519.284ZM279.324 519.284L279.324 479.499" stroke="#937A5C" stroke-width="1.87047"/>
<rect y="599.09" width="56.432" height="56.432" transform="rotate(-45 0 599.09)" stroke="#937A5C" stroke-width="1.87047"/>
<path d="M39.9034 599.09L19.9517 619.042L39.9034 638.994L59.8551 619.042L39.9034 599.09ZM39.9034 599.09L39.9034 559.306" stroke="#937A5C" stroke-width="1.87047"/>
<rect x="79.8066" y="599.09" width="56.432" height="56.432" transform="rotate(-45 79.8066 599.09)" stroke="#937A5C" stroke-width="1.87047"/>
<path d="M119.711 599.09L99.7588 619.042L119.711 638.994L139.662 619.042L119.711 599.09ZM119.711 599.09L119.711 559.306" stroke="#937A5C" stroke-width="1.87047"/>
<rect x="159.614" y="599.09" width="56.432" height="56.432" transform="rotate(-45 159.614 599.09)" stroke="#937A5C" stroke-width="1.87047"/>
<path d="M199.517 599.09L179.565 619.042L199.517 638.994L219.469 619.042L199.517 599.09ZM199.517 599.09L199.517 559.306" stroke="#937A5C" stroke-width="1.87047"/>
<rect x="239.42" y="599.09" width="56.432" height="56.432" transform="rotate(-45 239.42 599.09)" stroke="#937A5C" stroke-width="1.87047"/>
<path d="M279.324 599.09L259.372 619.042L279.324 638.994L299.276 619.042L279.324 599.09ZM279.324 599.09L279.324 559.306" stroke="#937A5C" stroke-width="1.87047"/>
<rect x="39.9033" y="80.3459" width="56.432" height="56.432" transform="rotate(-45 39.9033 80.3459)" stroke="#937A5C" stroke-width="1.87047"/>
<path d="M79.8067 80.3459L59.855 100.298L79.8067 120.249L99.7584 100.298L79.8067 80.3459ZM79.8067 80.3459L79.8067 40.5617" stroke="#937A5C" stroke-width="1.87047"/>
<rect x="119.71" y="80.3459" width="56.432" height="56.432" transform="rotate(-45 119.71 80.3459)" stroke="#937A5C" stroke-width="1.87047"/>
<path d="M159.614 80.3459L139.662 100.298L159.614 120.249L179.566 100.298L159.614 80.3459ZM159.614 80.3459L159.614 40.5617" stroke="#937A5C" stroke-width="1.87047"/>
<rect x="199.517" y="80.3459" width="56.432" height="56.432" transform="rotate(-45 199.517 80.3459)" stroke="#937A5C" stroke-width="1.87047"/>
<path d="M239.42 80.3459L219.469 100.298L239.42 120.249L259.372 100.298L239.42 80.3459ZM239.42 80.3459L239.42 40.5617" stroke="#937A5C" stroke-width="1.87047"/>
<rect x="279.324" y="80.3459" width="56.432" height="56.432" transform="rotate(-45 279.324 80.3459)" stroke="#937A5C" stroke-width="1.87047"/>
<path d="M299.276 100.298L319.227 80.3459L339.179 100.298L319.227 120.249L299.276 100.298Z" stroke="#937A5C" stroke-width="1.87047"/>
<rect x="-39.9033" y="80.3459" width="56.432" height="56.432" transform="rotate(-45 -39.9033 80.3459)" stroke="#937A5C" stroke-width="1.87047"/>
<path d="M-19.9517 100.298L4.89081e-05 80.3459L19.9518 100.298L5.22718e-05 120.249L-19.9517 100.298Z" stroke="#937A5C" stroke-width="1.87047"/>
<rect x="39.9033" y="0.539062" width="56.432" height="56.432" transform="rotate(-45 39.9033 0.539062)" stroke="#937A5C" stroke-width="1.87047"/>
<path d="M79.8067 0.539046L59.855 20.4908L79.8067 40.4425L99.7584 20.4908L79.8067 0.539046ZM79.8067 0.539046L79.8067 -39.2452" stroke="#937A5C" stroke-width="1.87047"/>
<rect x="119.71" y="0.539062" width="56.432" height="56.432" transform="rotate(-45 119.71 0.539062)" stroke="#937A5C" stroke-width="1.87047"/>
<path d="M159.614 0.539046L139.662 20.4908L159.614 40.4425L179.566 20.4908L159.614 0.539046ZM159.614 0.539046L159.614 -39.2452" stroke="#937A5C" stroke-width="1.87047"/>
<rect x="199.517" y="0.539062" width="56.432" height="56.432" transform="rotate(-45 199.517 0.539062)" stroke="#937A5C" stroke-width="1.87047"/>
<path d="M239.42 0.539046L219.469 20.4908L239.42 40.4425L259.372 20.4908L239.42 0.539046ZM239.42 0.539046L239.42 -39.2452" stroke="#937A5C" stroke-width="1.87047"/>
<rect x="279.324" y="0.539062" width="56.432" height="56.432" transform="rotate(-45 279.324 0.539062)" stroke="#937A5C" stroke-width="1.87047"/>
<path d="M299.276 20.4907L319.227 0.539014L339.179 20.4907L319.227 40.4424L299.276 20.4907Z" stroke="#937A5C" stroke-width="1.87047"/>
<rect x="-39.9033" y="0.539062" width="56.432" height="56.432" transform="rotate(-45 -39.9033 0.539062)" stroke="#937A5C" stroke-width="1.87047"/>
<path d="M-19.9517 20.4907L4.89081e-05 0.539014L19.9518 20.4907L5.22718e-05 40.4424L-19.9517 20.4907Z" stroke="#937A5C" stroke-width="1.87047"/>
<rect x="39.9033" y="160.153" width="56.432" height="56.432" transform="rotate(-45 39.9033 160.153)" stroke="#937A5C" stroke-width="1.87047"/>
<path d="M79.8067 160.153L59.855 180.105L79.8067 200.056L99.7584 180.105L79.8067 160.153ZM79.8067 160.153L79.8067 120.369" stroke="#937A5C" stroke-width="1.87047"/>
<rect x="119.71" y="160.153" width="56.432" height="56.432" transform="rotate(-45 119.71 160.153)" stroke="#937A5C" stroke-width="1.87047"/>
<path d="M159.614 160.153L139.662 180.105L159.614 200.056L179.566 180.105L159.614 160.153ZM159.614 160.153L159.614 120.369" stroke="#937A5C" stroke-width="1.87047"/>
<rect x="199.517" y="160.153" width="56.432" height="56.432" transform="rotate(-45 199.517 160.153)" stroke="#937A5C" stroke-width="1.87047"/>
<path d="M239.42 160.153L219.469 180.105L239.42 200.056L259.372 180.105L239.42 160.153ZM239.42 160.153L239.42 120.369" stroke="#937A5C" stroke-width="1.87047"/>
<rect x="279.324" y="160.153" width="56.432" height="56.432" transform="rotate(-45 279.324 160.153)" stroke="#937A5C" stroke-width="1.87047"/>
<path d="M299.276 180.104L319.227 160.153L339.179 180.104L319.227 200.056L299.276 180.104Z" stroke="#937A5C" stroke-width="1.87047"/>
<rect x="-39.9033" y="160.153" width="56.432" height="56.432" transform="rotate(-45 -39.9033 160.153)" stroke="#937A5C" stroke-width="1.87047"/>
<path d="M-19.9517 180.104L4.89081e-05 160.153L19.9518 180.104L5.22718e-05 200.056L-19.9517 180.104Z" stroke="#937A5C" stroke-width="1.87047"/>
<rect x="39.9033" y="239.959" width="56.432" height="56.432" transform="rotate(-45 39.9033 239.959)" stroke="#937A5C" stroke-width="1.87047"/>
<path d="M79.8067 239.96L59.855 259.911L79.8067 279.863L99.7584 259.911L79.8067 239.96ZM79.8067 239.96L79.8067 200.175" stroke="#937A5C" stroke-width="1.87047"/>
<rect x="119.71" y="239.959" width="56.432" height="56.432" transform="rotate(-45 119.71 239.959)" stroke="#937A5C" stroke-width="1.87047"/>
<path d="M159.614 239.96L139.662 259.911L159.614 279.863L179.566 259.911L159.614 239.96ZM159.614 239.96L159.614 200.175" stroke="#937A5C" stroke-width="1.87047"/>
<rect x="199.517" y="239.959" width="56.432" height="56.432" transform="rotate(-45 199.517 239.959)" stroke="#937A5C" stroke-width="1.87047"/>
<path d="M239.42 239.96L219.469 259.911L239.42 279.863L259.372 259.911L239.42 239.96ZM239.42 239.96L239.42 200.175" stroke="#937A5C" stroke-width="1.87047"/>
<rect x="279.324" y="239.959" width="56.432" height="56.432" transform="rotate(-45 279.324 239.959)" stroke="#937A5C" stroke-width="1.87047"/>
<path d="M299.276 259.911L319.227 239.96L339.179 259.911L319.227 279.863L299.276 259.911Z" stroke="#937A5C" stroke-width="1.87047"/>
<rect x="-39.9033" y="239.959" width="56.432" height="56.432" transform="rotate(-45 -39.9033 239.959)" stroke="#937A5C" stroke-width="1.87047"/>
<path d="M-19.9517 259.911L4.89081e-05 239.96L19.9518 259.911L5.22718e-05 279.863L-19.9517 259.911Z" stroke="#937A5C" stroke-width="1.87047"/>
<rect x="39.9033" y="319.766" width="56.432" height="56.432" transform="rotate(-45 39.9033 319.766)" stroke="#937A5C" stroke-width="1.87047"/>
<path d="M79.8067 319.767L59.855 339.718L79.8067 359.67L99.7584 339.718L79.8067 319.767ZM79.8067 319.767L79.8067 279.982" stroke="#937A5C" stroke-width="1.87047"/>
<rect x="119.71" y="319.766" width="56.432" height="56.432" transform="rotate(-45 119.71 319.766)" stroke="#937A5C" stroke-width="1.87047"/>
<path d="M159.614 319.767L139.662 339.718L159.614 359.67L179.566 339.718L159.614 319.767ZM159.614 319.767L159.614 279.982" stroke="#937A5C" stroke-width="1.87047"/>
<rect x="199.517" y="319.766" width="56.432" height="56.432" transform="rotate(-45 199.517 319.766)" stroke="#937A5C" stroke-width="1.87047"/>
<path d="M239.42 319.767L219.469 339.718L239.42 359.67L259.372 339.718L239.42 319.767ZM239.42 319.767L239.42 279.982" stroke="#937A5C" stroke-width="1.87047"/>
<rect x="279.324" y="319.766" width="56.432" height="56.432" transform="rotate(-45 279.324 319.766)" stroke="#937A5C" stroke-width="1.87047"/>
<path d="M299.276 339.718L319.227 319.766L339.179 339.718L319.227 359.67L299.276 339.718Z" stroke="#937A5C" stroke-width="1.87047"/>
<rect x="-39.9033" y="319.766" width="56.432" height="56.432" transform="rotate(-45 -39.9033 319.766)" stroke="#937A5C" stroke-width="1.87047"/>
<path d="M-19.9517 339.718L4.89081e-05 319.766L19.9518 339.718L5.22718e-05 359.67L-19.9517 339.718Z" stroke="#937A5C" stroke-width="1.87047"/>
<rect x="39.9033" y="399.573" width="56.432" height="56.432" transform="rotate(-45 39.9033 399.573)" stroke="#937A5C" stroke-width="1.87047"/>
<path d="M79.8067 399.573L59.855 419.525L79.8067 439.477L99.7584 419.525L79.8067 399.573ZM79.8067 399.573L79.8067 359.789" stroke="#937A5C" stroke-width="1.87047"/>
<rect x="119.71" y="399.573" width="56.432" height="56.432" transform="rotate(-45 119.71 399.573)" stroke="#937A5C" stroke-width="1.87047"/>
<path d="M159.614 399.573L139.662 419.525L159.614 439.477L179.566 419.525L159.614 399.573ZM159.614 399.573L159.614 359.789" stroke="#937A5C" stroke-width="1.87047"/>
<rect x="199.517" y="399.573" width="56.432" height="56.432" transform="rotate(-45 199.517 399.573)" stroke="#937A5C" stroke-width="1.87047"/>
<path d="M239.42 399.573L219.469 419.525L239.42 439.477L259.372 419.525L239.42 399.573ZM239.42 399.573L239.42 359.789" stroke="#937A5C" stroke-width="1.87047"/>
<rect x="279.324" y="399.573" width="56.432" height="56.432" transform="rotate(-45 279.324 399.573)" stroke="#937A5C" stroke-width="1.87047"/>
<path d="M299.276 419.525L319.227 399.573L339.179 419.525L319.227 439.477L299.276 419.525Z" stroke="#937A5C" stroke-width="1.87047"/>
<rect x="-39.9033" y="399.573" width="56.432" height="56.432" transform="rotate(-45 -39.9033 399.573)" stroke="#937A5C" stroke-width="1.87047"/>
<path d="M-19.9517 419.525L4.89081e-05 399.573L19.9518 419.525L5.22718e-05 439.477L-19.9517 419.525Z" stroke="#937A5C" stroke-width="1.87047"/>
<rect x="39.9033" y="479.38" width="56.432" height="56.432" transform="rotate(-45 39.9033 479.38)" stroke="#937A5C" stroke-width="1.87047"/>
<path d="M79.8067 479.38L59.855 499.332L79.8067 519.284L99.7584 499.332L79.8067 479.38ZM79.8067 479.38L79.8067 439.596" stroke="#937A5C" stroke-width="1.87047"/>
<rect x="119.71" y="479.38" width="56.432" height="56.432" transform="rotate(-45 119.71 479.38)" stroke="#937A5C" stroke-width="1.87047"/>
<path d="M159.614 479.38L139.662 499.332L159.614 519.284L179.566 499.332L159.614 479.38ZM159.614 479.38L159.614 439.596" stroke="#937A5C" stroke-width="1.87047"/>
<rect x="199.517" y="479.38" width="56.432" height="56.432" transform="rotate(-45 199.517 479.38)" stroke="#937A5C" stroke-width="1.87047"/>
<path d="M239.42 479.38L219.469 499.332L239.42 519.284L259.372 499.332L239.42 479.38ZM239.42 479.38L239.42 439.596" stroke="#937A5C" stroke-width="1.87047"/>
<rect x="279.324" y="479.38" width="56.432" height="56.432" transform="rotate(-45 279.324 479.38)" stroke="#937A5C" stroke-width="1.87047"/>
<path d="M299.276 499.332L319.227 479.38L339.179 499.332L319.227 519.283L299.276 499.332Z" stroke="#937A5C" stroke-width="1.87047"/>
<rect x="-39.9033" y="479.38" width="56.432" height="56.432" transform="rotate(-45 -39.9033 479.38)" stroke="#937A5C" stroke-width="1.87047"/>
<path d="M-19.9517 499.332L4.89081e-05 479.38L19.9518 499.332L5.22718e-05 519.283L-19.9517 499.332Z" stroke="#937A5C" stroke-width="1.87047"/>
<rect x="39.9033" y="559.187" width="56.432" height="56.432" transform="rotate(-45 39.9033 559.187)" stroke="#937A5C" stroke-width="1.87047"/>
<path d="M79.8067 559.187L59.855 579.139L79.8067 599.09L99.7584 579.139L79.8067 559.187ZM79.8067 559.187L79.8067 519.403" stroke="#937A5C" stroke-width="1.87047"/>
<rect x="119.71" y="559.187" width="56.432" height="56.432" transform="rotate(-45 119.71 559.187)" stroke="#937A5C" stroke-width="1.87047"/>
<path d="M159.614 559.187L139.662 579.139L159.614 599.09L179.566 579.139L159.614 559.187ZM159.614 559.187L159.614 519.403" stroke="#937A5C" stroke-width="1.87047"/>
<rect x="199.517" y="559.187" width="56.432" height="56.432" transform="rotate(-45 199.517 559.187)" stroke="#937A5C" stroke-width="1.87047"/>
<path d="M239.42 559.187L219.469 579.139L239.42 599.09L259.372 579.139L239.42 559.187ZM239.42 559.187L239.42 519.403" stroke="#937A5C" stroke-width="1.87047"/>
<rect x="279.324" y="559.187" width="56.432" height="56.432" transform="rotate(-45 279.324 559.187)" stroke="#937A5C" stroke-width="1.87047"/>
<path d="M299.276 579.139L319.227 559.187L339.179 579.139L319.227 599.09L299.276 579.139Z" stroke="#937A5C" stroke-width="1.87047"/>
<rect x="-39.9033" y="559.187" width="56.432" height="56.432" transform="rotate(-45 -39.9033 559.187)" stroke="#937A5C" stroke-width="1.87047"/>
<path d="M-19.9517 579.139L4.89081e-05 559.187L19.9518 579.139L5.22718e-05 599.09L-19.9517 579.139Z" stroke="#937A5C" stroke-width="1.87047"/>
<rect x="39.9033" y="638.994" width="56.432" height="56.432" transform="rotate(-45 39.9033 638.994)" stroke="#937A5C" stroke-width="1.87047"/>
<path d="M79.8067 638.994L59.855 658.946L79.8067 678.897L99.7584 658.946L79.8067 638.994ZM79.8067 638.994L79.8067 599.21" stroke="#937A5C" stroke-width="1.87047"/>
<rect x="119.71" y="638.994" width="56.432" height="56.432" transform="rotate(-45 119.71 638.994)" stroke="#937A5C" stroke-width="1.87047"/>
<path d="M159.614 638.994L139.662 658.946L159.614 678.897L179.566 658.946L159.614 638.994ZM159.614 638.994L159.614 599.21" stroke="#937A5C" stroke-width="1.87047"/>
<rect x="199.517" y="638.994" width="56.432" height="56.432" transform="rotate(-45 199.517 638.994)" stroke="#937A5C" stroke-width="1.87047"/>
<path d="M239.42 638.994L219.469 658.946L239.42 678.897L259.372 658.946L239.42 638.994ZM239.42 638.994L239.42 599.21" stroke="#937A5C" stroke-width="1.87047"/>
<rect x="279.324" y="638.994" width="56.432" height="56.432" transform="rotate(-45 279.324 638.994)" stroke="#937A5C" stroke-width="1.87047"/>
<rect x="-39.9033" y="638.994" width="56.432" height="56.432" transform="rotate(-45 -39.9033 638.994)" stroke="#937A5C" stroke-width="1.87047"/>
</g>
<defs>
<clipPath id="clip0_409_14567">
<rect width="319.227" height="600" fill="white" transform="translate(0 0.539062)"/>
</clipPath>
</defs>
</svg>
