<svg width="151" height="151" viewBox="0 0 151 151" fill="none" xmlns="http://www.w3.org/2000/svg">
<path d="M0.0507812 0.778809H150.051V150.779H0.0507812V0.778809Z" fill="#0F1D22"/>
<path d="M61.0313 15.8039C62.4073 16.5719 63.5273 17.6119 64.3913 18.9239C65.2873 20.2359 65.7353 21.7079 65.7353 23.3399C65.7353 24.9719 64.7113 26.8439 62.6633 28.9559C60.6153 31.0679 58.1193 32.8759 55.1753 34.3799C52.2633 35.8519 49.7193 36.5879 47.5433 36.5879C45.3993 36.5879 43.8473 35.6919 42.8873 33.8999C37.3833 41.2919 34.2793 45.7719 33.5753 47.3399C33.6073 47.4999 33.6233 47.7239 33.6233 48.0119C33.6233 48.3319 33.4473 48.4919 33.0953 48.4919C32.7433 48.4919 32.2793 48.1879 31.7033 47.5799C31.1593 47.0039 30.8873 46.1719 30.8873 45.0839C30.8873 44.7639 30.9033 44.5079 30.9353 44.3159C31.2233 42.2039 34.1513 38.0439 39.7193 31.8359C45.3193 25.6279 49.3513 21.8519 51.8153 20.5079C52.3273 20.2519 52.7113 20.1239 52.9673 20.1239C53.2233 20.1239 53.4793 20.2039 53.7353 20.3639C54.0233 20.5239 54.1673 20.7159 54.1673 20.9399C54.1673 21.1639 54.1033 21.3399 53.9753 21.4679C51.5753 23.9639 50.1353 25.4839 49.6553 26.0279L43.9433 32.6519C43.8793 32.7479 43.8473 32.8439 43.8473 32.9399C43.8473 33.1639 43.9913 33.2759 44.2793 33.2759C45.5593 33.2759 47.2873 32.9079 49.4633 32.1719C51.6713 31.4359 53.8473 30.5239 55.9913 29.4359C58.1353 28.3159 59.9913 27.0199 61.5593 25.5479C63.1273 24.0439 63.9113 22.6519 63.9113 21.3719C63.9113 20.3159 62.9033 19.5319 60.8873 19.0199C58.8713 18.5079 56.6953 18.2519 54.3593 18.2519C52.0553 18.2519 49.5593 18.5879 46.8713 19.2599C44.1833 19.8999 41.8313 20.6999 39.8153 21.6599C37.8313 22.6199 36.0393 23.6279 34.4393 24.6839C32.8393 25.7079 31.6233 26.6199 30.7913 27.4199C29.9913 28.1879 29.5913 28.6999 29.5913 28.9559C29.5913 29.1799 29.7033 29.2919 29.9273 29.2919C30.1513 29.2919 30.7593 29.1319 31.7513 28.8119C34.9513 27.7559 38.0873 26.3319 41.1593 24.5399C41.3833 24.4119 41.5273 24.3479 41.5913 24.3479C41.6873 24.3479 41.7353 24.3959 41.7353 24.4919C41.7353 24.5559 41.5273 24.8599 41.1113 25.4039C40.7273 25.9159 40.1833 26.5559 39.4793 27.3239C38.7753 28.0599 38.0073 28.7799 37.1753 29.4839C36.3433 30.1879 35.3993 30.7959 34.3433 31.3079C33.3193 31.7879 32.3113 32.0279 31.3193 32.0279C30.3593 32.0279 29.3993 31.6439 28.4393 30.8759C27.5113 30.0759 27.0473 29.0039 27.0473 27.6599C27.0473 26.2839 27.7193 24.7959 29.0633 23.1959C30.4073 21.5959 32.1673 20.0759 34.3433 18.6359C36.5513 17.1959 39.2873 15.9799 42.5513 14.9879C45.8153 13.9959 48.9993 13.4999 52.1033 13.4999C55.2073 13.4999 58.1833 14.2679 61.0313 15.8039ZM72.7973 22.7639C73.1173 22.7639 73.3253 22.8279 73.4213 22.9559C73.8693 23.4999 74.0933 23.9479 74.0933 24.2999C74.0933 24.6199 73.9973 24.9079 73.8053 25.1639C73.6133 25.3879 73.3733 25.6599 73.0853 25.9799C72.8293 26.2679 72.2853 26.6839 71.4533 27.2279C70.6533 27.7399 69.8693 27.9959 69.1013 27.9959C68.5253 27.8999 68.2373 27.5479 68.2373 26.9399C68.2373 25.9799 68.8133 25.0519 69.9653 24.1559C71.1173 23.2279 72.0613 22.7639 72.7973 22.7639ZM61.2773 41.6759C61.0213 42.1239 60.8933 42.5239 60.8933 42.8759C60.8933 43.2279 61.0853 43.4039 61.4693 43.4039C61.6933 43.4039 62.0773 43.3079 62.6213 43.1159C68.6053 39.9799 74.4613 36.2839 80.1893 32.0279C80.4773 32.2519 80.6213 32.5239 80.6213 32.8439C80.6213 33.1639 80.4613 33.4679 80.1413 33.7559C79.8213 34.0439 79.3573 34.4599 78.7493 35.0039C78.1733 35.5479 77.0533 36.5239 75.3893 37.9319C73.7253 39.3399 72.1733 40.6199 70.7333 41.7719C66.9573 44.8119 64.1733 46.6039 62.3813 47.1479C61.8053 47.3079 61.1813 47.3879 60.5093 47.3879C58.0453 47.3879 56.8133 46.0759 56.8133 43.4519C56.8133 42.4279 57.3733 40.9719 58.4933 39.0839C59.6133 37.1639 60.7653 35.4839 61.9493 34.0439C63.1333 32.5719 63.9173 31.7559 64.3013 31.5959C64.8773 31.2439 65.5013 31.0679 66.1733 31.0679C66.8453 31.0679 67.4853 31.1959 68.0933 31.4519C68.2853 31.5479 68.3813 31.6759 68.3813 31.8359C68.3813 31.9959 68.2213 32.2359 67.9013 32.5559C67.6133 32.8759 67.1493 33.3719 66.5093 34.0439C65.9013 34.7159 64.9733 35.8839 63.7253 37.5479C62.5093 39.1799 61.6933 40.5559 61.2773 41.6759ZM80.8519 30.6359C81.1079 30.6359 81.5239 30.7639 82.0999 31.0199C82.7079 31.2759 83.0119 31.5639 83.0119 31.8839C83.0119 32.1079 82.9319 32.3319 82.7719 32.5559L79.1719 37.5479C78.7559 38.0599 78.5479 38.3479 78.5479 38.4119C78.5479 38.4759 78.5639 38.5079 78.5959 38.5079L78.8359 38.3639C82.5479 35.7719 85.6039 33.4999 88.0039 31.5479C88.4519 31.2279 88.8199 31.0679 89.1079 31.0679C89.4279 31.0679 89.6359 31.0999 89.7319 31.1639L91.0759 31.5479C91.3959 31.7079 91.5559 31.9159 91.5559 32.1719C91.5559 32.4279 91.4919 32.6359 91.3639 32.7959C90.7559 33.4679 90.0519 34.2359 89.2519 35.0999C88.4839 35.9319 87.9079 36.5719 87.5239 37.0199C87.1399 37.4359 86.7079 37.9159 86.2279 38.4599C85.7479 39.0039 85.3959 39.4199 85.1719 39.7079C84.9799 39.9959 84.7559 40.3319 84.4999 40.7159C84.2439 41.0679 84.0679 41.3719 83.9719 41.6279C83.7799 42.3639 83.6839 43.0039 83.6839 43.5479C83.6839 43.8359 83.8599 43.9799 84.2119 43.9799C84.5959 43.9799 85.2679 43.7559 86.2279 43.3079C87.2199 42.8599 88.3879 42.1719 89.7319 41.2439C91.1079 40.3159 92.9159 39.0039 95.1559 37.3079C97.4279 35.5799 99.4119 34.1239 101.108 32.9399C101.396 33.1639 101.54 33.4359 101.54 33.7559C101.54 34.0759 101.396 34.3639 101.108 34.6199C100.084 35.6119 98.7879 36.8599 97.2199 38.3639C95.6519 39.8359 93.2519 41.8199 90.0199 44.3159C86.8199 46.8119 84.5799 48.0599 83.2999 48.0599C80.8359 48.0599 79.6039 46.7479 79.6039 44.1239C79.6039 43.1319 79.9879 42.0919 80.7559 41.0039L82.8199 38.1719C83.0119 37.8839 83.1079 37.7239 83.1079 37.6919C83.1079 37.6279 83.0119 37.6759 82.8199 37.8359C77.2519 42.4759 73.6999 45.1959 72.1639 45.9959C71.9079 46.1559 71.5879 46.2359 71.2039 46.2359C70.1479 46.2359 69.6199 45.7559 69.6199 44.7959C69.6199 44.4759 69.6999 44.1879 69.8599 43.9319C72.2279 41.7559 73.8919 39.9799 74.8519 38.6039C75.6199 37.8359 76.4199 36.7639 77.2519 35.3879C78.1159 34.0119 78.8359 32.8759 79.4119 31.9799C80.0199 31.0839 80.4999 30.6359 80.8519 30.6359ZM107.298 32.0279C106.466 32.0279 105.058 32.8919 103.074 34.6199C101.09 36.3159 100.098 37.3559 100.098 37.7399C100.098 37.8039 100.146 37.8359 100.242 37.8359C100.946 37.8359 102.338 37.0519 104.418 35.4839C106.53 33.9159 107.586 32.8439 107.586 32.2679C107.586 32.1079 107.49 32.0279 107.298 32.0279ZM97.074 47.3879C94.61 47.3879 93.378 45.8839 93.378 42.8759C93.378 40.9879 94.194 38.9879 95.826 36.8759C97.49 34.7319 99.442 32.9879 101.682 31.6439C103.922 30.2679 105.906 29.5799 107.634 29.5799C108.402 29.5799 109.106 29.8839 109.746 30.4919C110.418 31.0999 110.754 31.6919 110.754 32.2679C110.754 33.3239 110.002 34.5239 108.498 35.8679C106.994 37.1799 105.41 38.2519 103.746 39.0839C102.114 39.8839 101.026 40.2839 100.482 40.2839C99.97 40.2839 99.586 40.0439 99.33 39.5639C99.202 39.4679 99.026 39.4199 98.802 39.4199C98.578 39.4199 98.21 39.8519 97.698 40.7159C97.186 41.5479 96.93 42.2359 96.93 42.7799C96.93 43.2919 97.122 43.6119 97.506 43.7399C99.938 43.7399 102.578 43.0359 105.426 41.6279C108.274 40.1879 112.21 37.6759 117.234 34.0919C117.586 33.8359 118.114 33.4519 118.818 32.9399C119.554 32.4279 119.986 32.1239 120.114 32.0279C120.402 32.2519 120.546 32.5239 120.546 32.8439C120.546 33.1639 120.402 33.4519 120.114 33.7079C118.514 35.3079 116.434 37.0999 113.874 39.0839C111.346 41.0679 108.434 42.9559 105.138 44.7479C101.842 46.5079 99.154 47.3879 97.074 47.3879ZM64.6144 67.5559C64.5504 67.7479 64.5184 67.8759 64.5184 67.9399C64.5184 69.0279 66.1184 69.7959 69.3184 70.2439C70.4384 70.3719 71.5584 70.4359 72.6784 70.4359H73.5904C74.5824 70.4359 75.2544 70.5319 75.6064 70.7239C75.9904 70.8839 76.1824 71.3319 76.1824 72.0679C76.1824 73.2519 75.7024 73.8439 74.7424 73.8439L72.0544 73.6999C70.6144 73.6999 68.5984 73.9079 66.0064 74.3239C63.4464 74.7399 60.9824 75.3639 58.6144 76.1959C56.2464 77.0279 55.0624 77.9399 55.0624 78.9319C55.0624 79.8919 56.7424 80.9799 60.1024 82.1959C63.4624 83.4119 66.8064 84.0199 70.1344 84.0199C73.4944 84.0199 76.4864 83.7159 79.1104 83.1079C81.7664 82.4679 83.7184 81.8439 84.9664 81.2359C86.2144 80.6279 86.8384 80.2119 86.8384 79.9879C86.8384 79.7639 86.2144 79.6519 84.9664 79.6519C83.7184 79.6519 82.1184 79.8119 80.1664 80.1319C78.2464 80.4519 77.0784 80.6919 76.6624 80.8519C76.2784 81.0119 75.9904 81.0919 75.7984 81.0919C75.6384 81.0919 75.5424 81.0919 75.5104 81.0919C75.5104 81.0599 75.4944 80.9639 75.4624 80.8039C77.0944 79.4279 78.9184 78.3879 80.9344 77.6839C82.9824 76.9479 84.6144 76.5799 85.8304 76.5799C88.0064 76.5799 89.0944 77.7159 89.0944 79.9879C89.0944 81.4279 88.4704 82.7239 87.2224 83.8759C86.0064 84.9959 84.4064 85.8919 82.4224 86.5639C78.3904 87.8759 74.0544 88.5319 69.4144 88.5319H68.2144C65.1424 92.7879 63.1424 95.6679 62.2144 97.1719C62.1504 97.5239 61.9584 97.6999 61.6384 97.6999C61.3184 97.6999 60.9824 97.3959 60.6304 96.7879C60.3104 96.1799 60.1504 95.5079 60.1504 94.7719C60.1504 93.3639 61.3344 91.1399 63.7024 88.0999C59.9904 87.4919 57.3664 86.3879 55.8304 84.7879C54.3264 83.1879 53.5744 81.6519 53.5744 80.1799C53.5744 78.7079 53.9424 77.4759 54.6784 76.4839C55.4464 75.4599 56.3584 74.6599 57.4144 74.0839C58.5024 73.5079 59.5744 73.0279 60.6304 72.6439C61.7184 72.2599 62.6304 71.9719 63.3664 71.7799C64.1344 71.5559 64.5184 71.4119 64.5184 71.3479L64.4224 71.0599C63.3344 69.9079 62.7904 68.8519 62.7904 67.8919C62.7904 66.8999 63.0144 65.9399 63.4624 65.0119C64.5824 62.7399 66.5664 61.0279 69.4144 59.8759C72.2624 58.6919 75.3664 57.9719 78.7264 57.7159C82.8224 53.5559 85.8944 50.8519 87.9424 49.6039C88.1984 49.4119 88.4384 49.3159 88.6624 49.3159C88.8864 49.3159 89.0624 49.3799 89.1904 49.5079C89.8944 50.0199 90.2464 50.3559 90.2464 50.5159C90.2464 50.6439 90.1984 50.7559 90.1024 50.8519C87.3824 53.5399 85.1904 55.8119 83.5264 57.6679C87.5584 57.9879 89.5744 59.4919 89.5744 62.1799C89.5744 62.5639 89.5424 62.9799 89.4784 63.4279C89.4144 63.4279 89.2864 63.3159 89.0944 63.0919C88.2624 62.2279 86.0704 61.7959 82.5184 61.7959C78.9984 61.7959 75.3184 62.3879 71.4784 63.5719C67.6384 64.7239 65.3504 66.0519 64.6144 67.5559ZM72.4015 107.692C72.4015 109.612 71.6175 111.932 70.0495 114.652C68.5135 117.372 66.5295 119.996 64.0975 122.524C61.6655 125.052 58.7215 127.212 55.2655 129.004C51.8095 130.796 48.4175 131.708 45.0895 131.74C44.8975 131.74 44.5775 131.644 44.1295 131.452C43.7135 131.292 43.3615 131.084 43.0735 130.828C42.3695 130.156 42.0175 129.164 42.0175 127.852C42.2415 126.668 42.7375 125.708 43.5055 124.972C43.7615 124.716 43.8895 124.556 43.8895 124.492H43.8415C43.7775 124.492 43.6175 124.572 43.3615 124.732L34.6735 131.212C34.0975 131.852 33.5375 132.172 32.9935 132.172C32.8335 132.172 32.6575 132.124 32.4655 132.028L31.3135 130.924C31.2175 130.86 31.1695 130.684 31.1695 130.396C31.1695 130.14 31.3295 129.708 31.6495 129.1C31.9695 128.492 32.6255 127.468 33.6175 126.028C34.6095 124.556 36.0335 122.604 37.8895 120.172C39.7775 117.74 42.2095 115.052 45.1855 112.108C48.1935 109.132 51.3775 106.396 54.7375 103.9C55.4095 103.26 56.0495 102.94 56.6575 102.94C56.8175 102.94 57.0895 103.052 57.4735 103.276C57.9855 103.532 58.2415 103.788 58.2415 104.044C58.2415 104.3 58.1615 104.492 58.0015 104.62L54.6415 107.884C46.7695 116.012 41.7775 121.532 39.6655 124.444C39.4095 124.732 39.2815 124.94 39.2815 125.068C39.2815 125.164 39.3135 125.212 39.3775 125.212C39.4735 125.212 39.5695 125.164 39.6655 125.068C42.1935 123.372 44.9775 121.82 48.0175 120.412C48.2415 120.284 48.4335 120.22 48.5935 120.22C48.7855 120.22 48.9295 120.284 49.0255 120.412L49.9375 121.516C50.0655 121.708 50.1295 121.9 50.1295 122.092C50.1295 122.252 50.0655 122.38 49.9375 122.476L49.4095 123.052C47.5215 124.908 46.5455 126.092 46.4815 126.604C46.5135 126.764 46.5935 126.844 46.7215 126.844C48.6095 126.844 51.3935 125.708 55.0735 123.436C58.7535 121.164 62.1135 118.476 65.1535 115.372C68.1935 112.236 69.7135 109.644 69.7135 107.596C69.7135 106.892 69.3455 106.172 68.6095 105.436C67.9055 104.7 67.1535 104.108 66.3535 103.66C64.3695 102.604 61.9055 102.076 58.9615 102.076C56.0175 102.076 53.2015 102.412 50.5135 103.084C47.8255 103.724 45.4415 104.524 43.3615 105.484C41.3135 106.444 39.4415 107.468 37.7455 108.556C36.0815 109.612 34.8015 110.588 33.9055 111.484C33.0095 112.348 32.5615 112.988 32.5615 113.404C32.5615 113.5 32.6095 113.548 32.7055 113.548C33.6975 113.548 35.5695 112.86 38.3215 111.484C41.1055 110.108 42.9455 108.988 43.8415 108.124C44.6415 107.548 45.1535 107.26 45.3775 107.26C45.5055 107.26 45.5695 107.388 45.5695 107.644C45.5695 107.868 45.3615 108.284 44.9455 108.892C44.5295 109.5 43.9215 110.236 43.1215 111.1C42.3215 111.932 41.4415 112.764 40.4815 113.596C39.5215 114.396 38.4175 115.084 37.1695 115.66C35.9215 116.236 34.8175 116.524 33.8575 116.524C32.8975 116.524 31.8895 116.108 30.8335 115.276C29.7775 114.412 29.2495 113.34 29.2495 112.06C29.2495 109.532 30.8655 107.116 34.0975 104.812C37.3295 102.508 41.0735 100.732 45.3295 99.4839C49.6175 98.2359 53.2655 97.6119 56.2735 97.6119C59.2815 97.6119 61.7455 97.8999 63.6655 98.4759C65.5855 99.0519 67.0575 99.7399 68.0815 100.54C69.1375 101.34 70.0175 102.252 70.7215 103.276C71.7455 104.812 72.3055 106.284 72.4015 107.692ZM83.5551 104.764C83.8751 104.764 84.0831 104.828 84.1791 104.956C84.6271 105.5 84.8511 105.948 84.8511 106.3C84.8511 106.62 84.7551 106.908 84.5631 107.164C84.3711 107.388 84.1311 107.66 83.8431 107.98C83.5871 108.268 83.0431 108.684 82.2111 109.228C81.4111 109.74 80.6271 109.996 79.8591 109.996C79.2831 109.9 78.9951 109.548 78.9951 108.94C78.9951 107.98 79.5711 107.052 80.7231 106.156C81.8751 105.228 82.8191 104.764 83.5551 104.764ZM72.0351 123.676C71.7791 124.124 71.6511 124.524 71.6511 124.876C71.6511 125.228 71.8431 125.404 72.2271 125.404C72.4511 125.404 72.8351 125.308 73.3791 125.116C79.3631 121.98 85.2191 118.284 90.9471 114.028C91.2351 114.252 91.3791 114.524 91.3791 114.844C91.3791 115.164 91.2191 115.468 90.8991 115.756C90.5791 116.044 90.1151 116.46 89.5071 117.004C88.9311 117.548 87.8111 118.524 86.1471 119.932C84.4831 121.34 82.9311 122.62 81.4911 123.772C77.7151 126.812 74.9311 128.604 73.1391 129.148C72.5631 129.308 71.9391 129.388 71.2671 129.388C68.8031 129.388 67.5711 128.076 67.5711 125.452C67.5711 124.428 68.1311 122.972 69.2511 121.084C70.3711 119.164 71.5231 117.484 72.7071 116.044C73.8911 114.572 74.6751 113.756 75.0591 113.596C75.6351 113.244 76.2591 113.068 76.9311 113.068C77.6031 113.068 78.2431 113.196 78.8511 113.452C79.0431 113.548 79.1391 113.676 79.1391 113.836C79.1391 113.996 78.9791 114.236 78.6591 114.556C78.3711 114.876 77.9071 115.372 77.2671 116.044C76.6591 116.716 75.7311 117.884 74.4831 119.548C73.2671 121.18 72.4511 122.556 72.0351 123.676ZM91.6097 112.636C91.8657 112.636 92.2817 112.764 92.8577 113.02C93.4657 113.276 93.7697 113.564 93.7697 113.884C93.7697 114.108 93.6897 114.332 93.5297 114.556L89.9297 119.548C89.5137 120.06 89.3057 120.348 89.3057 120.412C89.3057 120.476 89.3217 120.508 89.3537 120.508L89.5937 120.364C93.3057 117.772 96.3617 115.5 98.7617 113.548C99.2097 113.228 99.5777 113.068 99.8657 113.068C100.186 113.068 100.394 113.1 100.49 113.164L101.834 113.548C102.154 113.708 102.314 113.916 102.314 114.172C102.314 114.428 102.25 114.636 102.122 114.796C101.514 115.468 100.81 116.236 100.01 117.1C99.2417 117.932 98.6657 118.572 98.2817 119.02C97.8977 119.436 97.4657 119.916 96.9857 120.46C96.5057 121.004 96.1537 121.42 95.9297 121.708C95.7377 121.996 95.5137 122.332 95.2577 122.716C95.0017 123.068 94.8257 123.372 94.7297 123.628C94.5377 124.364 94.4417 125.004 94.4417 125.548C94.4417 125.836 94.6177 125.98 94.9697 125.98C95.3537 125.98 96.0257 125.756 96.9857 125.308C97.9777 124.86 99.1457 124.172 100.49 123.244C101.866 122.316 103.674 121.004 105.914 119.308C108.186 117.58 110.17 116.124 111.866 114.94C112.154 115.164 112.298 115.436 112.298 115.756C112.298 116.076 112.154 116.364 111.866 116.62C110.842 117.612 109.546 118.86 107.978 120.364C106.41 121.836 104.01 123.82 100.778 126.316C97.5777 128.812 95.3377 130.06 94.0577 130.06C91.5937 130.06 90.3617 128.748 90.3617 126.124C90.3617 125.132 90.7457 124.092 91.5137 123.004L93.5777 120.172C93.7697 119.884 93.8657 119.724 93.8657 119.692C93.8657 119.628 93.7697 119.676 93.5777 119.836C88.0097 124.476 84.4577 127.196 82.9217 127.996C82.6657 128.156 82.3457 128.236 81.9617 128.236C80.9057 128.236 80.3777 127.756 80.3777 126.796C80.3777 126.476 80.4577 126.188 80.6177 125.932C82.9857 123.756 84.6497 121.98 85.6097 120.604C86.3777 119.836 87.1777 118.764 88.0097 117.388C88.8737 116.012 89.5937 114.876 90.1697 113.98C90.7777 113.084 91.2577 112.636 91.6097 112.636ZM118.056 114.028C117.224 114.028 115.816 114.892 113.832 116.62C111.848 118.316 110.856 119.356 110.856 119.74C110.856 119.804 110.904 119.836 111 119.836C111.704 119.836 113.096 119.052 115.176 117.484C117.288 115.916 118.344 114.844 118.344 114.268C118.344 114.108 118.248 114.028 118.056 114.028ZM107.832 129.388C105.368 129.388 104.136 127.884 104.136 124.876C104.136 122.988 104.952 120.988 106.584 118.876C108.248 116.732 110.2 114.988 112.44 113.644C114.68 112.268 116.664 111.58 118.392 111.58C119.16 111.58 119.864 111.884 120.504 112.492C121.176 113.1 121.512 113.692 121.512 114.268C121.512 115.324 120.76 116.524 119.256 117.868C117.752 119.18 116.168 120.252 114.504 121.084C112.872 121.884 111.784 122.284 111.24 122.284C110.728 122.284 110.344 122.044 110.088 121.564C109.96 121.468 109.784 121.42 109.56 121.42C109.336 121.42 108.968 121.852 108.456 122.716C107.944 123.548 107.688 124.236 107.688 124.78C107.688 125.292 107.88 125.612 108.264 125.74C110.696 125.74 113.336 125.036 116.184 123.628C119.032 122.188 122.968 119.676 127.992 116.092C128.344 115.836 128.872 115.452 129.576 114.94C130.312 114.428 130.744 114.124 130.872 114.028C131.16 114.252 131.304 114.524 131.304 114.844C131.304 115.164 131.16 115.452 130.872 115.708C129.272 117.308 127.192 119.1 124.632 121.084C122.104 123.068 119.192 124.956 115.896 126.748C112.6 128.508 109.912 129.388 107.832 129.388Z" fill="#C9AB81"/>
</svg>
