<svg width="1220" height="1221" viewBox="0 0 1220 1221" fill="none" xmlns="http://www.w3.org/2000/svg">
<g clip-path="url(#clip0_367_20649)">
<mask id="mask0_367_20649" style="mask-type:alpha" maskUnits="userSpaceOnUse" x="-1038" y="-594" width="3296" height="2408">
<g clip-path="url(#clip1_367_20649)">
<path d="M884.936 1060.39C884.936 1059.49 884.936 1018.51 884.936 1000.06L964.195 859.98L1043.45 997.799L1043.45 1058.69M925.123 1129.66C925.123 1129.66 925.495 1043.74 925.123 1007.97L964.955 941.299M1003.27 1009.1L1003.27 1127.9" stroke="#C9AB81" stroke-width="4.4653" stroke-linecap="round"/>
<path d="M841.556 981.636C840.938 980.567 839.571 980.202 838.502 980.819C837.434 981.437 837.068 982.804 837.686 983.873L841.556 981.636ZM968.191 1200.66L841.556 981.636L837.686 983.873L964.322 1202.9L968.191 1200.66Z" fill="#C9AB81"/>
<path d="M961.203 1195.67C961.203 1196.9 962.203 1197.9 963.437 1197.9C964.672 1197.9 965.672 1196.9 965.672 1195.67L961.203 1195.67ZM965.672 1195.67L965.673 1023L961.203 1023L961.203 1195.67L965.672 1195.67Z" fill="#C9AB81"/>
<path d="M963.475 1016.82L961.207 1023L965.587 1023L963.475 1016.82Z" fill="#C9AB81"/>
</g>
<g clip-path="url(#clip2_367_20649)">
<path d="M1042.06 1060.39C1042.06 1059.49 1042.06 1018.51 1042.06 1000.06L962.801 859.98L883.542 997.799L883.542 1058.69M1001.87 1129.66C1001.87 1129.66 1001.5 1043.74 1001.87 1007.97L962.041 941.299M923.73 1009.1L923.73 1127.9" stroke="#C9AB81" stroke-width="4.4653" stroke-linecap="round"/>
<path d="M1085.44 981.636C1086.06 980.567 1087.43 980.202 1088.49 980.819C1089.56 981.437 1089.93 982.804 1089.31 983.873L1085.44 981.636ZM958.805 1200.66L1085.44 981.636L1089.31 983.873L962.675 1202.9L958.805 1200.66Z" fill="#C9AB81"/>
<path d="M965.794 1195.67C965.794 1196.9 964.793 1197.9 963.559 1197.9C962.324 1197.9 961.324 1196.9 961.324 1195.67L965.794 1195.67ZM961.324 1195.67L961.324 1023L965.794 1023L965.794 1195.67L961.324 1195.67Z" fill="#C9AB81"/>
<path d="M963.521 1016.82L965.789 1023L961.409 1023L963.521 1016.82Z" fill="#C9AB81"/>
</g>
<g clip-path="url(#clip3_367_20649)">
<path d="M884.936 653.391C884.936 652.487 884.936 611.51 884.936 593.059L964.195 452.98L1043.45 590.799L1043.45 651.686M925.123 722.656C925.123 722.656 925.495 636.739 925.123 600.966L964.955 534.299M1003.27 602.096L1003.27 720.898" stroke="#C9AB81" stroke-width="4.4653" stroke-linecap="round"/>
<path d="M841.556 574.636C840.938 573.567 839.571 573.202 838.502 573.819C837.434 574.437 837.068 575.804 837.686 576.873L841.556 574.636ZM968.191 793.661L841.556 574.636L837.686 576.873L964.322 795.898L968.191 793.661Z" fill="#C9AB81"/>
<path d="M961.203 788.666C961.203 789.9 962.203 790.901 963.437 790.901C964.672 790.901 965.672 789.9 965.672 788.666L961.203 788.666ZM965.672 788.666L965.673 615.997L961.203 615.997L961.203 788.666L965.672 788.666Z" fill="#C9AB81"/>
<path d="M963.475 609.818L961.207 615.996L965.587 615.996L963.475 609.818Z" fill="#C9AB81"/>
</g>
<g clip-path="url(#clip4_367_20649)">
<path d="M1042.06 653.391C1042.06 652.487 1042.06 611.51 1042.06 593.059L962.801 452.98L883.542 590.799L883.542 651.686M1001.87 722.656C1001.87 722.656 1001.5 636.739 1001.87 600.966L962.041 534.299M923.73 602.096L923.73 720.898" stroke="#C9AB81" stroke-width="4.4653" stroke-linecap="round"/>
<path d="M1085.44 574.636C1086.06 573.567 1087.43 573.202 1088.49 573.819C1089.56 574.437 1089.93 575.804 1089.31 576.873L1085.44 574.636ZM958.805 793.661L1085.44 574.636L1089.31 576.873L962.675 795.898L958.805 793.661Z" fill="#C9AB81"/>
<path d="M965.794 788.666C965.794 789.9 964.793 790.901 963.559 790.901C962.324 790.901 961.324 789.9 961.324 788.666L965.794 788.666ZM961.324 788.666L961.324 615.997L965.794 615.997L965.794 788.666L961.324 788.666Z" fill="#C9AB81"/>
<path d="M963.521 609.818L965.789 615.996L961.409 615.996L963.521 609.818Z" fill="#C9AB81"/>
</g>
<g clip-path="url(#clip5_367_20649)">
<path d="M884.936 246.391C884.936 245.487 884.936 204.51 884.936 186.059L964.195 45.9798L1043.45 183.799L1043.45 244.686M925.123 315.656C925.123 315.656 925.495 229.739 925.123 193.966L964.955 127.299M1003.27 195.096L1003.27 313.898" stroke="#C9AB81" stroke-width="4.4653" stroke-linecap="round"/>
<path d="M841.556 167.636C840.938 166.567 839.571 166.202 838.502 166.819C837.434 167.437 837.068 168.804 837.686 169.873L841.556 167.636ZM968.191 386.661L841.556 167.636L837.686 169.873L964.322 388.898L968.191 386.661Z" fill="#C9AB81"/>
<path d="M961.203 381.666C961.203 382.9 962.203 383.901 963.437 383.901C964.672 383.901 965.672 382.9 965.672 381.666L961.203 381.666ZM965.672 381.666L965.673 208.997L961.203 208.997L961.203 381.666L965.672 381.666Z" fill="#C9AB81"/>
<path d="M963.475 202.818L961.207 208.996L965.587 208.996L963.475 202.818Z" fill="#C9AB81"/>
</g>
<g clip-path="url(#clip6_367_20649)">
<path d="M1042.06 246.391C1042.06 245.487 1042.06 204.51 1042.06 186.059L962.801 45.9798L883.542 183.799L883.542 244.686M1001.87 315.656C1001.87 315.656 1001.5 229.739 1001.87 193.966L962.041 127.299M923.73 195.096L923.73 313.898" stroke="#C9AB81" stroke-width="4.4653" stroke-linecap="round"/>
<path d="M1085.44 167.636C1086.06 166.567 1087.43 166.202 1088.49 166.819C1089.56 167.437 1089.93 168.804 1089.31 169.873L1085.44 167.636ZM958.805 386.661L1085.44 167.636L1089.31 169.873L962.675 388.898L958.805 386.661Z" fill="#C9AB81"/>
<path d="M965.794 381.666C965.794 382.9 964.793 383.901 963.559 383.901C962.324 383.901 961.324 382.9 961.324 381.666L965.794 381.666ZM961.324 381.666L961.324 208.997L965.794 208.997L965.794 381.666L961.324 381.666Z" fill="#C9AB81"/>
<path d="M963.521 202.818L965.789 208.996L961.409 208.996L963.521 202.818Z" fill="#C9AB81"/>
</g>
<g clip-path="url(#clip7_367_20649)">
<path d="M649.437 1060.39C649.437 1059.49 649.437 1018.51 649.437 1000.06L728.697 859.98L807.956 997.799L807.956 1058.69M689.625 1129.66C689.625 1129.66 689.997 1043.74 689.625 1007.97L729.457 941.299M767.768 1009.1L767.768 1127.9" stroke="#C9AB81" stroke-width="4.4653" stroke-linecap="round"/>
<path d="M606.058 981.636C605.44 980.567 604.073 980.202 603.004 980.819C601.936 981.437 601.57 982.804 602.188 983.873L606.058 981.636ZM732.693 1200.66L606.058 981.636L602.188 983.873L728.824 1202.9L732.693 1200.66Z" fill="#C9AB81"/>
<path d="M725.704 1195.67C725.704 1196.9 726.705 1197.9 727.939 1197.9C729.174 1197.9 730.174 1196.9 730.174 1195.67L725.704 1195.67ZM730.174 1195.67L730.174 1023L725.704 1023L725.704 1195.67L730.174 1195.67Z" fill="#C9AB81"/>
<path d="M727.977 1016.82L725.709 1023L730.089 1023L727.977 1016.82Z" fill="#C9AB81"/>
</g>
<g clip-path="url(#clip8_367_20649)">
<path d="M806.562 1060.39C806.562 1059.49 806.562 1018.51 806.562 1000.06L727.303 859.98L648.044 997.799L648.044 1058.69M766.375 1129.66C766.375 1129.66 766.003 1043.74 766.375 1007.97L726.543 941.299M688.232 1009.1L688.232 1127.9" stroke="#C9AB81" stroke-width="4.4653" stroke-linecap="round"/>
<path d="M849.942 981.636C850.56 980.567 851.927 980.202 852.996 980.819C854.064 981.437 854.43 982.804 853.812 983.873L849.942 981.636ZM723.307 1200.66L849.942 981.636L853.812 983.873L727.176 1202.9L723.307 1200.66Z" fill="#C9AB81"/>
<path d="M730.296 1195.67C730.296 1196.9 729.295 1197.9 728.061 1197.9C726.826 1197.9 725.826 1196.9 725.826 1195.67L730.296 1195.67ZM725.826 1195.67L725.826 1023L730.296 1023L730.296 1195.67L725.826 1195.67Z" fill="#C9AB81"/>
<path d="M728.023 1016.82L730.291 1023L725.911 1023L728.023 1016.82Z" fill="#C9AB81"/>
</g>
<g clip-path="url(#clip9_367_20649)">
<path d="M649.437 653.391C649.437 652.487 649.437 611.51 649.437 593.059L728.697 452.98L807.956 590.799L807.956 651.686M689.625 722.656C689.625 722.656 689.997 636.739 689.625 600.966L729.457 534.299M767.768 602.096L767.768 720.898" stroke="#C9AB81" stroke-width="4.4653" stroke-linecap="round"/>
<path d="M606.058 574.636C605.44 573.567 604.073 573.202 603.004 573.819C601.936 574.437 601.57 575.804 602.188 576.873L606.058 574.636ZM732.693 793.661L606.058 574.636L602.188 576.873L728.824 795.898L732.693 793.661Z" fill="#C9AB81"/>
<path d="M725.704 788.666C725.704 789.9 726.705 790.901 727.939 790.901C729.174 790.901 730.174 789.9 730.174 788.666L725.704 788.666ZM730.174 788.666L730.174 615.997L725.704 615.997L725.704 788.666L730.174 788.666Z" fill="#C9AB81"/>
<path d="M727.977 609.818L725.709 615.996L730.089 615.996L727.977 609.818Z" fill="#C9AB81"/>
</g>
<g clip-path="url(#clip10_367_20649)">
<path d="M806.562 653.391C806.562 652.487 806.562 611.51 806.562 593.059L727.303 452.98L648.044 590.799L648.044 651.686M766.375 722.656C766.375 722.656 766.003 636.739 766.375 600.966L726.543 534.299M688.232 602.096L688.232 720.898" stroke="#C9AB81" stroke-width="4.4653" stroke-linecap="round"/>
<path d="M849.942 574.636C850.56 573.567 851.927 573.202 852.996 573.819C854.064 574.437 854.43 575.804 853.812 576.873L849.942 574.636ZM723.307 793.661L849.942 574.636L853.812 576.873L727.176 795.898L723.307 793.661Z" fill="#C9AB81"/>
<path d="M730.296 788.666C730.296 789.9 729.295 790.901 728.061 790.901C726.826 790.901 725.826 789.9 725.826 788.666L730.296 788.666ZM725.826 788.666L725.826 615.997L730.296 615.997L730.296 788.666L725.826 788.666Z" fill="#C9AB81"/>
<path d="M728.023 609.818L730.291 615.996L725.911 615.996L728.023 609.818Z" fill="#C9AB81"/>
</g>
<g clip-path="url(#clip11_367_20649)">
<path d="M649.437 246.391C649.437 245.487 649.437 204.51 649.437 186.059L728.697 45.9798L807.956 183.799L807.956 244.686M689.625 315.656C689.625 315.656 689.997 229.739 689.625 193.966L729.457 127.299M767.768 195.096L767.768 313.898" stroke="#C9AB81" stroke-width="4.4653" stroke-linecap="round"/>
<path d="M606.058 167.636C605.44 166.567 604.073 166.202 603.004 166.819C601.936 167.437 601.57 168.804 602.188 169.873L606.058 167.636ZM732.693 386.661L606.058 167.636L602.188 169.873L728.824 388.898L732.693 386.661Z" fill="#C9AB81"/>
<path d="M725.704 381.666C725.704 382.9 726.705 383.901 727.939 383.901C729.174 383.901 730.174 382.9 730.174 381.666L725.704 381.666ZM730.174 381.666L730.174 208.997L725.704 208.997L725.704 381.666L730.174 381.666Z" fill="#C9AB81"/>
<path d="M727.977 202.818L725.709 208.996L730.089 208.996L727.977 202.818Z" fill="#C9AB81"/>
</g>
<g clip-path="url(#clip12_367_20649)">
<path d="M806.562 246.391C806.562 245.487 806.562 204.51 806.562 186.059L727.303 45.9798L648.044 183.799L648.044 244.686M766.375 315.656C766.375 315.656 766.003 229.739 766.375 193.966L726.543 127.299M688.232 195.096L688.232 313.898" stroke="#C9AB81" stroke-width="4.4653" stroke-linecap="round"/>
<path d="M849.942 167.636C850.56 166.567 851.927 166.202 852.996 166.819C854.064 167.437 854.43 168.804 853.812 169.873L849.942 167.636ZM723.307 386.661L849.942 167.636L853.812 169.873L727.176 388.898L723.307 386.661Z" fill="#C9AB81"/>
<path d="M730.296 381.666C730.296 382.9 729.295 383.901 728.061 383.901C726.826 383.901 725.826 382.9 725.826 381.666L730.296 381.666ZM725.826 381.666L725.826 208.997L730.296 208.997L730.296 381.666L725.826 381.666Z" fill="#C9AB81"/>
<path d="M728.023 202.818L730.291 208.996L725.911 208.996L728.023 202.818Z" fill="#C9AB81"/>
</g>
<g clip-path="url(#clip13_367_20649)">
<path d="M-60.0645 1060.39C-60.0645 1059.49 -60.0645 1018.51 -60.0645 1000.06L19.1946 859.98L98.4537 997.799L98.4537 1058.69M-19.8768 1129.66C-19.8768 1129.66 -19.5047 1043.74 -19.8768 1007.97L19.9551 941.299M58.266 1009.1L58.266 1127.9" stroke="#C9AB81" stroke-width="4.4653" stroke-linecap="round"/>
<path d="M-103.444 981.636C-104.062 980.567 -105.429 980.202 -106.498 980.819C-107.566 981.437 -107.932 982.804 -107.314 983.873L-103.444 981.636ZM23.1913 1200.66L-103.444 981.636L-107.314 983.873L19.3216 1202.9L23.1913 1200.66Z" fill="#C9AB81"/>
<path d="M16.2025 1195.67C16.2025 1196.9 17.2031 1197.9 18.4375 1197.9C19.6719 1197.9 20.6725 1196.9 20.6725 1195.67L16.2025 1195.67ZM20.6725 1195.67L20.6725 1023L16.2025 1023L16.2025 1195.67L20.6725 1195.67Z" fill="#C9AB81"/>
<path d="M18.4755 1016.82L16.207 1023L20.5866 1023L18.4755 1016.82Z" fill="#C9AB81"/>
</g>
<g clip-path="url(#clip14_367_20649)">
<path d="M97.0605 1060.39C97.0605 1059.49 97.0605 1018.51 97.0605 1000.06L17.8015 859.98L-61.4576 997.799L-61.4576 1058.69M56.8729 1129.66C56.8729 1129.66 56.5007 1043.74 56.8729 1007.97L17.041 941.299M-21.2699 1009.1L-21.2699 1127.9" stroke="#C9AB81" stroke-width="4.4653" stroke-linecap="round"/>
<path d="M140.44 981.636C141.058 980.567 142.425 980.202 143.494 980.819C144.562 981.437 144.928 982.804 144.31 983.873L140.44 981.636ZM13.8048 1200.66L140.44 981.636L144.31 983.873L17.6745 1202.9L13.8048 1200.66Z" fill="#C9AB81"/>
<path d="M20.7936 1195.67C20.7936 1196.9 19.793 1197.9 18.5586 1197.9C17.3242 1197.9 16.3236 1196.9 16.3236 1195.67L20.7936 1195.67ZM16.3236 1195.67L16.3236 1023L20.7936 1023L20.7936 1195.67L16.3236 1195.67Z" fill="#C9AB81"/>
<path d="M18.5206 1016.82L20.7891 1023L16.4094 1023L18.5206 1016.82Z" fill="#C9AB81"/>
</g>
<g clip-path="url(#clip15_367_20649)">
<path d="M-60.0645 653.391C-60.0645 652.487 -60.0645 611.51 -60.0645 593.059L19.1946 452.98L98.4537 590.799L98.4537 651.686M-19.8768 722.656C-19.8768 722.656 -19.5047 636.739 -19.8768 600.966L19.9551 534.299M58.266 602.096L58.266 720.898" stroke="#C9AB81" stroke-width="4.4653" stroke-linecap="round"/>
<path d="M-103.444 574.636C-104.062 573.567 -105.429 573.202 -106.498 573.819C-107.566 574.437 -107.932 575.804 -107.314 576.873L-103.444 574.636ZM23.1913 793.661L-103.444 574.636L-107.314 576.873L19.3216 795.898L23.1913 793.661Z" fill="#C9AB81"/>
<path d="M16.2025 788.666C16.2025 789.9 17.2031 790.901 18.4375 790.901C19.6719 790.901 20.6725 789.9 20.6725 788.666L16.2025 788.666ZM20.6725 788.666L20.6725 615.997L16.2025 615.997L16.2025 788.666L20.6725 788.666Z" fill="#C9AB81"/>
<path d="M18.4755 609.818L16.207 615.996L20.5866 615.996L18.4755 609.818Z" fill="#C9AB81"/>
</g>
<g clip-path="url(#clip16_367_20649)">
<path d="M97.0605 653.391C97.0605 652.487 97.0605 611.51 97.0605 593.059L17.8015 452.98L-61.4576 590.799L-61.4576 651.686M56.8729 722.656C56.8729 722.656 56.5007 636.739 56.8729 600.966L17.041 534.299M-21.2699 602.096L-21.2699 720.898" stroke="#C9AB81" stroke-width="4.4653" stroke-linecap="round"/>
<path d="M140.44 574.636C141.058 573.567 142.425 573.202 143.494 573.819C144.562 574.437 144.928 575.804 144.31 576.873L140.44 574.636ZM13.8048 793.661L140.44 574.636L144.31 576.873L17.6745 795.898L13.8048 793.661Z" fill="#C9AB81"/>
<path d="M20.7936 788.666C20.7936 789.9 19.793 790.901 18.5586 790.901C17.3242 790.901 16.3236 789.9 16.3236 788.666L20.7936 788.666ZM16.3236 788.666L16.3236 615.997L20.7936 615.997L20.7936 788.666L16.3236 788.666Z" fill="#C9AB81"/>
<path d="M18.5206 609.818L20.7891 615.996L16.4094 615.996L18.5206 609.818Z" fill="#C9AB81"/>
</g>
<g clip-path="url(#clip17_367_20649)">
<path d="M-60.0645 246.391C-60.0645 245.487 -60.0645 204.51 -60.0645 186.059L19.1946 45.9798L98.4537 183.799L98.4537 244.686M-19.8768 315.656C-19.8768 315.656 -19.5047 229.739 -19.8768 193.966L19.9551 127.299M58.266 195.096L58.266 313.898" stroke="#C9AB81" stroke-width="4.4653" stroke-linecap="round"/>
<path d="M-103.444 167.636C-104.062 166.567 -105.429 166.202 -106.498 166.819C-107.566 167.437 -107.932 168.804 -107.314 169.873L-103.444 167.636ZM23.1913 386.661L-103.444 167.636L-107.314 169.873L19.3216 388.898L23.1913 386.661Z" fill="#C9AB81"/>
<path d="M16.2025 381.666C16.2025 382.9 17.2031 383.901 18.4375 383.901C19.6719 383.901 20.6725 382.9 20.6725 381.666L16.2025 381.666ZM20.6725 381.666L20.6725 208.997L16.2025 208.997L16.2025 381.666L20.6725 381.666Z" fill="#C9AB81"/>
<path d="M18.4755 202.818L16.207 208.996L20.5866 208.996L18.4755 202.818Z" fill="#C9AB81"/>
</g>
<g clip-path="url(#clip18_367_20649)">
<path d="M97.0605 246.391C97.0605 245.487 97.0605 204.51 97.0605 186.059L17.8015 45.9798L-61.4576 183.799L-61.4576 244.686M56.8729 315.656C56.8729 315.656 56.5007 229.739 56.8729 193.966L17.041 127.299M-21.2699 195.096L-21.2699 313.898" stroke="#C9AB81" stroke-width="4.4653" stroke-linecap="round"/>
<path d="M140.44 167.636C141.058 166.567 142.425 166.202 143.494 166.819C144.562 167.437 144.928 168.804 144.31 169.873L140.44 167.636ZM13.8048 386.661L140.44 167.636L144.31 169.873L17.6745 388.898L13.8048 386.661Z" fill="#C9AB81"/>
<path d="M20.7936 381.666C20.7936 382.9 19.793 383.901 18.5586 383.901C17.3242 383.901 16.3236 382.9 16.3236 381.666L20.7936 381.666ZM16.3236 381.666L16.3236 208.997L20.7936 208.997L20.7936 381.666L16.3236 381.666Z" fill="#C9AB81"/>
<path d="M18.5206 202.818L20.7891 208.996L16.4094 208.996L18.5206 202.818Z" fill="#C9AB81"/>
</g>
<g clip-path="url(#clip19_367_20649)">
<path d="M1120.94 1060.39C1120.94 1059.49 1120.94 1018.51 1120.94 1000.06L1200.19 859.98L1279.45 997.799L1279.45 1058.69M1161.12 1129.66C1161.12 1129.66 1161.5 1043.74 1161.12 1007.97L1200.96 941.299M1239.27 1009.1L1239.27 1127.9" stroke="#C9AB81" stroke-width="4.4653" stroke-linecap="round"/>
<path d="M1077.56 981.636C1076.94 980.567 1075.57 980.202 1074.5 980.819C1073.43 981.437 1073.07 982.804 1073.69 983.873L1077.56 981.636ZM1204.19 1200.66L1077.56 981.636L1073.69 983.873L1200.32 1202.9L1204.19 1200.66Z" fill="#C9AB81"/>
<path d="M1197.2 1195.67C1197.2 1196.9 1198.2 1197.9 1199.44 1197.9C1200.67 1197.9 1201.67 1196.9 1201.67 1195.67L1197.2 1195.67ZM1201.67 1195.67L1201.67 1023L1197.2 1023L1197.2 1195.67L1201.67 1195.67Z" fill="#C9AB81"/>
<path d="M1199.48 1016.82L1197.21 1023L1201.59 1023L1199.48 1016.82Z" fill="#C9AB81"/>
</g>
<g clip-path="url(#clip20_367_20649)">
<path d="M1278.06 1060.39C1278.06 1059.49 1278.06 1018.51 1278.06 1000.06L1198.8 859.98L1119.54 997.799L1119.54 1058.69M1237.87 1129.66C1237.87 1129.66 1237.5 1043.74 1237.87 1007.97L1198.04 941.299M1159.73 1009.1L1159.73 1127.9" stroke="#C9AB81" stroke-width="4.4653" stroke-linecap="round"/>
<path d="M1321.44 981.636C1322.06 980.567 1323.43 980.202 1324.49 980.819C1325.56 981.437 1325.93 982.804 1325.31 983.873L1321.44 981.636ZM1194.8 1200.66L1321.44 981.636L1325.31 983.873L1198.67 1202.9L1194.8 1200.66Z" fill="#C9AB81"/>
<path d="M1201.79 1195.67C1201.79 1196.9 1200.79 1197.9 1199.56 1197.9C1198.32 1197.9 1197.32 1196.9 1197.32 1195.67L1201.79 1195.67ZM1197.32 1195.67L1197.32 1023L1201.79 1023L1201.79 1195.67L1197.32 1195.67Z" fill="#C9AB81"/>
<path d="M1199.52 1016.82L1201.79 1023L1197.41 1023L1199.52 1016.82Z" fill="#C9AB81"/>
</g>
<g clip-path="url(#clip21_367_20649)">
<path d="M1120.94 653.391C1120.94 652.487 1120.94 611.51 1120.94 593.059L1200.19 452.98L1279.45 590.799L1279.45 651.686M1161.12 722.656C1161.12 722.656 1161.5 636.739 1161.12 600.966L1200.96 534.299M1239.27 602.096L1239.27 720.898" stroke="#C9AB81" stroke-width="4.4653" stroke-linecap="round"/>
<path d="M1077.56 574.636C1076.94 573.567 1075.57 573.202 1074.5 573.819C1073.43 574.437 1073.07 575.804 1073.69 576.873L1077.56 574.636ZM1204.19 793.661L1077.56 574.636L1073.69 576.873L1200.32 795.898L1204.19 793.661Z" fill="#C9AB81"/>
<path d="M1197.2 788.666C1197.2 789.9 1198.2 790.901 1199.44 790.901C1200.67 790.901 1201.67 789.9 1201.67 788.666L1197.2 788.666ZM1201.67 788.666L1201.67 615.997L1197.2 615.997L1197.2 788.666L1201.67 788.666Z" fill="#C9AB81"/>
<path d="M1199.48 609.818L1197.21 615.996L1201.59 615.996L1199.48 609.818Z" fill="#C9AB81"/>
</g>
<g clip-path="url(#clip22_367_20649)">
<path d="M1278.06 653.391C1278.06 652.487 1278.06 611.51 1278.06 593.059L1198.8 452.98L1119.54 590.799L1119.54 651.686M1237.87 722.656C1237.87 722.656 1237.5 636.739 1237.87 600.966L1198.04 534.299M1159.73 602.096L1159.73 720.898" stroke="#C9AB81" stroke-width="4.4653" stroke-linecap="round"/>
<path d="M1321.44 574.636C1322.06 573.567 1323.43 573.202 1324.49 573.819C1325.56 574.437 1325.93 575.804 1325.31 576.873L1321.44 574.636ZM1194.8 793.661L1321.44 574.636L1325.31 576.873L1198.67 795.898L1194.8 793.661Z" fill="#C9AB81"/>
<path d="M1201.79 788.666C1201.79 789.9 1200.79 790.901 1199.56 790.901C1198.32 790.901 1197.32 789.9 1197.32 788.666L1201.79 788.666ZM1197.32 788.666L1197.32 615.997L1201.79 615.997L1201.79 788.666L1197.32 788.666Z" fill="#C9AB81"/>
<path d="M1199.52 609.818L1201.79 615.996L1197.41 615.996L1199.52 609.818Z" fill="#C9AB81"/>
</g>
<g clip-path="url(#clip23_367_20649)">
<path d="M1120.94 246.391C1120.94 245.487 1120.94 204.51 1120.94 186.059L1200.19 45.9798L1279.45 183.799L1279.45 244.686M1161.12 315.656C1161.12 315.656 1161.5 229.739 1161.12 193.966L1200.96 127.299M1239.27 195.096L1239.27 313.898" stroke="#C9AB81" stroke-width="4.4653" stroke-linecap="round"/>
<path d="M1077.56 167.636C1076.94 166.567 1075.57 166.202 1074.5 166.819C1073.43 167.437 1073.07 168.804 1073.69 169.873L1077.56 167.636ZM1204.19 386.661L1077.56 167.636L1073.69 169.873L1200.32 388.898L1204.19 386.661Z" fill="#C9AB81"/>
<path d="M1197.2 381.666C1197.2 382.9 1198.2 383.901 1199.44 383.901C1200.67 383.901 1201.67 382.9 1201.67 381.666L1197.2 381.666ZM1201.67 381.666L1201.67 208.997L1197.2 208.997L1197.2 381.666L1201.67 381.666Z" fill="#C9AB81"/>
<path d="M1199.48 202.818L1197.21 208.996L1201.59 208.996L1199.48 202.818Z" fill="#C9AB81"/>
</g>
<g clip-path="url(#clip24_367_20649)">
<path d="M1278.06 246.391C1278.06 245.487 1278.06 204.51 1278.06 186.059L1198.8 45.9798L1119.54 183.799L1119.54 244.686M1237.87 315.656C1237.87 315.656 1237.5 229.739 1237.87 193.966L1198.04 127.299M1159.73 195.096L1159.73 313.898" stroke="#C9AB81" stroke-width="4.4653" stroke-linecap="round"/>
<path d="M1321.44 167.636C1322.06 166.567 1323.43 166.202 1324.49 166.819C1325.56 167.437 1325.93 168.804 1325.31 169.873L1321.44 167.636ZM1194.8 386.661L1321.44 167.636L1325.31 169.873L1198.67 388.898L1194.8 386.661Z" fill="#C9AB81"/>
<path d="M1201.79 381.666C1201.79 382.9 1200.79 383.901 1199.56 383.901C1198.32 383.901 1197.32 382.9 1197.32 381.666L1201.79 381.666ZM1197.32 381.666L1197.32 208.997L1201.79 208.997L1201.79 381.666L1197.32 381.666Z" fill="#C9AB81"/>
<path d="M1199.52 202.818L1201.79 208.996L1197.41 208.996L1199.52 202.818Z" fill="#C9AB81"/>
</g>
<g clip-path="url(#clip25_367_20649)">
<path d="M175.936 1060.39C175.936 1059.49 175.936 1018.51 175.936 1000.06L255.195 859.98L334.454 997.799L334.454 1058.69M216.123 1129.66C216.123 1129.66 216.495 1043.74 216.123 1007.97L255.955 941.299M294.266 1009.1L294.266 1127.9" stroke="#C9AB81" stroke-width="4.4653" stroke-linecap="round"/>
<path d="M132.556 981.636C131.938 980.567 130.571 980.202 129.502 980.819C128.434 981.437 128.068 982.804 128.686 983.873L132.556 981.636ZM259.191 1200.66L132.556 981.636L128.686 983.873L255.322 1202.9L259.191 1200.66Z" fill="#C9AB81"/>
<path d="M252.203 1195.67C252.203 1196.9 253.203 1197.9 254.437 1197.9C255.672 1197.9 256.672 1196.9 256.672 1195.67L252.203 1195.67ZM256.672 1195.67L256.673 1023L252.203 1023L252.203 1195.67L256.672 1195.67Z" fill="#C9AB81"/>
<path d="M254.475 1016.82L252.207 1023L256.587 1023L254.475 1016.82Z" fill="#C9AB81"/>
</g>
<g clip-path="url(#clip26_367_20649)">
<path d="M333.061 1060.39C333.061 1059.49 333.061 1018.51 333.061 1000.06L253.801 859.98L174.542 997.799L174.542 1058.69M292.873 1129.66C292.873 1129.66 292.501 1043.74 292.873 1007.97L253.041 941.299M214.73 1009.1L214.73 1127.9" stroke="#C9AB81" stroke-width="4.4653" stroke-linecap="round"/>
<path d="M376.44 981.636C377.058 980.567 378.425 980.202 379.494 980.819C380.562 981.437 380.928 982.804 380.31 983.873L376.44 981.636ZM249.805 1200.66L376.44 981.636L380.31 983.873L253.675 1202.9L249.805 1200.66Z" fill="#C9AB81"/>
<path d="M256.794 1195.67C256.794 1196.9 255.793 1197.9 254.559 1197.9C253.324 1197.9 252.324 1196.9 252.324 1195.67L256.794 1195.67ZM252.324 1195.67L252.324 1023L256.794 1023L256.794 1195.67L252.324 1195.67Z" fill="#C9AB81"/>
<path d="M254.521 1016.82L256.789 1023L252.409 1023L254.521 1016.82Z" fill="#C9AB81"/>
</g>
<g clip-path="url(#clip27_367_20649)">
<path d="M175.936 653.391C175.936 652.487 175.936 611.51 175.936 593.059L255.195 452.98L334.454 590.799L334.454 651.686M216.123 722.656C216.123 722.656 216.495 636.739 216.123 600.966L255.955 534.299M294.266 602.096L294.266 720.898" stroke="#C9AB81" stroke-width="4.4653" stroke-linecap="round"/>
<path d="M132.556 574.636C131.938 573.567 130.571 573.202 129.502 573.819C128.434 574.437 128.068 575.804 128.686 576.873L132.556 574.636ZM259.191 793.661L132.556 574.636L128.686 576.873L255.322 795.898L259.191 793.661Z" fill="#C9AB81"/>
<path d="M252.203 788.666C252.203 789.9 253.203 790.901 254.437 790.901C255.672 790.901 256.672 789.9 256.672 788.666L252.203 788.666ZM256.672 788.666L256.673 615.997L252.203 615.997L252.203 788.666L256.672 788.666Z" fill="#C9AB81"/>
<path d="M254.475 609.818L252.207 615.996L256.587 615.996L254.475 609.818Z" fill="#C9AB81"/>
</g>
<g clip-path="url(#clip28_367_20649)">
<path d="M333.061 653.391C333.061 652.487 333.061 611.51 333.061 593.059L253.801 452.98L174.542 590.799L174.542 651.686M292.873 722.656C292.873 722.656 292.501 636.739 292.873 600.966L253.041 534.299M214.73 602.096L214.73 720.898" stroke="#C9AB81" stroke-width="4.4653" stroke-linecap="round"/>
<path d="M376.44 574.636C377.058 573.567 378.425 573.202 379.494 573.819C380.562 574.437 380.928 575.804 380.31 576.873L376.44 574.636ZM249.805 793.661L376.44 574.636L380.31 576.873L253.675 795.898L249.805 793.661Z" fill="#C9AB81"/>
<path d="M256.794 788.666C256.794 789.9 255.793 790.901 254.559 790.901C253.324 790.901 252.324 789.9 252.324 788.666L256.794 788.666ZM252.324 788.666L252.324 615.997L256.794 615.997L256.794 788.666L252.324 788.666Z" fill="#C9AB81"/>
<path d="M254.521 609.818L256.789 615.996L252.409 615.996L254.521 609.818Z" fill="#C9AB81"/>
</g>
<g clip-path="url(#clip29_367_20649)">
<path d="M175.936 246.391C175.936 245.487 175.936 204.51 175.936 186.059L255.195 45.9798L334.454 183.799L334.454 244.686M216.123 315.656C216.123 315.656 216.495 229.739 216.123 193.966L255.955 127.299M294.266 195.096L294.266 313.898" stroke="#C9AB81" stroke-width="4.4653" stroke-linecap="round"/>
<path d="M132.556 167.636C131.938 166.567 130.571 166.202 129.502 166.819C128.434 167.437 128.068 168.804 128.686 169.873L132.556 167.636ZM259.191 386.661L132.556 167.636L128.686 169.873L255.322 388.898L259.191 386.661Z" fill="#C9AB81"/>
<path d="M252.203 381.666C252.203 382.9 253.203 383.901 254.437 383.901C255.672 383.901 256.672 382.9 256.672 381.666L252.203 381.666ZM256.672 381.666L256.673 208.997L252.203 208.997L252.203 381.666L256.672 381.666Z" fill="#C9AB81"/>
<path d="M254.475 202.818L252.207 208.996L256.587 208.996L254.475 202.818Z" fill="#C9AB81"/>
</g>
<g clip-path="url(#clip30_367_20649)">
<path d="M333.061 246.391C333.061 245.487 333.061 204.51 333.061 186.059L253.801 45.9798L174.542 183.799L174.542 244.686M292.873 315.656C292.873 315.656 292.501 229.739 292.873 193.966L253.041 127.299M214.73 195.096L214.73 313.898" stroke="#C9AB81" stroke-width="4.4653" stroke-linecap="round"/>
<path d="M376.44 167.636C377.058 166.567 378.425 166.202 379.494 166.819C380.562 167.437 380.928 168.804 380.31 169.873L376.44 167.636ZM249.805 386.661L376.44 167.636L380.31 169.873L253.675 388.898L249.805 386.661Z" fill="#C9AB81"/>
<path d="M256.794 381.666C256.794 382.9 255.793 383.901 254.559 383.901C253.324 383.901 252.324 382.9 252.324 381.666L256.794 381.666ZM252.324 381.666L252.324 208.997L256.794 208.997L256.794 381.666L252.324 381.666Z" fill="#C9AB81"/>
<path d="M254.521 202.818L256.789 208.996L252.409 208.996L254.521 202.818Z" fill="#C9AB81"/>
</g>
<g clip-path="url(#clip31_367_20649)">
<path d="M413.437 1060.39C413.437 1059.49 413.437 1018.51 413.437 1000.06L492.697 859.98L571.956 997.799L571.956 1058.69M453.625 1129.66C453.625 1129.66 453.997 1043.74 453.625 1007.97L493.457 941.299M531.768 1009.1L531.768 1127.9" stroke="#C9AB81" stroke-width="4.4653" stroke-linecap="round"/>
<path d="M370.058 981.636C369.44 980.567 368.073 980.202 367.004 980.819C365.936 981.437 365.57 982.804 366.188 983.873L370.058 981.636ZM496.693 1200.66L370.058 981.636L366.188 983.873L492.824 1202.9L496.693 1200.66Z" fill="#C9AB81"/>
<path d="M489.704 1195.67C489.704 1196.9 490.705 1197.9 491.939 1197.9C493.174 1197.9 494.174 1196.9 494.174 1195.67L489.704 1195.67ZM494.174 1195.67L494.174 1023L489.704 1023L489.704 1195.67L494.174 1195.67Z" fill="#C9AB81"/>
<path d="M491.977 1016.82L489.709 1023L494.089 1023L491.977 1016.82Z" fill="#C9AB81"/>
</g>
<g clip-path="url(#clip32_367_20649)">
<path d="M570.562 1060.39C570.562 1059.49 570.562 1018.51 570.562 1000.06L491.303 859.98L412.044 997.799L412.044 1058.69M530.375 1129.66C530.375 1129.66 530.003 1043.74 530.375 1007.97L490.543 941.299M452.232 1009.1L452.232 1127.9" stroke="#C9AB81" stroke-width="4.4653" stroke-linecap="round"/>
<path d="M613.942 981.636C614.56 980.567 615.927 980.202 616.996 980.819C618.064 981.437 618.43 982.804 617.812 983.873L613.942 981.636ZM487.307 1200.66L613.942 981.636L617.812 983.873L491.176 1202.9L487.307 1200.66Z" fill="#C9AB81"/>
<path d="M494.296 1195.67C494.296 1196.9 493.295 1197.9 492.061 1197.9C490.826 1197.9 489.826 1196.9 489.826 1195.67L494.296 1195.67ZM489.826 1195.67L489.826 1023L494.296 1023L494.296 1195.67L489.826 1195.67Z" fill="#C9AB81"/>
<path d="M492.023 1016.82L494.291 1023L489.911 1023L492.023 1016.82Z" fill="#C9AB81"/>
</g>
<g clip-path="url(#clip33_367_20649)">
<path d="M413.437 653.391C413.437 652.487 413.437 611.51 413.437 593.059L492.697 452.98L571.956 590.799L571.956 651.686M453.625 722.656C453.625 722.656 453.997 636.739 453.625 600.966L493.457 534.299M531.768 602.096L531.768 720.898" stroke="#C9AB81" stroke-width="4.4653" stroke-linecap="round"/>
<path d="M370.058 574.636C369.44 573.567 368.073 573.202 367.004 573.819C365.936 574.437 365.57 575.804 366.188 576.873L370.058 574.636ZM496.693 793.661L370.058 574.636L366.188 576.873L492.824 795.898L496.693 793.661Z" fill="#C9AB81"/>
<path d="M489.704 788.666C489.704 789.9 490.705 790.901 491.939 790.901C493.174 790.901 494.174 789.9 494.174 788.666L489.704 788.666ZM494.174 788.666L494.174 615.997L489.704 615.997L489.704 788.666L494.174 788.666Z" fill="#C9AB81"/>
<path d="M491.977 609.818L489.709 615.996L494.089 615.996L491.977 609.818Z" fill="#C9AB81"/>
</g>
<g clip-path="url(#clip34_367_20649)">
<path d="M570.562 653.391C570.562 652.487 570.562 611.51 570.562 593.059L491.303 452.98L412.044 590.799L412.044 651.686M530.375 722.656C530.375 722.656 530.003 636.739 530.375 600.966L490.543 534.299M452.232 602.096L452.232 720.898" stroke="#C9AB81" stroke-width="4.4653" stroke-linecap="round"/>
<path d="M613.942 574.636C614.56 573.567 615.927 573.202 616.996 573.819C618.064 574.437 618.43 575.804 617.812 576.873L613.942 574.636ZM487.307 793.661L613.942 574.636L617.812 576.873L491.176 795.898L487.307 793.661Z" fill="#C9AB81"/>
<path d="M494.296 788.666C494.296 789.9 493.295 790.901 492.061 790.901C490.826 790.901 489.826 789.9 489.826 788.666L494.296 788.666ZM489.826 788.666L489.826 615.997L494.296 615.997L494.296 788.666L489.826 788.666Z" fill="#C9AB81"/>
<path d="M492.023 609.818L494.291 615.996L489.911 615.996L492.023 609.818Z" fill="#C9AB81"/>
</g>
<g clip-path="url(#clip35_367_20649)">
<path d="M413.437 246.391C413.437 245.487 413.437 204.51 413.437 186.059L492.697 45.9798L571.956 183.799L571.956 244.686M453.625 315.656C453.625 315.656 453.997 229.739 453.625 193.966L493.457 127.299M531.768 195.096L531.768 313.898" stroke="#C9AB81" stroke-width="4.4653" stroke-linecap="round"/>
<path d="M370.058 167.636C369.44 166.567 368.073 166.202 367.004 166.819C365.936 167.437 365.57 168.804 366.188 169.873L370.058 167.636ZM496.693 386.661L370.058 167.636L366.188 169.873L492.824 388.898L496.693 386.661Z" fill="#C9AB81"/>
<path d="M489.704 381.666C489.704 382.9 490.705 383.901 491.939 383.901C493.174 383.901 494.174 382.9 494.174 381.666L489.704 381.666ZM494.174 381.666L494.174 208.997L489.704 208.997L489.704 381.666L494.174 381.666Z" fill="#C9AB81"/>
<path d="M491.977 202.818L489.709 208.996L494.089 208.996L491.977 202.818Z" fill="#C9AB81"/>
</g>
<g clip-path="url(#clip36_367_20649)">
<path d="M570.562 246.391C570.562 245.487 570.562 204.51 570.562 186.059L491.303 45.9798L412.044 183.799L412.044 244.686M530.375 315.656C530.375 315.656 530.003 229.739 530.375 193.966L490.543 127.299M452.232 195.096L452.232 313.898" stroke="#C9AB81" stroke-width="4.4653" stroke-linecap="round"/>
<path d="M613.942 167.636C614.56 166.567 615.927 166.202 616.996 166.819C618.064 167.437 618.43 168.804 617.812 169.873L613.942 167.636ZM487.307 386.661L613.942 167.636L617.812 169.873L491.176 388.898L487.307 386.661Z" fill="#C9AB81"/>
<path d="M494.296 381.666C494.296 382.9 493.295 383.901 492.061 383.901C490.826 383.901 489.826 382.9 489.826 381.666L494.296 381.666ZM489.826 381.666L489.826 208.997L494.296 208.997L494.296 381.666L489.826 381.666Z" fill="#C9AB81"/>
<path d="M492.023 202.818L494.291 208.996L489.911 208.996L492.023 202.818Z" fill="#C9AB81"/>
</g>
<g clip-path="url(#clip37_367_20649)">
<path d="M1002.94 1263.39C1002.94 1262.49 1002.94 1221.51 1002.94 1203.06L1082.19 1062.98L1161.45 1200.8L1161.45 1261.69M1043.12 1332.66C1043.12 1332.66 1043.5 1246.74 1043.12 1210.97L1082.96 1144.3M1121.27 1212.1L1121.27 1330.9" stroke="#C9AB81" stroke-width="4.4653" stroke-linecap="round"/>
<path d="M959.556 1184.64C958.938 1183.57 957.571 1183.2 956.502 1183.82C955.434 1184.44 955.068 1185.8 955.686 1186.87L959.556 1184.64ZM1086.19 1403.66L959.556 1184.64L955.686 1186.87L1082.32 1405.9L1086.19 1403.66Z" fill="#C9AB81"/>
<path d="M1081.48 1219.82L1079.21 1226L1083.59 1226L1081.48 1219.82Z" fill="#C9AB81"/>
</g>
<g clip-path="url(#clip38_367_20649)">
<path d="M1160.06 1263.39C1160.06 1262.49 1160.06 1221.51 1160.06 1203.06L1080.8 1062.98L1001.54 1200.8L1001.54 1261.69M1119.87 1332.66C1119.87 1332.66 1119.5 1246.74 1119.87 1210.97L1080.04 1144.3M1041.73 1212.1L1041.73 1330.9" stroke="#C9AB81" stroke-width="4.4653" stroke-linecap="round"/>
<path d="M1203.44 1184.64C1204.06 1183.57 1205.43 1183.2 1206.49 1183.82C1207.56 1184.44 1207.93 1185.8 1207.31 1186.87L1203.44 1184.64ZM1076.8 1403.66L1203.44 1184.64L1207.31 1186.87L1080.67 1405.9L1076.8 1403.66Z" fill="#C9AB81"/>
<path d="M1081.52 1219.82L1083.79 1226L1079.41 1226L1081.52 1219.82Z" fill="#C9AB81"/>
</g>
<g clip-path="url(#clip39_367_20649)">
<path d="M1002.94 856.391C1002.94 855.487 1002.94 814.51 1002.94 796.059L1082.19 655.98L1161.45 793.799L1161.45 854.686M1043.12 925.656C1043.12 925.656 1043.5 839.739 1043.12 803.966L1082.96 737.299M1121.27 805.096L1121.27 923.898" stroke="#C9AB81" stroke-width="4.4653" stroke-linecap="round"/>
<path d="M959.556 777.636C958.938 776.567 957.571 776.202 956.502 776.819C955.434 777.437 955.068 778.804 955.686 779.873L959.556 777.636ZM1086.19 996.661L959.556 777.636L955.686 779.873L1082.32 998.898L1086.19 996.661Z" fill="#C9AB81"/>
<path d="M1079.2 991.666C1079.2 992.9 1080.2 993.901 1081.44 993.901C1082.67 993.901 1083.67 992.9 1083.67 991.666L1079.2 991.666ZM1083.67 991.666L1083.67 818.997L1079.2 818.997L1079.2 991.666L1083.67 991.666Z" fill="#C9AB81"/>
<path d="M1081.48 812.818L1079.21 818.996L1083.59 818.996L1081.48 812.818Z" fill="#C9AB81"/>
</g>
<g clip-path="url(#clip40_367_20649)">
<path d="M1160.06 856.391C1160.06 855.487 1160.06 814.51 1160.06 796.059L1080.8 655.98L1001.54 793.799L1001.54 854.686M1119.87 925.656C1119.87 925.656 1119.5 839.739 1119.87 803.966L1080.04 737.299M1041.73 805.096L1041.73 923.898" stroke="#C9AB81" stroke-width="4.4653" stroke-linecap="round"/>
<path d="M1203.44 777.636C1204.06 776.567 1205.43 776.202 1206.49 776.819C1207.56 777.437 1207.93 778.804 1207.31 779.873L1203.44 777.636ZM1076.8 996.661L1203.44 777.636L1207.31 779.873L1080.67 998.898L1076.8 996.661Z" fill="#C9AB81"/>
<path d="M1083.79 991.666C1083.79 992.9 1082.79 993.901 1081.56 993.901C1080.32 993.901 1079.32 992.9 1079.32 991.666L1083.79 991.666ZM1079.32 991.666L1079.32 818.997L1083.79 818.997L1083.79 991.666L1079.32 991.666Z" fill="#C9AB81"/>
<path d="M1081.52 812.818L1083.79 818.996L1079.41 818.996L1081.52 812.818Z" fill="#C9AB81"/>
</g>
<g clip-path="url(#clip41_367_20649)">
<path d="M1002.94 449.391C1002.94 448.487 1002.94 407.51 1002.94 389.059L1082.19 248.98L1161.45 386.799L1161.45 447.686M1043.12 518.656C1043.12 518.656 1043.5 432.739 1043.12 396.966L1082.96 330.299M1121.27 398.096L1121.27 516.898" stroke="#C9AB81" stroke-width="4.4653" stroke-linecap="round"/>
<path d="M959.556 370.636C958.938 369.567 957.571 369.202 956.502 369.819C955.434 370.437 955.068 371.804 955.686 372.873L959.556 370.636ZM1086.19 589.661L959.556 370.636L955.686 372.873L1082.32 591.898L1086.19 589.661Z" fill="#C9AB81"/>
<path d="M1079.2 584.666C1079.2 585.9 1080.2 586.901 1081.44 586.901C1082.67 586.901 1083.67 585.9 1083.67 584.666L1079.2 584.666ZM1083.67 584.666L1083.67 411.997L1079.2 411.997L1079.2 584.666L1083.67 584.666Z" fill="#C9AB81"/>
<path d="M1081.48 405.818L1079.21 411.996L1083.59 411.996L1081.48 405.818Z" fill="#C9AB81"/>
</g>
<g clip-path="url(#clip42_367_20649)">
<path d="M1160.06 449.391C1160.06 448.487 1160.06 407.51 1160.06 389.059L1080.8 248.98L1001.54 386.799L1001.54 447.686M1119.87 518.656C1119.87 518.656 1119.5 432.739 1119.87 396.966L1080.04 330.299M1041.73 398.096L1041.73 516.898" stroke="#C9AB81" stroke-width="4.4653" stroke-linecap="round"/>
<path d="M1203.44 370.636C1204.06 369.567 1205.43 369.202 1206.49 369.819C1207.56 370.437 1207.93 371.804 1207.31 372.873L1203.44 370.636ZM1076.8 589.661L1203.44 370.636L1207.31 372.873L1080.67 591.898L1076.8 589.661Z" fill="#C9AB81"/>
<path d="M1083.79 584.666C1083.79 585.9 1082.79 586.901 1081.56 586.901C1080.32 586.901 1079.32 585.9 1079.32 584.666L1083.79 584.666ZM1079.32 584.666L1079.32 411.997L1083.79 411.997L1083.79 584.666L1079.32 584.666Z" fill="#C9AB81"/>
<path d="M1081.52 405.818L1083.79 411.996L1079.41 411.996L1081.52 405.818Z" fill="#C9AB81"/>
</g>
<g clip-path="url(#clip43_367_20649)">
<path d="M1002.94 42.3908C1002.94 41.4871 1002.94 0.509764 1002.94 -17.9415L1082.19 -158.02L1161.45 -20.2008L1161.45 40.6856M1043.12 111.656C1043.12 111.656 1043.5 25.739 1043.12 -10.0338L1082.96 -76.7015M1121.27 -8.90413L1121.27 109.898" stroke="#C9AB81" stroke-width="4.4653" stroke-linecap="round"/>
<path d="M959.556 -36.3644C958.938 -37.433 957.571 -37.7984 956.502 -37.1806C955.434 -36.5627 955.068 -35.1956 955.686 -34.127L959.556 -36.3644ZM1086.19 182.661L959.556 -36.3644L955.686 -34.127L1082.32 184.898L1086.19 182.661Z" fill="#C9AB81"/>
<path d="M1079.2 177.666C1079.2 178.9 1080.2 179.901 1081.44 179.901C1082.67 179.901 1083.67 178.9 1083.67 177.666L1079.2 177.666ZM1083.67 177.666L1083.67 4.99697L1079.2 4.99697L1079.2 177.666L1083.67 177.666Z" fill="#C9AB81"/>
<path d="M1081.48 -1.18178L1079.21 4.99634L1083.59 4.99634L1081.48 -1.18178Z" fill="#C9AB81"/>
</g>
<g clip-path="url(#clip44_367_20649)">
<path d="M1160.06 42.3908C1160.06 41.4871 1160.06 0.509764 1160.06 -17.9415L1080.8 -158.02L1001.54 -20.2008L1001.54 40.6856M1119.87 111.656C1119.87 111.656 1119.5 25.739 1119.87 -10.0338L1080.04 -76.7015M1041.73 -8.90412L1041.73 109.898" stroke="#C9AB81" stroke-width="4.4653" stroke-linecap="round"/>
<path d="M1203.44 -36.3644C1204.06 -37.433 1205.43 -37.7984 1206.49 -37.1806C1207.56 -36.5627 1207.93 -35.1956 1207.31 -34.127L1203.44 -36.3644ZM1076.8 182.661L1203.44 -36.3644L1207.31 -34.127L1080.67 184.898L1076.8 182.661Z" fill="#C9AB81"/>
<path d="M1083.79 177.666C1083.79 178.9 1082.79 179.901 1081.56 179.901C1080.32 179.901 1079.32 178.9 1079.32 177.666L1083.79 177.666ZM1079.32 177.666L1079.32 4.99721L1083.79 4.99721L1083.79 177.666L1079.32 177.666Z" fill="#C9AB81"/>
<path d="M1081.52 -1.18178L1083.79 4.99634L1079.41 4.99634L1081.52 -1.18178Z" fill="#C9AB81"/>
</g>
<g clip-path="url(#clip45_367_20649)">
<path d="M767.437 1263.39C767.437 1262.49 767.437 1221.51 767.437 1203.06L846.697 1062.98L925.956 1200.8L925.956 1261.69M807.625 1332.66C807.625 1332.66 807.997 1246.74 807.625 1210.97L847.457 1144.3M885.768 1212.1L885.768 1330.9" stroke="#C9AB81" stroke-width="4.4653" stroke-linecap="round"/>
<path d="M724.058 1184.64C723.44 1183.57 722.073 1183.2 721.004 1183.82C719.936 1184.44 719.57 1185.8 720.188 1186.87L724.058 1184.64ZM850.693 1403.66L724.058 1184.64L720.188 1186.87L846.824 1405.9L850.693 1403.66Z" fill="#C9AB81"/>
<path d="M845.977 1219.82L843.709 1226L848.089 1226L845.977 1219.82Z" fill="#C9AB81"/>
</g>
<g clip-path="url(#clip46_367_20649)">
<path d="M924.562 1263.39C924.562 1262.49 924.562 1221.51 924.562 1203.06L845.303 1062.98L766.044 1200.8L766.044 1261.69M884.375 1332.66C884.375 1332.66 884.003 1246.74 884.375 1210.97L844.543 1144.3M806.232 1212.1L806.232 1330.9" stroke="#C9AB81" stroke-width="4.4653" stroke-linecap="round"/>
<path d="M967.942 1184.64C968.56 1183.57 969.927 1183.2 970.996 1183.82C972.064 1184.44 972.43 1185.8 971.812 1186.87L967.942 1184.64ZM841.307 1403.66L967.942 1184.64L971.812 1186.87L845.176 1405.9L841.307 1403.66Z" fill="#C9AB81"/>
<path d="M846.023 1219.82L848.291 1226L843.911 1226L846.023 1219.82Z" fill="#C9AB81"/>
</g>
<g clip-path="url(#clip47_367_20649)">
<path d="M767.437 856.391C767.437 855.487 767.437 814.51 767.437 796.059L846.697 655.98L925.956 793.799L925.956 854.686M807.625 925.656C807.625 925.656 807.997 839.739 807.625 803.966L847.457 737.299M885.768 805.096L885.768 923.898" stroke="#C9AB81" stroke-width="4.4653" stroke-linecap="round"/>
<path d="M724.058 777.636C723.44 776.567 722.073 776.202 721.004 776.819C719.936 777.437 719.57 778.804 720.188 779.873L724.058 777.636ZM850.693 996.661L724.058 777.636L720.188 779.873L846.824 998.898L850.693 996.661Z" fill="#C9AB81"/>
<path d="M843.704 991.666C843.704 992.9 844.705 993.901 845.939 993.901C847.174 993.901 848.174 992.9 848.174 991.666L843.704 991.666ZM848.174 991.666L848.174 818.997L843.704 818.997L843.704 991.666L848.174 991.666Z" fill="#C9AB81"/>
<path d="M845.977 812.818L843.709 818.996L848.089 818.996L845.977 812.818Z" fill="#C9AB81"/>
</g>
<g clip-path="url(#clip48_367_20649)">
<path d="M924.562 856.391C924.562 855.487 924.562 814.51 924.562 796.059L845.303 655.98L766.044 793.799L766.044 854.686M884.375 925.656C884.375 925.656 884.003 839.739 884.375 803.966L844.543 737.299M806.232 805.096L806.232 923.898" stroke="#C9AB81" stroke-width="4.4653" stroke-linecap="round"/>
<path d="M967.942 777.636C968.56 776.567 969.927 776.202 970.996 776.819C972.064 777.437 972.43 778.804 971.812 779.873L967.942 777.636ZM841.307 996.661L967.942 777.636L971.812 779.873L845.176 998.898L841.307 996.661Z" fill="#C9AB81"/>
<path d="M848.296 991.666C848.296 992.9 847.295 993.901 846.061 993.901C844.826 993.901 843.826 992.9 843.826 991.666L848.296 991.666ZM843.826 991.666L843.826 818.997L848.296 818.997L848.296 991.666L843.826 991.666Z" fill="#C9AB81"/>
<path d="M846.023 812.818L848.291 818.996L843.911 818.996L846.023 812.818Z" fill="#C9AB81"/>
</g>
<g clip-path="url(#clip49_367_20649)">
<path d="M767.437 449.391C767.437 448.487 767.437 407.51 767.437 389.059L846.697 248.98L925.956 386.799L925.956 447.686M807.625 518.656C807.625 518.656 807.997 432.739 807.625 396.966L847.457 330.299M885.768 398.096L885.768 516.898" stroke="#C9AB81" stroke-width="4.4653" stroke-linecap="round"/>
<path d="M724.058 370.636C723.44 369.567 722.073 369.202 721.004 369.819C719.936 370.437 719.57 371.804 720.188 372.873L724.058 370.636ZM850.693 589.661L724.058 370.636L720.188 372.873L846.824 591.898L850.693 589.661Z" fill="#C9AB81"/>
<path d="M843.704 584.666C843.704 585.9 844.705 586.901 845.939 586.901C847.174 586.901 848.174 585.9 848.174 584.666L843.704 584.666ZM848.174 584.666L848.174 411.997L843.704 411.997L843.704 584.666L848.174 584.666Z" fill="#C9AB81"/>
<path d="M845.977 405.818L843.709 411.996L848.089 411.996L845.977 405.818Z" fill="#C9AB81"/>
</g>
<g clip-path="url(#clip50_367_20649)">
<path d="M924.562 449.391C924.562 448.487 924.562 407.51 924.562 389.059L845.303 248.98L766.044 386.799L766.044 447.686M884.375 518.656C884.375 518.656 884.003 432.739 884.375 396.966L844.543 330.299M806.232 398.096L806.232 516.898" stroke="#C9AB81" stroke-width="4.4653" stroke-linecap="round"/>
<path d="M967.942 370.636C968.56 369.567 969.927 369.202 970.996 369.819C972.064 370.437 972.43 371.804 971.812 372.873L967.942 370.636ZM841.307 589.661L967.942 370.636L971.812 372.873L845.176 591.898L841.307 589.661Z" fill="#C9AB81"/>
<path d="M848.296 584.666C848.296 585.9 847.295 586.901 846.061 586.901C844.826 586.901 843.826 585.9 843.826 584.666L848.296 584.666ZM843.826 584.666L843.826 411.997L848.296 411.997L848.296 584.666L843.826 584.666Z" fill="#C9AB81"/>
<path d="M846.023 405.818L848.291 411.996L843.911 411.996L846.023 405.818Z" fill="#C9AB81"/>
</g>
<g clip-path="url(#clip51_367_20649)">
<path d="M767.437 42.3908C767.437 41.4871 767.437 0.509764 767.437 -17.9415L846.697 -158.02L925.956 -20.2008L925.956 40.6856M807.625 111.656C807.625 111.656 807.997 25.739 807.625 -10.0338L847.457 -76.7015M885.768 -8.90413L885.768 109.898" stroke="#C9AB81" stroke-width="4.4653" stroke-linecap="round"/>
<path d="M724.058 -36.3644C723.44 -37.433 722.073 -37.7984 721.004 -37.1806C719.936 -36.5627 719.57 -35.1956 720.188 -34.127L724.058 -36.3644ZM850.693 182.661L724.058 -36.3644L720.188 -34.127L846.824 184.898L850.693 182.661Z" fill="#C9AB81"/>
<path d="M843.704 177.666C843.704 178.9 844.705 179.901 845.939 179.901C847.174 179.901 848.174 178.9 848.174 177.666L843.704 177.666ZM848.174 177.666L848.174 4.99697L843.704 4.99697L843.704 177.666L848.174 177.666Z" fill="#C9AB81"/>
<path d="M845.977 -1.18178L843.709 4.99634L848.089 4.99634L845.977 -1.18178Z" fill="#C9AB81"/>
</g>
<g clip-path="url(#clip52_367_20649)">
<path d="M924.562 42.3908C924.562 41.4871 924.562 0.509764 924.562 -17.9415L845.303 -158.02L766.044 -20.2008L766.044 40.6856M884.375 111.656C884.375 111.656 884.003 25.739 884.375 -10.0338L844.543 -76.7015M806.232 -8.90412L806.232 109.898" stroke="#C9AB81" stroke-width="4.4653" stroke-linecap="round"/>
<path d="M967.942 -36.3644C968.56 -37.433 969.927 -37.7984 970.996 -37.1806C972.064 -36.5627 972.43 -35.1956 971.812 -34.127L967.942 -36.3644ZM841.307 182.661L967.942 -36.3644L971.812 -34.127L845.176 184.898L841.307 182.661Z" fill="#C9AB81"/>
<path d="M848.296 177.666C848.296 178.9 847.295 179.901 846.061 179.901C844.826 179.901 843.826 178.9 843.826 177.666L848.296 177.666ZM843.826 177.666L843.826 4.99721L848.296 4.99721L848.296 177.666L843.826 177.666Z" fill="#C9AB81"/>
<path d="M846.023 -1.18178L848.291 4.99634L843.911 4.99634L846.023 -1.18178Z" fill="#C9AB81"/>
</g>
<g clip-path="url(#clip53_367_20649)">
<path d="M1195.56 1184.64C1194.94 1183.57 1193.57 1183.2 1192.5 1183.82C1191.43 1184.44 1191.07 1185.8 1191.69 1186.87L1195.56 1184.64ZM1322.19 1403.66L1195.56 1184.64L1191.69 1186.87L1318.32 1405.9L1322.19 1403.66Z" fill="#C9AB81"/>
</g>
<g clip-path="url(#clip54_367_20649)">
<path d="M1195.56 777.636C1194.94 776.567 1193.57 776.202 1192.5 776.819C1191.43 777.437 1191.07 778.804 1191.69 779.873L1195.56 777.636ZM1322.19 996.661L1195.56 777.636L1191.69 779.873L1318.32 998.898L1322.19 996.661Z" fill="#C9AB81"/>
</g>
<g clip-path="url(#clip55_367_20649)">
<path d="M1195.56 370.636C1194.94 369.567 1193.57 369.202 1192.5 369.819C1191.43 370.437 1191.07 371.804 1191.69 372.873L1195.56 370.636ZM1322.19 589.661L1195.56 370.636L1191.69 372.873L1318.32 591.898L1322.19 589.661Z" fill="#C9AB81"/>
</g>
<g clip-path="url(#clip56_367_20649)">
<path d="M1195.56 -36.3644C1194.94 -37.433 1193.57 -37.7984 1192.5 -37.1806C1191.43 -36.5627 1191.07 -35.1956 1191.69 -34.127L1195.56 -36.3644ZM1322.19 182.661L1195.56 -36.3644L1191.69 -34.127L1318.32 184.898L1322.19 182.661Z" fill="#C9AB81"/>
</g>
<g clip-path="url(#clip57_367_20649)">
<path d="M28.1569 1184.64C28.7748 1183.57 30.1419 1183.2 31.2105 1183.82C32.2791 1184.44 32.6445 1185.8 32.0267 1186.87L28.1569 1184.64ZM-98.4784 1403.66L28.1569 1184.64L32.0267 1186.87L-94.6087 1405.9L-98.4784 1403.66Z" fill="#C9AB81"/>
</g>
<g clip-path="url(#clip58_367_20649)">
<path d="M28.1569 777.636C28.7748 776.567 30.1419 776.202 31.2105 776.819C32.2791 777.437 32.6445 778.804 32.0267 779.873L28.1569 777.636ZM-98.4784 996.661L28.1569 777.636L32.0267 779.873L-94.6087 998.898L-98.4784 996.661Z" fill="#C9AB81"/>
</g>
<g clip-path="url(#clip59_367_20649)">
<path d="M28.1569 370.636C28.7748 369.567 30.1419 369.202 31.2105 369.819C32.2791 370.437 32.6445 371.804 32.0267 372.873L28.1569 370.636ZM-98.4784 589.661L28.1569 370.636L32.0267 372.873L-94.6087 591.898L-98.4784 589.661Z" fill="#C9AB81"/>
</g>
<g clip-path="url(#clip60_367_20649)">
<path d="M28.1569 -36.3644C28.7748 -37.433 30.1419 -37.7984 31.2105 -37.1806C32.2791 -36.5627 32.6445 -35.1956 32.0267 -34.127L28.1569 -36.3644ZM-98.4784 182.661L28.1569 -36.3644L32.0267 -34.127L-94.6087 184.898L-98.4784 182.661Z" fill="#C9AB81"/>
</g>
<g clip-path="url(#clip61_367_20649)">
<path d="M57.9355 1263.39C57.9355 1262.49 57.9355 1221.51 57.9355 1203.06L137.195 1062.98L216.454 1200.8L216.454 1261.69M98.1232 1332.66C98.1232 1332.66 98.4953 1246.74 98.1232 1210.97L137.955 1144.3M176.266 1212.1L176.266 1330.9" stroke="#C9AB81" stroke-width="4.4653" stroke-linecap="round"/>
<path d="M14.556 1184.64C13.9381 1183.57 12.571 1183.2 11.5024 1183.82C10.4338 1184.44 10.0684 1185.8 10.6862 1186.87L14.556 1184.64ZM141.191 1403.66L14.556 1184.64L10.6862 1186.87L137.322 1405.9L141.191 1403.66Z" fill="#C9AB81"/>
<path d="M136.475 1219.82L134.207 1226L138.587 1226L136.475 1219.82Z" fill="#C9AB81"/>
</g>
<g clip-path="url(#clip62_367_20649)">
<path d="M215.061 1263.39C215.061 1262.49 215.061 1221.51 215.061 1203.06L135.801 1062.98L56.5424 1200.8L56.5424 1261.69M174.873 1332.66C174.873 1332.66 174.501 1246.74 174.873 1210.97L135.041 1144.3M96.7301 1212.1L96.7301 1330.9" stroke="#C9AB81" stroke-width="4.4653" stroke-linecap="round"/>
<path d="M258.44 1184.64C259.058 1183.57 260.425 1183.2 261.494 1183.82C262.562 1184.44 262.928 1185.8 262.31 1186.87L258.44 1184.64ZM131.805 1403.66L258.44 1184.64L262.31 1186.87L135.675 1405.9L131.805 1403.66Z" fill="#C9AB81"/>
<path d="M136.521 1219.82L138.789 1226L134.409 1226L136.521 1219.82Z" fill="#C9AB81"/>
</g>
<g clip-path="url(#clip63_367_20649)">
<path d="M57.9355 856.391C57.9355 855.487 57.9355 814.51 57.9355 796.059L137.195 655.98L216.454 793.799L216.454 854.686M98.1232 925.656C98.1232 925.656 98.4953 839.739 98.1232 803.966L137.955 737.299M176.266 805.096L176.266 923.898" stroke="#C9AB81" stroke-width="4.4653" stroke-linecap="round"/>
<path d="M14.556 777.636C13.9381 776.567 12.571 776.202 11.5024 776.819C10.4338 777.437 10.0684 778.804 10.6862 779.873L14.556 777.636ZM141.191 996.661L14.556 777.636L10.6862 779.873L137.322 998.898L141.191 996.661Z" fill="#C9AB81"/>
<path d="M134.203 991.666C134.203 992.9 135.203 993.901 136.437 993.901C137.672 993.901 138.672 992.9 138.672 991.666L134.203 991.666ZM138.672 991.666L138.673 818.997L134.203 818.997L134.203 991.666L138.672 991.666Z" fill="#C9AB81"/>
<path d="M136.475 812.818L134.207 818.996L138.587 818.996L136.475 812.818Z" fill="#C9AB81"/>
</g>
<g clip-path="url(#clip64_367_20649)">
<path d="M215.061 856.391C215.061 855.487 215.061 814.51 215.061 796.059L135.801 655.98L56.5424 793.799L56.5424 854.686M174.873 925.656C174.873 925.656 174.501 839.739 174.873 803.966L135.041 737.299M96.7301 805.096L96.7301 923.898" stroke="#C9AB81" stroke-width="4.4653" stroke-linecap="round"/>
<path d="M258.44 777.636C259.058 776.567 260.425 776.202 261.494 776.819C262.562 777.437 262.928 778.804 262.31 779.873L258.44 777.636ZM131.805 996.661L258.44 777.636L262.31 779.873L135.675 998.898L131.805 996.661Z" fill="#C9AB81"/>
<path d="M138.794 991.666C138.794 992.9 137.793 993.901 136.559 993.901C135.324 993.901 134.324 992.9 134.324 991.666L138.794 991.666ZM134.324 991.666L134.324 818.997L138.794 818.997L138.794 991.666L134.324 991.666Z" fill="#C9AB81"/>
<path d="M136.521 812.818L138.789 818.996L134.409 818.996L136.521 812.818Z" fill="#C9AB81"/>
</g>
<g clip-path="url(#clip65_367_20649)">
<path d="M57.9355 449.391C57.9355 448.487 57.9355 407.51 57.9355 389.059L137.195 248.98L216.454 386.799L216.454 447.686M98.1232 518.656C98.1232 518.656 98.4953 432.739 98.1232 396.966L137.955 330.299M176.266 398.096L176.266 516.898" stroke="#C9AB81" stroke-width="4.4653" stroke-linecap="round"/>
<path d="M14.556 370.636C13.9381 369.567 12.571 369.202 11.5024 369.819C10.4338 370.437 10.0684 371.804 10.6862 372.873L14.556 370.636ZM141.191 589.661L14.556 370.636L10.6862 372.873L137.322 591.898L141.191 589.661Z" fill="#C9AB81"/>
<path d="M134.203 584.666C134.203 585.9 135.203 586.901 136.437 586.901C137.672 586.901 138.672 585.9 138.672 584.666L134.203 584.666ZM138.672 584.666L138.673 411.997L134.203 411.997L134.203 584.666L138.672 584.666Z" fill="#C9AB81"/>
<path d="M136.475 405.818L134.207 411.996L138.587 411.996L136.475 405.818Z" fill="#C9AB81"/>
</g>
<g clip-path="url(#clip66_367_20649)">
<path d="M215.061 449.391C215.061 448.487 215.061 407.51 215.061 389.059L135.801 248.98L56.5424 386.799L56.5424 447.686M174.873 518.656C174.873 518.656 174.501 432.739 174.873 396.966L135.041 330.299M96.7301 398.096L96.7301 516.898" stroke="#C9AB81" stroke-width="4.4653" stroke-linecap="round"/>
<path d="M258.44 370.636C259.058 369.567 260.425 369.202 261.494 369.819C262.562 370.437 262.928 371.804 262.31 372.873L258.44 370.636ZM131.805 589.661L258.44 370.636L262.31 372.873L135.675 591.898L131.805 589.661Z" fill="#C9AB81"/>
<path d="M138.794 584.666C138.794 585.9 137.793 586.901 136.559 586.901C135.324 586.901 134.324 585.9 134.324 584.666L138.794 584.666ZM134.324 584.666L134.324 411.997L138.794 411.997L138.794 584.666L134.324 584.666Z" fill="#C9AB81"/>
<path d="M136.521 405.818L138.789 411.996L134.409 411.996L136.521 405.818Z" fill="#C9AB81"/>
</g>
<g clip-path="url(#clip67_367_20649)">
<path d="M57.9355 42.3908C57.9355 41.4871 57.9355 0.509764 57.9355 -17.9415L137.195 -158.02L216.454 -20.2008L216.454 40.6856M98.1232 111.656C98.1232 111.656 98.4953 25.739 98.1232 -10.0338L137.955 -76.7015M176.266 -8.90413L176.266 109.898" stroke="#C9AB81" stroke-width="4.4653" stroke-linecap="round"/>
<path d="M14.556 -36.3644C13.9381 -37.433 12.571 -37.7984 11.5024 -37.1806C10.4338 -36.5627 10.0684 -35.1956 10.6862 -34.127L14.556 -36.3644ZM141.191 182.661L14.556 -36.3644L10.6862 -34.127L137.322 184.898L141.191 182.661Z" fill="#C9AB81"/>
<path d="M134.203 177.666C134.203 178.9 135.203 179.901 136.437 179.901C137.672 179.901 138.672 178.9 138.672 177.666L134.203 177.666ZM138.672 177.666L138.673 4.99697L134.203 4.99697L134.203 177.666L138.672 177.666Z" fill="#C9AB81"/>
<path d="M136.475 -1.18178L134.207 4.99634L138.587 4.99634L136.475 -1.18178Z" fill="#C9AB81"/>
</g>
<g clip-path="url(#clip68_367_20649)">
<path d="M215.061 42.3908C215.061 41.4871 215.061 0.509764 215.061 -17.9415L135.801 -158.02L56.5424 -20.2008L56.5424 40.6856M174.873 111.656C174.873 111.656 174.501 25.739 174.873 -10.0338L135.041 -76.7015M96.7301 -8.90412L96.7301 109.898" stroke="#C9AB81" stroke-width="4.4653" stroke-linecap="round"/>
<path d="M258.44 -36.3644C259.058 -37.433 260.425 -37.7984 261.494 -37.1806C262.562 -36.5627 262.928 -35.1956 262.31 -34.127L258.44 -36.3644ZM131.805 182.661L258.44 -36.3644L262.31 -34.127L135.675 184.898L131.805 182.661Z" fill="#C9AB81"/>
<path d="M138.794 177.666C138.794 178.9 137.793 179.901 136.559 179.901C135.324 179.901 134.324 178.9 134.324 177.666L138.794 177.666ZM134.324 177.666L134.324 4.99721L138.794 4.99721L138.794 177.666L134.324 177.666Z" fill="#C9AB81"/>
<path d="M136.521 -1.18178L138.789 4.99634L134.409 4.99634L136.521 -1.18178Z" fill="#C9AB81"/>
</g>
<g clip-path="url(#clip69_367_20649)">
<path d="M293.436 1263.39C293.436 1262.49 293.436 1221.51 293.436 1203.06L372.695 1062.98L451.954 1200.8L451.954 1261.69M333.623 1332.66C333.623 1332.66 333.995 1246.74 333.623 1210.97L373.455 1144.3M411.766 1212.1L411.766 1330.9" stroke="#C9AB81" stroke-width="4.4653" stroke-linecap="round"/>
<path d="M250.056 1184.64C249.438 1183.57 248.071 1183.2 247.002 1183.82C245.934 1184.44 245.568 1185.8 246.186 1186.87L250.056 1184.64ZM376.691 1403.66L250.056 1184.64L246.186 1186.87L372.822 1405.9L376.691 1403.66Z" fill="#C9AB81"/>
<path d="M371.975 1219.82L369.707 1226L374.087 1226L371.975 1219.82Z" fill="#C9AB81"/>
</g>
<g clip-path="url(#clip70_367_20649)">
<path d="M450.561 1263.39C450.561 1262.49 450.561 1221.51 450.561 1203.06L371.301 1062.98L292.042 1200.8L292.042 1261.69M410.373 1332.66C410.373 1332.66 410.001 1246.74 410.373 1210.97L370.541 1144.3M332.23 1212.1L332.23 1330.9" stroke="#C9AB81" stroke-width="4.4653" stroke-linecap="round"/>
<path d="M493.94 1184.64C494.558 1183.57 495.925 1183.2 496.994 1183.82C498.062 1184.44 498.428 1185.8 497.81 1186.87L493.94 1184.64ZM367.305 1403.66L493.94 1184.64L497.81 1186.87L371.175 1405.9L367.305 1403.66Z" fill="#C9AB81"/>
<path d="M372.021 1219.82L374.289 1226L369.909 1226L372.021 1219.82Z" fill="#C9AB81"/>
</g>
<g clip-path="url(#clip71_367_20649)">
<path d="M529.436 1263.39C529.436 1262.49 529.436 1221.51 529.436 1203.06L608.695 1062.98L687.954 1200.8L687.954 1261.69M569.623 1332.66C569.623 1332.66 569.995 1246.74 569.623 1210.97L609.455 1144.3M647.766 1212.1L647.766 1330.9" stroke="#C9AB81" stroke-width="4.4653" stroke-linecap="round"/>
<path d="M486.056 1184.64C485.438 1183.57 484.071 1183.2 483.002 1183.82C481.934 1184.44 481.568 1185.8 482.186 1186.87L486.056 1184.64ZM612.691 1403.66L486.056 1184.64L482.186 1186.87L608.822 1405.9L612.691 1403.66Z" fill="#C9AB81"/>
<path d="M607.975 1219.82L605.707 1226L610.087 1226L607.975 1219.82Z" fill="#C9AB81"/>
</g>
<g clip-path="url(#clip72_367_20649)">
<path d="M686.561 1263.39C686.561 1262.49 686.561 1221.51 686.561 1203.06L607.301 1062.98L528.042 1200.8L528.042 1261.69M646.373 1332.66C646.373 1332.66 646.001 1246.74 646.373 1210.97L606.541 1144.3M568.23 1212.1L568.23 1330.9" stroke="#C9AB81" stroke-width="4.4653" stroke-linecap="round"/>
<path d="M729.94 1184.64C730.558 1183.57 731.925 1183.2 732.994 1183.82C734.062 1184.44 734.428 1185.8 733.81 1186.87L729.94 1184.64ZM603.305 1403.66L729.94 1184.64L733.81 1186.87L607.175 1405.9L603.305 1403.66Z" fill="#C9AB81"/>
<path d="M608.021 1219.82L610.289 1226L605.909 1226L608.021 1219.82Z" fill="#C9AB81"/>
</g>
<g clip-path="url(#clip73_367_20649)">
<path d="M293.436 856.391C293.436 855.487 293.436 814.51 293.436 796.059L372.695 655.98L451.954 793.799L451.954 854.686M333.623 925.656C333.623 925.656 333.995 839.739 333.623 803.966L373.455 737.299M411.766 805.096L411.766 923.898" stroke="#C9AB81" stroke-width="4.4653" stroke-linecap="round"/>
<path d="M250.056 777.636C249.438 776.567 248.071 776.202 247.002 776.819C245.934 777.437 245.568 778.804 246.186 779.873L250.056 777.636ZM376.691 996.661L250.056 777.636L246.186 779.873L372.822 998.898L376.691 996.661Z" fill="#C9AB81"/>
<path d="M369.703 991.666C369.703 992.9 370.703 993.901 371.937 993.901C373.172 993.901 374.172 992.9 374.172 991.666L369.703 991.666ZM374.172 991.666L374.173 818.997L369.703 818.997L369.703 991.666L374.172 991.666Z" fill="#C9AB81"/>
<path d="M371.975 812.818L369.707 818.996L374.087 818.996L371.975 812.818Z" fill="#C9AB81"/>
</g>
<g clip-path="url(#clip74_367_20649)">
<path d="M450.561 856.391C450.561 855.487 450.561 814.51 450.561 796.059L371.301 655.98L292.042 793.799L292.042 854.686M410.373 925.656C410.373 925.656 410.001 839.739 410.373 803.966L370.541 737.299M332.23 805.096L332.23 923.898" stroke="#C9AB81" stroke-width="4.4653" stroke-linecap="round"/>
<path d="M493.94 777.636C494.558 776.567 495.925 776.202 496.994 776.819C498.062 777.437 498.428 778.804 497.81 779.873L493.94 777.636ZM367.305 996.661L493.94 777.636L497.81 779.873L371.175 998.898L367.305 996.661Z" fill="#C9AB81"/>
<path d="M374.294 991.666C374.294 992.9 373.293 993.901 372.059 993.901C370.824 993.901 369.824 992.9 369.824 991.666L374.294 991.666ZM369.824 991.666L369.824 818.997L374.294 818.997L374.294 991.666L369.824 991.666Z" fill="#C9AB81"/>
<path d="M372.021 812.818L374.289 818.996L369.909 818.996L372.021 812.818Z" fill="#C9AB81"/>
</g>
<g clip-path="url(#clip75_367_20649)">
<path d="M529.436 856.391C529.436 855.487 529.436 814.51 529.436 796.059L608.695 655.98L687.954 793.799L687.954 854.686M569.623 925.656C569.623 925.656 569.995 839.739 569.623 803.966L609.455 737.299M647.766 805.096L647.766 923.898" stroke="#C9AB81" stroke-width="4.4653" stroke-linecap="round"/>
<path d="M486.056 777.636C485.438 776.567 484.071 776.202 483.002 776.819C481.934 777.437 481.568 778.804 482.186 779.873L486.056 777.636ZM612.691 996.661L486.056 777.636L482.186 779.873L608.822 998.898L612.691 996.661Z" fill="#C9AB81"/>
<path d="M605.703 991.666C605.703 992.9 606.703 993.901 607.937 993.901C609.172 993.901 610.172 992.9 610.172 991.666L605.703 991.666ZM610.172 991.666L610.173 818.997L605.703 818.997L605.703 991.666L610.172 991.666Z" fill="#C9AB81"/>
<path d="M607.975 812.818L605.707 818.996L610.087 818.996L607.975 812.818Z" fill="#C9AB81"/>
</g>
<g clip-path="url(#clip76_367_20649)">
<path d="M686.561 856.391C686.561 855.487 686.561 814.51 686.561 796.059L607.301 655.98L528.042 793.799L528.042 854.686M646.373 925.656C646.373 925.656 646.001 839.739 646.373 803.966L606.541 737.299M568.23 805.096L568.23 923.898" stroke="#C9AB81" stroke-width="4.4653" stroke-linecap="round"/>
<path d="M729.94 777.636C730.558 776.567 731.925 776.202 732.994 776.819C734.062 777.437 734.428 778.804 733.81 779.873L729.94 777.636ZM603.305 996.661L729.94 777.636L733.81 779.873L607.175 998.898L603.305 996.661Z" fill="#C9AB81"/>
<path d="M610.294 991.666C610.294 992.9 609.293 993.901 608.059 993.901C606.824 993.901 605.824 992.9 605.824 991.666L610.294 991.666ZM605.824 991.666L605.824 818.997L610.294 818.997L610.294 991.666L605.824 991.666Z" fill="#C9AB81"/>
<path d="M608.021 812.818L610.289 818.996L605.909 818.996L608.021 812.818Z" fill="#C9AB81"/>
</g>
<g clip-path="url(#clip77_367_20649)">
<path d="M293.436 449.391C293.436 448.487 293.436 407.51 293.436 389.059L372.695 248.98L451.954 386.799L451.954 447.686M333.623 518.656C333.623 518.656 333.995 432.739 333.623 396.966L373.455 330.299M411.766 398.096L411.766 516.898" stroke="#C9AB81" stroke-width="4.4653" stroke-linecap="round"/>
<path d="M250.056 370.636C249.438 369.567 248.071 369.202 247.002 369.819C245.934 370.437 245.568 371.804 246.186 372.873L250.056 370.636ZM376.691 589.661L250.056 370.636L246.186 372.873L372.822 591.898L376.691 589.661Z" fill="#C9AB81"/>
<path d="M369.703 584.666C369.703 585.9 370.703 586.901 371.937 586.901C373.172 586.901 374.172 585.9 374.172 584.666L369.703 584.666ZM374.172 584.666L374.173 411.997L369.703 411.997L369.703 584.666L374.172 584.666Z" fill="#C9AB81"/>
<path d="M371.975 405.818L369.707 411.996L374.087 411.996L371.975 405.818Z" fill="#C9AB81"/>
</g>
<g clip-path="url(#clip78_367_20649)">
<path d="M450.561 449.391C450.561 448.487 450.561 407.51 450.561 389.059L371.301 248.98L292.042 386.799L292.042 447.686M410.373 518.656C410.373 518.656 410.001 432.739 410.373 396.966L370.541 330.299M332.23 398.096L332.23 516.898" stroke="#C9AB81" stroke-width="4.4653" stroke-linecap="round"/>
<path d="M493.94 370.636C494.558 369.567 495.925 369.202 496.994 369.819C498.062 370.437 498.428 371.804 497.81 372.873L493.94 370.636ZM367.305 589.661L493.94 370.636L497.81 372.873L371.175 591.898L367.305 589.661Z" fill="#C9AB81"/>
<path d="M374.294 584.666C374.294 585.9 373.293 586.901 372.059 586.901C370.824 586.901 369.824 585.9 369.824 584.666L374.294 584.666ZM369.824 584.666L369.824 411.997L374.294 411.997L374.294 584.666L369.824 584.666Z" fill="#C9AB81"/>
<path d="M372.021 405.818L374.289 411.996L369.909 411.996L372.021 405.818Z" fill="#C9AB81"/>
</g>
<g clip-path="url(#clip79_367_20649)">
<path d="M529.436 449.391C529.436 448.487 529.436 407.51 529.436 389.059L608.695 248.98L687.954 386.799L687.954 447.686M569.623 518.656C569.623 518.656 569.995 432.739 569.623 396.966L609.455 330.299M647.766 398.096L647.766 516.898" stroke="#C9AB81" stroke-width="4.4653" stroke-linecap="round"/>
<path d="M486.056 370.636C485.438 369.567 484.071 369.202 483.002 369.819C481.934 370.437 481.568 371.804 482.186 372.873L486.056 370.636ZM612.691 589.661L486.056 370.636L482.186 372.873L608.822 591.898L612.691 589.661Z" fill="#C9AB81"/>
<path d="M605.703 584.666C605.703 585.9 606.703 586.901 607.937 586.901C609.172 586.901 610.172 585.9 610.172 584.666L605.703 584.666ZM610.172 584.666L610.173 411.997L605.703 411.997L605.703 584.666L610.172 584.666Z" fill="#C9AB81"/>
<path d="M607.975 405.818L605.707 411.996L610.087 411.996L607.975 405.818Z" fill="#C9AB81"/>
</g>
<g clip-path="url(#clip80_367_20649)">
<path d="M686.561 449.391C686.561 448.487 686.561 407.51 686.561 389.059L607.301 248.98L528.042 386.799L528.042 447.686M646.373 518.656C646.373 518.656 646.001 432.739 646.373 396.966L606.541 330.299M568.23 398.096L568.23 516.898" stroke="#C9AB81" stroke-width="4.4653" stroke-linecap="round"/>
<path d="M729.94 370.636C730.558 369.567 731.925 369.202 732.994 369.819C734.062 370.437 734.428 371.804 733.81 372.873L729.94 370.636ZM603.305 589.661L729.94 370.636L733.81 372.873L607.175 591.898L603.305 589.661Z" fill="#C9AB81"/>
<path d="M610.294 584.666C610.294 585.9 609.293 586.901 608.059 586.901C606.824 586.901 605.824 585.9 605.824 584.666L610.294 584.666ZM605.824 584.666L605.824 411.997L610.294 411.997L610.294 584.666L605.824 584.666Z" fill="#C9AB81"/>
<path d="M608.021 405.818L610.289 411.996L605.909 411.996L608.021 405.818Z" fill="#C9AB81"/>
</g>
<g clip-path="url(#clip81_367_20649)">
<path d="M293.436 42.3908C293.436 41.4871 293.436 0.509764 293.436 -17.9415L372.695 -158.02L451.954 -20.2008L451.954 40.6856M333.623 111.656C333.623 111.656 333.995 25.739 333.623 -10.0338L373.455 -76.7015M411.766 -8.90413L411.766 109.898" stroke="#C9AB81" stroke-width="4.4653" stroke-linecap="round"/>
<path d="M250.056 -36.3644C249.438 -37.433 248.071 -37.7984 247.002 -37.1806C245.934 -36.5627 245.568 -35.1956 246.186 -34.127L250.056 -36.3644ZM376.691 182.661L250.056 -36.3644L246.186 -34.127L372.822 184.898L376.691 182.661Z" fill="#C9AB81"/>
<path d="M369.703 177.666C369.703 178.9 370.703 179.901 371.937 179.901C373.172 179.901 374.172 178.9 374.172 177.666L369.703 177.666ZM374.172 177.666L374.173 4.99697L369.703 4.99697L369.703 177.666L374.172 177.666Z" fill="#C9AB81"/>
<path d="M371.975 -1.18178L369.707 4.99634L374.087 4.99634L371.975 -1.18178Z" fill="#C9AB81"/>
</g>
<g clip-path="url(#clip82_367_20649)">
<path d="M450.561 42.3908C450.561 41.4871 450.561 0.509764 450.561 -17.9415L371.301 -158.02L292.042 -20.2008L292.042 40.6856M410.373 111.656C410.373 111.656 410.001 25.739 410.373 -10.0338L370.541 -76.7015M332.23 -8.90412L332.23 109.898" stroke="#C9AB81" stroke-width="4.4653" stroke-linecap="round"/>
<path d="M493.94 -36.3644C494.558 -37.433 495.925 -37.7984 496.994 -37.1806C498.062 -36.5627 498.428 -35.1956 497.81 -34.127L493.94 -36.3644ZM367.305 182.661L493.94 -36.3644L497.81 -34.127L371.175 184.898L367.305 182.661Z" fill="#C9AB81"/>
<path d="M374.294 177.666C374.294 178.9 373.293 179.901 372.059 179.901C370.824 179.901 369.824 178.9 369.824 177.666L374.294 177.666ZM369.824 177.666L369.824 4.99721L374.294 4.99721L374.294 177.666L369.824 177.666Z" fill="#C9AB81"/>
<path d="M372.021 -1.18178L374.289 4.99634L369.909 4.99634L372.021 -1.18178Z" fill="#C9AB81"/>
</g>
<g clip-path="url(#clip83_367_20649)">
<path d="M529.436 42.3908C529.436 41.4871 529.436 0.509764 529.436 -17.9415L608.695 -158.02L687.954 -20.2008L687.954 40.6856M569.623 111.656C569.623 111.656 569.995 25.739 569.623 -10.0338L609.455 -76.7015M647.766 -8.90413L647.766 109.898" stroke="#C9AB81" stroke-width="4.4653" stroke-linecap="round"/>
<path d="M486.056 -36.3644C485.438 -37.433 484.071 -37.7984 483.002 -37.1806C481.934 -36.5627 481.568 -35.1956 482.186 -34.127L486.056 -36.3644ZM612.691 182.661L486.056 -36.3644L482.186 -34.127L608.822 184.898L612.691 182.661Z" fill="#C9AB81"/>
<path d="M605.703 177.666C605.703 178.9 606.703 179.901 607.937 179.901C609.172 179.901 610.172 178.9 610.172 177.666L605.703 177.666ZM610.172 177.666L610.173 4.99697L605.703 4.99697L605.703 177.666L610.172 177.666Z" fill="#C9AB81"/>
<path d="M607.975 -1.18178L605.707 4.99634L610.087 4.99634L607.975 -1.18178Z" fill="#C9AB81"/>
</g>
<g clip-path="url(#clip84_367_20649)">
<path d="M686.561 42.3908C686.561 41.4871 686.561 0.509764 686.561 -17.9415L607.301 -158.02L528.042 -20.2008L528.042 40.6856M646.373 111.656C646.373 111.656 646.001 25.739 646.373 -10.0338L606.541 -76.7015M568.23 -8.90412L568.23 109.898" stroke="#C9AB81" stroke-width="4.4653" stroke-linecap="round"/>
<path d="M729.94 -36.3644C730.558 -37.433 731.925 -37.7984 732.994 -37.1806C734.062 -36.5627 734.428 -35.1956 733.81 -34.127L729.94 -36.3644ZM603.305 182.661L729.94 -36.3644L733.81 -34.127L607.175 184.898L603.305 182.661Z" fill="#C9AB81"/>
<path d="M610.294 177.666C610.294 178.9 609.293 179.901 608.059 179.901C606.824 179.901 605.824 178.9 605.824 177.666L610.294 177.666ZM605.824 177.666L605.824 4.99721L610.294 4.99721L610.294 177.666L605.824 177.666Z" fill="#C9AB81"/>
<path d="M608.021 -1.18178L610.289 4.99634L605.909 4.99634L608.021 -1.18178Z" fill="#C9AB81"/>
</g>
</mask>
<g mask="url(#mask0_367_20649)">
<circle cx="610" cy="610.11" r="591.246" fill="#C9AB81"/>
</g>
</g>
<defs>
<clipPath id="clip0_367_20649">
<rect width="1220" height="1220" fill="white" transform="translate(0 0.110474)"/>
</clipPath>
<clipPath id="clip1_367_20649">
<rect width="372" height="118" fill="white" transform="translate(845.498 1203.61) rotate(-90)"/>
</clipPath>
<clipPath id="clip2_367_20649">
<rect width="372" height="118" fill="white" transform="matrix(-4.37114e-08 -1 -1 4.37114e-08 1081.5 1203.61)"/>
</clipPath>
<clipPath id="clip3_367_20649">
<rect width="372" height="118" fill="white" transform="translate(845.498 796.611) rotate(-90)"/>
</clipPath>
<clipPath id="clip4_367_20649">
<rect width="372" height="118" fill="white" transform="matrix(-4.37114e-08 -1 -1 4.37114e-08 1081.5 796.611)"/>
</clipPath>
<clipPath id="clip5_367_20649">
<rect width="372" height="118" fill="white" transform="translate(845.498 389.611) rotate(-90)"/>
</clipPath>
<clipPath id="clip6_367_20649">
<rect width="372" height="118" fill="white" transform="matrix(-4.37114e-08 -1 -1 4.37114e-08 1081.5 389.611)"/>
</clipPath>
<clipPath id="clip7_367_20649">
<rect width="372" height="118" fill="white" transform="translate(610 1203.61) rotate(-90)"/>
</clipPath>
<clipPath id="clip8_367_20649">
<rect width="372" height="118" fill="white" transform="matrix(-4.37114e-08 -1 -1 4.37114e-08 846 1203.61)"/>
</clipPath>
<clipPath id="clip9_367_20649">
<rect width="372" height="118" fill="white" transform="translate(610 796.611) rotate(-90)"/>
</clipPath>
<clipPath id="clip10_367_20649">
<rect width="372" height="118" fill="white" transform="matrix(-4.37114e-08 -1 -1 4.37114e-08 846 796.611)"/>
</clipPath>
<clipPath id="clip11_367_20649">
<rect width="372" height="118" fill="white" transform="translate(610 389.611) rotate(-90)"/>
</clipPath>
<clipPath id="clip12_367_20649">
<rect width="372" height="118" fill="white" transform="matrix(-4.37114e-08 -1 -1 4.37114e-08 846 389.611)"/>
</clipPath>
<clipPath id="clip13_367_20649">
<rect width="372" height="118" fill="white" transform="translate(-99.502 1203.61) rotate(-90)"/>
</clipPath>
<clipPath id="clip14_367_20649">
<rect width="372" height="118" fill="white" transform="matrix(-4.37114e-08 -1 -1 4.37114e-08 136.498 1203.61)"/>
</clipPath>
<clipPath id="clip15_367_20649">
<rect width="372" height="118" fill="white" transform="translate(-99.502 796.611) rotate(-90)"/>
</clipPath>
<clipPath id="clip16_367_20649">
<rect width="372" height="118" fill="white" transform="matrix(-4.37114e-08 -1 -1 4.37114e-08 136.498 796.611)"/>
</clipPath>
<clipPath id="clip17_367_20649">
<rect width="372" height="118" fill="white" transform="translate(-99.502 389.611) rotate(-90)"/>
</clipPath>
<clipPath id="clip18_367_20649">
<rect width="372" height="118" fill="white" transform="matrix(-4.37114e-08 -1 -1 4.37114e-08 136.498 389.611)"/>
</clipPath>
<clipPath id="clip19_367_20649">
<rect width="372" height="118" fill="white" transform="translate(1081.5 1203.61) rotate(-90)"/>
</clipPath>
<clipPath id="clip20_367_20649">
<rect width="372" height="118" fill="white" transform="matrix(-4.37114e-08 -1 -1 4.37114e-08 1317.5 1203.61)"/>
</clipPath>
<clipPath id="clip21_367_20649">
<rect width="372" height="118" fill="white" transform="translate(1081.5 796.611) rotate(-90)"/>
</clipPath>
<clipPath id="clip22_367_20649">
<rect width="372" height="118" fill="white" transform="matrix(-4.37114e-08 -1 -1 4.37114e-08 1317.5 796.611)"/>
</clipPath>
<clipPath id="clip23_367_20649">
<rect width="372" height="118" fill="white" transform="translate(1081.5 389.611) rotate(-90)"/>
</clipPath>
<clipPath id="clip24_367_20649">
<rect width="372" height="118" fill="white" transform="matrix(-4.37114e-08 -1 -1 4.37114e-08 1317.5 389.611)"/>
</clipPath>
<clipPath id="clip25_367_20649">
<rect width="372" height="118" fill="white" transform="translate(136.498 1203.61) rotate(-90)"/>
</clipPath>
<clipPath id="clip26_367_20649">
<rect width="372" height="118" fill="white" transform="matrix(-4.37114e-08 -1 -1 4.37114e-08 372.498 1203.61)"/>
</clipPath>
<clipPath id="clip27_367_20649">
<rect width="372" height="118" fill="white" transform="translate(136.498 796.611) rotate(-90)"/>
</clipPath>
<clipPath id="clip28_367_20649">
<rect width="372" height="118" fill="white" transform="matrix(-4.37114e-08 -1 -1 4.37114e-08 372.498 796.611)"/>
</clipPath>
<clipPath id="clip29_367_20649">
<rect width="372" height="118" fill="white" transform="translate(136.498 389.611) rotate(-90)"/>
</clipPath>
<clipPath id="clip30_367_20649">
<rect width="372" height="118" fill="white" transform="matrix(-4.37114e-08 -1 -1 4.37114e-08 372.498 389.611)"/>
</clipPath>
<clipPath id="clip31_367_20649">
<rect width="372" height="118" fill="white" transform="translate(374 1203.61) rotate(-90)"/>
</clipPath>
<clipPath id="clip32_367_20649">
<rect width="372" height="118" fill="white" transform="matrix(-4.37114e-08 -1 -1 4.37114e-08 610 1203.61)"/>
</clipPath>
<clipPath id="clip33_367_20649">
<rect width="372" height="118" fill="white" transform="translate(374 796.611) rotate(-90)"/>
</clipPath>
<clipPath id="clip34_367_20649">
<rect width="372" height="118" fill="white" transform="matrix(-4.37114e-08 -1 -1 4.37114e-08 610 796.611)"/>
</clipPath>
<clipPath id="clip35_367_20649">
<rect width="372" height="118" fill="white" transform="translate(374 389.611) rotate(-90)"/>
</clipPath>
<clipPath id="clip36_367_20649">
<rect width="372" height="118" fill="white" transform="matrix(-4.37114e-08 -1 -1 4.37114e-08 610 389.611)"/>
</clipPath>
<clipPath id="clip37_367_20649">
<rect width="372" height="118" fill="white" transform="translate(963.498 1406.61) rotate(-90)"/>
</clipPath>
<clipPath id="clip38_367_20649">
<rect width="372" height="118" fill="white" transform="matrix(-4.37114e-08 -1 -1 4.37114e-08 1199.5 1406.61)"/>
</clipPath>
<clipPath id="clip39_367_20649">
<rect width="372" height="118" fill="white" transform="translate(963.498 999.611) rotate(-90)"/>
</clipPath>
<clipPath id="clip40_367_20649">
<rect width="372" height="118" fill="white" transform="matrix(-4.37114e-08 -1 -1 4.37114e-08 1199.5 999.611)"/>
</clipPath>
<clipPath id="clip41_367_20649">
<rect width="372" height="118" fill="white" transform="translate(963.498 592.611) rotate(-90)"/>
</clipPath>
<clipPath id="clip42_367_20649">
<rect width="372" height="118" fill="white" transform="matrix(-4.37114e-08 -1 -1 4.37114e-08 1199.5 592.611)"/>
</clipPath>
<clipPath id="clip43_367_20649">
<rect width="372" height="118" fill="white" transform="translate(963.498 185.611) rotate(-90)"/>
</clipPath>
<clipPath id="clip44_367_20649">
<rect width="372" height="118" fill="white" transform="matrix(-4.37114e-08 -1 -1 4.37114e-08 1199.5 185.611)"/>
</clipPath>
<clipPath id="clip45_367_20649">
<rect width="372" height="118" fill="white" transform="translate(728 1406.61) rotate(-90)"/>
</clipPath>
<clipPath id="clip46_367_20649">
<rect width="372" height="118" fill="white" transform="matrix(-4.37114e-08 -1 -1 4.37114e-08 964 1406.61)"/>
</clipPath>
<clipPath id="clip47_367_20649">
<rect width="372" height="118" fill="white" transform="translate(728 999.611) rotate(-90)"/>
</clipPath>
<clipPath id="clip48_367_20649">
<rect width="372" height="118" fill="white" transform="matrix(-4.37114e-08 -1 -1 4.37114e-08 964 999.611)"/>
</clipPath>
<clipPath id="clip49_367_20649">
<rect width="372" height="118" fill="white" transform="translate(728 592.611) rotate(-90)"/>
</clipPath>
<clipPath id="clip50_367_20649">
<rect width="372" height="118" fill="white" transform="matrix(-4.37114e-08 -1 -1 4.37114e-08 964 592.611)"/>
</clipPath>
<clipPath id="clip51_367_20649">
<rect width="372" height="118" fill="white" transform="translate(728 185.611) rotate(-90)"/>
</clipPath>
<clipPath id="clip52_367_20649">
<rect width="372" height="118" fill="white" transform="matrix(-4.37114e-08 -1 -1 4.37114e-08 964 185.611)"/>
</clipPath>
<clipPath id="clip53_367_20649">
<rect width="372" height="118" fill="white" transform="translate(1199.5 1406.61) rotate(-90)"/>
</clipPath>
<clipPath id="clip54_367_20649">
<rect width="372" height="118" fill="white" transform="translate(1199.5 999.611) rotate(-90)"/>
</clipPath>
<clipPath id="clip55_367_20649">
<rect width="372" height="118" fill="white" transform="translate(1199.5 592.611) rotate(-90)"/>
</clipPath>
<clipPath id="clip56_367_20649">
<rect width="372" height="118" fill="white" transform="translate(1199.5 185.611) rotate(-90)"/>
</clipPath>
<clipPath id="clip57_367_20649">
<rect width="372" height="118" fill="white" transform="matrix(-4.37114e-08 -1 -1 4.37114e-08 24.2148 1406.61)"/>
</clipPath>
<clipPath id="clip58_367_20649">
<rect width="372" height="118" fill="white" transform="matrix(-4.37114e-08 -1 -1 4.37114e-08 24.2148 999.611)"/>
</clipPath>
<clipPath id="clip59_367_20649">
<rect width="372" height="118" fill="white" transform="matrix(-4.37114e-08 -1 -1 4.37114e-08 24.2148 592.611)"/>
</clipPath>
<clipPath id="clip60_367_20649">
<rect width="372" height="118" fill="white" transform="matrix(-4.37114e-08 -1 -1 4.37114e-08 24.2148 185.611)"/>
</clipPath>
<clipPath id="clip61_367_20649">
<rect width="372" height="118" fill="white" transform="translate(18.498 1406.61) rotate(-90)"/>
</clipPath>
<clipPath id="clip62_367_20649">
<rect width="372" height="118" fill="white" transform="matrix(-4.37114e-08 -1 -1 4.37114e-08 254.498 1406.61)"/>
</clipPath>
<clipPath id="clip63_367_20649">
<rect width="372" height="118" fill="white" transform="translate(18.498 999.611) rotate(-90)"/>
</clipPath>
<clipPath id="clip64_367_20649">
<rect width="372" height="118" fill="white" transform="matrix(-4.37114e-08 -1 -1 4.37114e-08 254.498 999.611)"/>
</clipPath>
<clipPath id="clip65_367_20649">
<rect width="372" height="118" fill="white" transform="translate(18.498 592.611) rotate(-90)"/>
</clipPath>
<clipPath id="clip66_367_20649">
<rect width="372" height="118" fill="white" transform="matrix(-4.37114e-08 -1 -1 4.37114e-08 254.498 592.611)"/>
</clipPath>
<clipPath id="clip67_367_20649">
<rect width="372" height="118" fill="white" transform="translate(18.498 185.611) rotate(-90)"/>
</clipPath>
<clipPath id="clip68_367_20649">
<rect width="372" height="118" fill="white" transform="matrix(-4.37114e-08 -1 -1 4.37114e-08 254.498 185.611)"/>
</clipPath>
<clipPath id="clip69_367_20649">
<rect width="372" height="118" fill="white" transform="translate(253.998 1406.61) rotate(-90)"/>
</clipPath>
<clipPath id="clip70_367_20649">
<rect width="372" height="118" fill="white" transform="matrix(-4.37114e-08 -1 -1 4.37114e-08 489.998 1406.61)"/>
</clipPath>
<clipPath id="clip71_367_20649">
<rect width="372" height="118" fill="white" transform="translate(489.998 1406.61) rotate(-90)"/>
</clipPath>
<clipPath id="clip72_367_20649">
<rect width="372" height="118" fill="white" transform="matrix(-4.37114e-08 -1 -1 4.37114e-08 725.998 1406.61)"/>
</clipPath>
<clipPath id="clip73_367_20649">
<rect width="372" height="118" fill="white" transform="translate(253.998 999.611) rotate(-90)"/>
</clipPath>
<clipPath id="clip74_367_20649">
<rect width="372" height="118" fill="white" transform="matrix(-4.37114e-08 -1 -1 4.37114e-08 489.998 999.611)"/>
</clipPath>
<clipPath id="clip75_367_20649">
<rect width="372" height="118" fill="white" transform="translate(489.998 999.611) rotate(-90)"/>
</clipPath>
<clipPath id="clip76_367_20649">
<rect width="372" height="118" fill="white" transform="matrix(-4.37114e-08 -1 -1 4.37114e-08 725.998 999.611)"/>
</clipPath>
<clipPath id="clip77_367_20649">
<rect width="372" height="118" fill="white" transform="translate(253.998 592.611) rotate(-90)"/>
</clipPath>
<clipPath id="clip78_367_20649">
<rect width="372" height="118" fill="white" transform="matrix(-4.37114e-08 -1 -1 4.37114e-08 489.998 592.611)"/>
</clipPath>
<clipPath id="clip79_367_20649">
<rect width="372" height="118" fill="white" transform="translate(489.998 592.611) rotate(-90)"/>
</clipPath>
<clipPath id="clip80_367_20649">
<rect width="372" height="118" fill="white" transform="matrix(-4.37114e-08 -1 -1 4.37114e-08 725.998 592.611)"/>
</clipPath>
<clipPath id="clip81_367_20649">
<rect width="372" height="118" fill="white" transform="translate(253.998 185.611) rotate(-90)"/>
</clipPath>
<clipPath id="clip82_367_20649">
<rect width="372" height="118" fill="white" transform="matrix(-4.37114e-08 -1 -1 4.37114e-08 489.998 185.611)"/>
</clipPath>
<clipPath id="clip83_367_20649">
<rect width="372" height="118" fill="white" transform="translate(489.998 185.611) rotate(-90)"/>
</clipPath>
<clipPath id="clip84_367_20649">
<rect width="372" height="118" fill="white" transform="matrix(-4.37114e-08 -1 -1 4.37114e-08 725.998 185.611)"/>
</clipPath>
</defs>
</svg>
