<svg width="240" height="49" viewBox="0 0 240 49" fill="none" xmlns="http://www.w3.org/2000/svg">
<path d="M33.9657 7.56653C35.3298 8.32785 36.4401 9.35881 37.2965 10.6594C38.1848 11.96 38.6289 13.4192 38.6289 15.037C38.6289 16.6548 37.6138 18.5106 35.5836 20.6042C33.5534 22.6979 31.0791 24.4901 28.1606 25.9811C25.274 27.4403 22.7521 28.1699 20.595 28.1699C18.4696 28.1699 16.9311 27.2817 15.9794 25.5052C10.5233 32.833 7.44625 37.2741 6.74837 38.8284C6.7801 38.987 6.79596 39.2091 6.79596 39.4946C6.79596 39.8118 6.62149 39.9704 6.27255 39.9704C5.9236 39.9704 5.46364 39.6691 4.89264 39.0664C4.35337 38.4954 4.08374 37.6706 4.08374 36.592C4.08374 36.2748 4.0996 36.0211 4.13132 35.8307C4.41682 33.7371 7.31937 29.6132 12.839 23.4592C18.3903 17.3051 22.3873 13.562 24.8298 12.2296C25.3374 11.9759 25.7181 11.849 25.9718 11.849C26.2256 11.849 26.4794 11.9283 26.7332 12.0869C27.0187 12.2455 27.1614 12.4358 27.1614 12.6579C27.1614 12.8799 27.098 13.0544 26.9711 13.1813C24.5919 15.6556 23.1644 17.1624 22.6886 17.7017L17.0263 24.2681C16.9628 24.3633 16.9311 24.4584 16.9311 24.5536C16.9311 24.7756 17.0738 24.8867 17.3593 24.8867C18.6282 24.8867 20.3412 24.5219 22.4983 23.7923C24.6871 23.0627 26.8442 22.1586 28.9696 21.08C31.0949 19.9698 32.9348 18.685 34.4892 17.2258C36.0435 15.7349 36.8207 14.355 36.8207 13.0861C36.8207 12.0393 35.8215 11.2621 33.823 10.7546C31.8245 10.247 29.6674 9.99325 27.3517 9.99325C25.0678 9.99325 22.5935 10.3263 19.9288 10.9925C17.2642 11.6269 14.9326 12.42 12.9341 13.3716C10.9674 14.3233 9.19096 15.3225 7.60486 16.3693C6.01877 17.3844 4.81334 18.2885 3.98857 19.0816C3.19552 19.8429 2.799 20.3504 2.799 20.6042C2.799 20.8263 2.91003 20.9373 3.13208 20.9373C3.35413 20.9373 3.95685 20.7787 4.94023 20.4615C8.11241 19.4146 11.2212 18.003 14.2665 16.2266C14.4885 16.0997 14.6313 16.0363 14.6947 16.0363C14.7899 16.0363 14.8375 16.0839 14.8375 16.179C14.8375 16.2425 14.6313 16.5438 14.2189 17.0831C13.8382 17.5906 13.2989 18.2251 12.6011 18.9864C11.9032 19.716 11.1419 20.4297 10.3171 21.1276C9.49232 21.8255 8.55652 22.4282 7.5097 22.9358C6.4946 23.4116 5.49536 23.6495 4.51198 23.6495C3.56032 23.6495 2.60867 23.2689 1.65701 22.5075C0.737078 21.7145 0.27711 20.6518 0.27711 19.3195C0.27711 17.9554 0.94327 16.4804 2.27559 14.8943C3.60791 13.3082 5.35261 11.8014 7.5097 10.3739C9.69851 8.94643 12.4107 7.741 15.6464 6.75762C18.882 5.77424 22.0383 5.28255 25.1153 5.28255C28.1924 5.28255 31.1425 6.04388 33.9657 7.56653ZM45.6295 14.466C45.9467 14.466 46.1529 14.5295 46.2481 14.6564C46.6922 15.1956 46.9142 15.6397 46.9142 15.9887C46.9142 16.3059 46.8191 16.5914 46.6287 16.8452C46.4384 17.0672 46.2005 17.3369 45.915 17.6541C45.6612 17.9396 45.1219 18.352 44.2972 18.8912C43.5041 19.3988 42.7269 19.6526 41.9656 19.6526C41.3946 19.5574 41.1091 19.2085 41.1091 18.6057C41.1091 17.6541 41.6801 16.7342 42.8221 15.8459C43.9641 14.926 44.8999 14.466 45.6295 14.466ZM34.2096 33.2137C33.9558 33.6578 33.8289 34.0543 33.8289 34.4032C33.8289 34.7522 34.0193 34.9266 34.3999 34.9266C34.622 34.9266 35.0027 34.8315 35.5419 34.6412C41.4739 31.5324 47.279 27.8685 52.9572 23.6495C53.2427 23.8716 53.3855 24.1412 53.3855 24.4584C53.3855 24.7756 53.2269 25.077 52.9097 25.3625C52.5924 25.648 52.1325 26.0604 51.5298 26.5997C50.9588 27.1389 49.8485 28.1064 48.199 29.5022C46.5494 30.898 45.0109 32.1668 43.5834 33.3088C39.8402 36.3224 37.0804 38.0988 35.304 38.6381C34.733 38.7967 34.1144 38.876 33.4483 38.876C31.0057 38.876 29.7844 37.5754 29.7844 34.9742C29.7844 33.9591 30.3395 32.5158 31.4498 30.6442C32.5601 28.7409 33.7021 27.0755 34.8758 25.648C36.0495 24.1888 36.8267 23.3799 37.2073 23.2213C37.7783 22.8723 38.3969 22.6979 39.0631 22.6979C39.7292 22.6979 40.3637 22.8248 40.9664 23.0785C41.1567 23.1737 41.2519 23.3006 41.2519 23.4592C41.2519 23.6178 41.0933 23.8557 40.776 24.1729C40.4905 24.4901 40.0306 24.9818 39.3961 25.648C38.7934 26.3142 37.8735 27.472 36.6363 29.1215C35.4309 30.7394 34.622 32.1034 34.2096 33.2137ZM53.6141 22.2696C53.8679 22.2696 54.2803 22.3965 54.8513 22.6503C55.454 22.9041 55.7553 23.1896 55.7553 23.5068C55.7553 23.7288 55.676 23.9509 55.5174 24.1729L51.9487 29.1215C51.5363 29.6291 51.3301 29.9146 51.3301 29.978C51.3301 30.0415 51.346 30.0732 51.3777 30.0732L51.6156 29.9305C55.2954 27.361 58.3248 25.1087 60.7039 23.1737C61.1481 22.8565 61.5129 22.6979 61.7983 22.6979C62.1156 22.6979 62.3218 22.7296 62.4169 22.793L63.7492 23.1737C64.0665 23.3323 64.2251 23.5385 64.2251 23.7923C64.2251 24.046 64.1616 24.2522 64.0347 24.4108C63.432 25.077 62.7341 25.8383 61.9411 26.6948C61.1798 27.5196 60.6088 28.154 60.2281 28.5981C59.8475 29.0105 59.4192 29.4863 58.9434 30.0256C58.4676 30.5649 58.1186 30.9773 57.8966 31.2628C57.7062 31.5483 57.4842 31.8813 57.2304 32.262C56.9766 32.611 56.8022 32.9123 56.707 33.1661C56.5167 33.8957 56.4215 34.5301 56.4215 35.0694C56.4215 35.3549 56.596 35.4976 56.9449 35.4976C57.3256 35.4976 57.9917 35.2756 58.9434 34.8315C59.9268 34.3874 61.0846 33.7054 62.4169 32.7854C63.781 31.8655 65.5733 30.5649 67.7938 28.8836C70.046 27.1706 72.0128 25.7273 73.6941 24.5536C73.9796 24.7756 74.1223 25.0453 74.1223 25.3625C74.1223 25.6797 73.9796 25.9652 73.6941 26.219C72.679 27.2024 71.3942 28.4395 69.8398 29.9305C68.2855 31.3897 65.9063 33.3564 62.7024 35.8307C59.5302 38.305 57.3097 39.5422 56.0408 39.5422C53.5982 39.5422 52.377 38.2416 52.377 35.6404C52.377 34.657 52.7576 33.6261 53.5189 32.5475L55.565 29.7401C55.7553 29.4546 55.8505 29.296 55.8505 29.2643C55.8505 29.2008 55.7553 29.2484 55.565 29.407C50.0454 34.0067 46.5243 36.7031 45.0016 37.4961C44.7478 37.6547 44.4306 37.734 44.05 37.734C43.0031 37.734 42.4797 37.2582 42.4797 36.3065C42.4797 35.9893 42.559 35.7038 42.7176 35.4501C45.0651 33.293 46.7146 31.5324 47.6663 30.1684C48.4276 29.407 49.2206 28.3444 50.0454 26.9803C50.9019 25.6163 51.6156 24.4902 52.1866 23.6019C52.7893 22.7137 53.2652 22.2696 53.6141 22.2696ZM79.8304 23.6495C79.0056 23.6495 77.6098 24.506 75.6431 26.219C73.6763 27.9003 72.693 28.9312 72.693 29.3119C72.693 29.3753 72.7405 29.407 72.8357 29.407C73.5336 29.407 74.9135 28.6299 76.9754 27.0755C79.0691 25.5211 80.1159 24.4584 80.1159 23.8874C80.1159 23.7288 80.0207 23.6495 79.8304 23.6495ZM69.6952 38.876C67.2527 38.876 66.0314 37.3851 66.0314 34.4032C66.0314 32.5316 66.8403 30.549 68.4581 28.4554C70.1076 26.33 72.0427 24.6012 74.2632 23.2689C76.4837 21.9048 78.4505 21.2228 80.1635 21.2228C80.9248 21.2228 81.6227 21.5242 82.2571 22.1269C82.9233 22.7296 83.2563 23.3164 83.2563 23.8874C83.2563 24.9343 82.5109 26.1238 81.0199 27.4561C79.529 28.7567 77.9588 29.8194 76.3092 30.6442C74.6914 31.4372 73.6129 31.8338 73.0736 31.8338C72.5661 31.8338 72.1854 31.5959 71.9316 31.12C71.8047 31.0249 71.6303 30.9773 71.4082 30.9773C71.1862 30.9773 70.8214 31.4055 70.3138 32.262C69.8063 33.0868 69.5525 33.7688 69.5525 34.3081C69.5525 34.8156 69.7428 35.1328 70.1235 35.2597C72.5343 35.2597 75.1514 34.5618 77.9746 33.1661C80.7979 31.7386 84.6997 29.2484 89.68 25.6956C90.029 25.4418 90.5524 25.0611 91.2503 24.5536C91.9799 24.046 92.4081 23.7447 92.535 23.6495C92.8205 23.8716 92.9632 24.1412 92.9632 24.4584C92.9632 24.7756 92.8205 25.0611 92.535 25.3149C90.9489 26.901 88.887 28.6774 86.3492 30.6442C83.8432 32.611 80.9565 34.4825 77.6892 36.259C74.4218 38.0037 71.7572 38.876 69.6952 38.876ZM105.918 18.2251C105.855 18.4154 105.823 18.5423 105.823 18.6057C105.823 19.6843 107.409 20.4456 110.581 20.8897C111.691 21.0166 112.802 21.08 113.912 21.08H114.816C115.799 21.08 116.466 21.1752 116.814 21.3655C117.195 21.5242 117.385 21.9683 117.385 22.6979C117.385 23.8716 116.91 24.4584 115.958 24.4584L113.293 24.3157C111.866 24.3157 109.867 24.5219 107.298 24.9343C104.76 25.3466 102.318 25.9652 99.9702 26.79C97.6228 27.6148 96.4491 28.5188 96.4491 29.5022C96.4491 30.4539 98.1144 31.5324 101.445 32.7378C104.776 33.9433 108.091 34.546 111.39 34.546C114.721 34.546 117.687 34.2446 120.288 33.6419C122.921 33.0075 124.856 32.3889 126.093 31.7862C127.33 31.1835 127.949 30.7711 127.949 30.549C127.949 30.327 127.33 30.2159 126.093 30.2159C124.856 30.2159 123.27 30.3746 121.335 30.6918C119.432 31.009 118.274 31.2469 117.861 31.4055C117.481 31.5641 117.195 31.6434 117.005 31.6434C116.846 31.6434 116.751 31.6434 116.719 31.6434C116.719 31.6117 116.703 31.5165 116.672 31.3579C118.29 29.9939 120.098 28.9629 122.096 28.2651C124.126 27.5354 125.744 27.1706 126.95 27.1706C129.107 27.1706 130.185 28.2968 130.185 30.549C130.185 31.9765 129.567 33.2612 128.33 34.4032C127.124 35.5135 125.538 36.4017 123.571 37.0679C119.574 38.3685 115.276 39.0188 110.676 39.0188H109.487C106.441 43.2378 104.459 46.0927 103.539 47.5837C103.475 47.9326 103.285 48.1071 102.968 48.1071C102.651 48.1071 102.318 47.8057 101.969 47.203C101.651 46.6003 101.493 45.9341 101.493 45.2045C101.493 43.8088 102.667 41.6041 105.014 38.5905C101.334 37.9878 98.733 36.8934 97.2104 35.3073C95.7194 33.7212 94.974 32.1986 94.974 30.7394C94.974 29.2802 95.3388 28.0589 96.0684 27.0755C96.8297 26.0604 97.7338 25.2673 98.7806 24.6963C99.8592 24.1253 100.922 23.6495 101.969 23.2689C103.047 22.8882 103.951 22.6027 104.681 22.4124C105.442 22.1903 105.823 22.0476 105.823 21.9841L105.728 21.6986C104.649 20.5566 104.11 19.5098 104.11 18.5582C104.11 17.5748 104.332 16.6231 104.776 15.7032C105.886 13.4509 107.853 11.7538 110.676 10.6118C113.5 9.43812 116.577 8.72437 119.907 8.4706C123.968 4.34676 127.013 1.66626 129.043 0.429105C129.297 0.238772 129.535 0.143606 129.757 0.143606C129.979 0.143606 130.154 0.20705 130.28 0.333937C130.978 0.841489 131.327 1.17457 131.327 1.33318C131.327 1.46007 131.28 1.57109 131.185 1.66626C128.488 4.3309 126.315 6.58315 124.666 8.42302C128.663 8.74024 130.661 10.2312 130.661 12.8958C130.661 13.2765 130.629 13.6888 130.566 14.133C130.502 14.133 130.376 14.0219 130.185 13.7999C129.36 12.9434 127.188 12.5151 123.666 12.5151C120.177 12.5151 116.529 13.102 112.722 14.2757C108.916 15.4177 106.648 16.7342 105.918 18.2251ZM180.806 17.3686C180.806 19.2719 180.029 21.5717 178.475 24.2681C176.952 26.9645 174.985 29.5657 172.574 32.0717C170.164 34.5777 167.245 36.7189 163.819 38.4954C160.393 40.2718 157.031 41.1759 153.732 41.2076C153.541 41.2076 153.224 41.1124 152.78 40.9221C152.368 40.7635 152.019 40.5573 151.733 40.3035C151.035 39.6373 150.686 38.654 150.686 37.3534C150.908 36.1797 151.4 35.228 152.161 34.4984C152.415 34.2446 152.542 34.086 152.542 34.0226H152.495C152.431 34.0226 152.272 34.1019 152.019 34.2605L143.406 40.6842C142.835 41.3186 142.28 41.6358 141.741 41.6358C141.582 41.6358 141.408 41.5882 141.217 41.4931L140.075 40.3987C139.98 40.3352 139.933 40.1608 139.933 39.8753C139.933 39.6215 140.091 39.1932 140.409 38.5905C140.726 37.9878 141.376 36.9727 142.359 35.5452C143.343 34.086 144.754 32.151 146.594 29.7401C148.466 27.3293 150.877 24.6646 153.827 21.7462C156.809 18.7961 159.965 16.0839 163.296 13.6095C163.962 12.9751 164.596 12.6579 165.199 12.6579C165.358 12.6579 165.627 12.7689 166.008 12.991C166.516 13.2447 166.769 13.4985 166.769 13.7523C166.769 14.0061 166.69 14.1964 166.531 14.3233L163.201 17.5589C155.397 25.6163 150.448 31.0883 148.355 33.975C148.101 34.2605 147.974 34.4667 147.974 34.5936C147.974 34.6887 148.006 34.7363 148.069 34.7363C148.165 34.7363 148.26 34.6887 148.355 34.5936C150.861 32.9123 153.621 31.3738 156.634 29.978C156.856 29.8511 157.047 29.7877 157.205 29.7877C157.396 29.7877 157.538 29.8511 157.633 29.978L158.538 31.0724C158.664 31.2628 158.728 31.4531 158.728 31.6434C158.728 31.802 158.664 31.9289 158.538 32.0241L158.014 32.5951C156.143 34.435 155.175 35.6087 155.112 36.1162C155.143 36.2748 155.223 36.3541 155.35 36.3541C157.221 36.3541 159.981 35.228 163.629 32.9758C167.277 30.7235 170.608 28.0589 173.621 24.9818C176.635 21.8731 178.142 19.3036 178.142 17.2734C178.142 16.5755 177.777 15.8618 177.047 15.1322C176.349 14.4026 175.604 13.8157 174.811 13.3716C172.844 12.3248 170.402 11.8014 167.483 11.8014C164.565 11.8014 161.773 12.1345 159.109 12.8006C156.444 13.4351 154.081 14.2281 152.019 15.1798C149.989 16.1314 148.133 17.1465 146.452 18.2251C144.802 19.2719 143.533 20.2394 142.645 21.1276C141.757 21.9841 141.313 22.6186 141.313 23.0309C141.313 23.1261 141.36 23.1737 141.455 23.1737C142.439 23.1737 144.294 22.4917 147.023 21.1276C149.782 19.7636 151.606 18.6533 152.495 17.7968C153.288 17.2258 153.795 16.9403 154.017 16.9403C154.144 16.9403 154.208 17.0672 154.208 17.321C154.208 17.5431 154.001 17.9554 153.589 18.5582C153.177 19.1609 152.574 19.8905 151.781 20.747C150.988 21.5717 150.115 22.3965 149.164 23.2213C148.212 24.0143 147.118 24.6963 145.881 25.2673C144.643 25.8383 143.549 26.1238 142.597 26.1238C141.646 26.1238 140.646 25.7114 139.6 24.8867C138.553 24.0302 138.029 22.9675 138.029 21.6986C138.029 19.1926 139.631 16.7976 142.835 14.5136C146.039 12.2296 149.751 10.4691 153.97 9.23193C158.22 7.99477 161.837 7.37619 164.818 7.37619C167.8 7.37619 170.243 7.66169 172.146 8.23269C174.05 8.80368 175.509 9.4857 176.524 10.2787C177.571 11.0718 178.443 11.9759 179.141 12.991C180.156 14.5136 180.711 15.9728 180.806 17.3686ZM191.863 14.466C192.18 14.466 192.386 14.5295 192.482 14.6564C192.926 15.1956 193.148 15.6397 193.148 15.9887C193.148 16.3059 193.053 16.5914 192.862 16.8452C192.672 17.0672 192.434 17.3369 192.149 17.6541C191.895 17.9396 191.355 18.352 190.531 18.8912C189.738 19.3988 188.96 19.6526 188.199 19.6526C187.628 19.5574 187.343 19.2085 187.343 18.6057C187.343 17.6541 187.914 16.7342 189.056 15.8459C190.198 14.926 191.133 14.466 191.863 14.466ZM180.443 33.2137C180.189 33.6578 180.062 34.0543 180.062 34.4032C180.062 34.7522 180.253 34.9266 180.633 34.9266C180.856 34.9266 181.236 34.8315 181.775 34.6412C187.707 31.5324 193.513 27.8685 199.191 23.6495C199.476 23.8716 199.619 24.1412 199.619 24.4584C199.619 24.7756 199.46 25.077 199.143 25.3625C198.826 25.648 198.366 26.0604 197.763 26.5997C197.192 27.1389 196.082 28.1064 194.432 29.5022C192.783 30.898 191.244 32.1668 189.817 33.3088C186.074 36.3224 183.314 38.0988 181.538 38.6381C180.967 38.7967 180.348 38.876 179.682 38.876C177.239 38.876 176.018 37.5754 176.018 34.9742C176.018 33.9591 176.573 32.5158 177.683 30.6442C178.794 28.7409 179.936 27.0755 181.109 25.648C182.283 24.1888 183.06 23.3799 183.441 23.2213C184.012 22.8723 184.63 22.6979 185.297 22.6979C185.963 22.6979 186.597 22.8248 187.2 23.0785C187.39 23.1737 187.485 23.3006 187.485 23.4592C187.485 23.6178 187.327 23.8557 187.01 24.1729C186.724 24.4901 186.264 24.9818 185.63 25.648C185.027 26.3142 184.107 27.472 182.87 29.1215C181.664 30.7394 180.856 32.1034 180.443 33.2137ZM199.848 22.2696C200.101 22.2696 200.514 22.3965 201.085 22.6503C201.687 22.9041 201.989 23.1896 201.989 23.5068C201.989 23.7288 201.91 23.9509 201.751 24.1729L198.182 29.1215C197.77 29.6291 197.564 29.9146 197.564 29.978C197.564 30.0415 197.58 30.0732 197.611 30.0732L197.849 29.9305C201.529 27.361 204.558 25.1087 206.937 23.1737C207.382 22.8565 207.746 22.6979 208.032 22.6979C208.349 22.6979 208.555 22.7296 208.65 22.793L209.983 23.1737C210.3 23.3323 210.459 23.5385 210.459 23.7923C210.459 24.046 210.395 24.2522 210.268 24.4108C209.666 25.077 208.968 25.8383 208.175 26.6948C207.413 27.5196 206.842 28.154 206.462 28.5981C206.081 29.0105 205.653 29.4863 205.177 30.0256C204.701 30.5649 204.352 30.9773 204.13 31.2628C203.94 31.5483 203.718 31.8813 203.464 32.262C203.21 32.611 203.036 32.9123 202.941 33.1661C202.75 33.8957 202.655 34.5301 202.655 35.0694C202.655 35.3549 202.829 35.4976 203.178 35.4976C203.559 35.4976 204.225 35.2756 205.177 34.8315C206.16 34.3874 207.318 33.7054 208.65 32.7854C210.014 31.8655 211.807 30.5649 214.027 28.8836C216.28 27.1706 218.246 25.7273 219.928 24.5536C220.213 24.7756 220.356 25.0453 220.356 25.3625C220.356 25.6797 220.213 25.9652 219.928 26.219C218.912 27.2024 217.628 28.4395 216.073 29.9305C214.519 31.3897 212.14 33.3564 208.936 35.8307C205.764 38.305 203.543 39.5422 202.274 39.5422C199.832 39.5422 198.61 38.2416 198.61 35.6404C198.61 34.657 198.991 33.6261 199.752 32.5475L201.799 29.7401C201.989 29.4546 202.084 29.296 202.084 29.2643C202.084 29.2008 201.989 29.2484 201.799 29.407C196.279 34.0067 192.758 36.7031 191.235 37.4961C190.981 37.6547 190.664 37.734 190.283 37.734C189.237 37.734 188.713 37.2582 188.713 36.3065C188.713 35.9893 188.793 35.7038 188.951 35.4501C191.299 33.293 192.948 31.5324 193.9 30.1684C194.661 29.407 195.454 28.3444 196.279 26.9803C197.135 25.6163 197.849 24.4902 198.42 23.6019C199.023 22.7137 199.499 22.2696 199.848 22.2696ZM226.064 23.6495C225.239 23.6495 223.843 24.506 221.877 26.219C219.91 27.9003 218.926 28.9312 218.926 29.3119C218.926 29.3753 218.974 29.407 219.069 29.407C219.767 29.407 221.147 28.6299 223.209 27.0755C225.303 25.5211 226.349 24.4584 226.349 23.8874C226.349 23.7288 226.254 23.6495 226.064 23.6495ZM215.929 38.876C213.486 38.876 212.265 37.3851 212.265 34.4032C212.265 32.5316 213.074 30.549 214.692 28.4554C216.341 26.33 218.276 24.6012 220.497 23.2689C222.717 21.9048 224.684 21.2228 226.397 21.2228C227.158 21.2228 227.856 21.5242 228.491 22.1269C229.157 22.7296 229.49 23.3164 229.49 23.8874C229.49 24.9343 228.744 26.1238 227.253 27.4561C225.763 28.7567 224.192 29.8194 222.543 30.6442C220.925 31.4372 219.846 31.8338 219.307 31.8338C218.8 31.8338 218.419 31.5959 218.165 31.12C218.038 31.0249 217.864 30.9773 217.642 30.9773C217.42 30.9773 217.055 31.4055 216.547 32.262C216.04 33.0868 215.786 33.7688 215.786 34.3081C215.786 34.8156 215.976 35.1328 216.357 35.2597C218.768 35.2597 221.385 34.5618 224.208 33.1661C227.031 31.7386 230.933 29.2484 235.914 25.6956C236.262 25.4418 236.786 25.0611 237.484 24.5536C238.213 24.046 238.642 23.7447 238.769 23.6495C239.054 23.8716 239.197 24.1412 239.197 24.4584C239.197 24.7756 239.054 25.0611 238.769 25.3149C237.182 26.901 235.121 28.6774 232.583 30.6442C230.077 32.611 227.19 34.4825 223.923 36.259C220.655 38.0037 217.991 38.876 215.929 38.876Z" fill="#C9AB81"/>
</svg>
